<ttFont>
    <TTGlyph name=".notdef" xMin="50" yMin="0" xMax="450" yMax="750">
      <contour>
        <pt x="50" y="0" on="1"/>
        <pt x="50" y="750" on="1"/>
        <pt x="450" y="750" on="1"/>
        <pt x="450" y="0" on="1"/>
      </contour>
      <contour>
        <pt x="400" y="50" on="1"/>
        <pt x="400" y="700" on="1"/>
        <pt x="100" y="700" on="1"/>
        <pt x="100" y="50" on="1"/>
      </contour>
    </TTGlyph>
    <TTGlyph name="A" xMin="9" yMin="0" xMax="491" yMax="619">
      <contour>
        <pt x="359" y="0" on="1"/>
        <pt x="330" y="143" on="1"/>
        <pt x="165" y="143" on="1"/>
        <pt x="137" y="0" on="1"/>
        <pt x="9" y="0" on="1"/>
        <pt x="53" y="183" on="0"/>
        <pt x="143" y="484" on="0"/>
        <pt x="185" y="619" on="1"/>
        <pt x="319" y="619" on="1"/>
        <pt x="363" y="483" on="0"/>
        <pt x="450" y="178" on="0"/>
        <pt x="491" y="0" on="1"/>
      </contour>
      <contour>
        <pt x="249" y="499" on="1"/>
        <pt x="239" y="464" on="0"/>
        <pt x="222" y="401" on="0"/>
        <pt x="207" y="340" on="0"/>
        <pt x="194" y="278" on="0"/>
        <pt x="188" y="245" on="1"/>
        <pt x="309" y="245" on="1"/>
        <pt x="303" y="278" on="0"/>
        <pt x="291" y="340" on="0"/>
        <pt x="276" y="401" on="0"/>
        <pt x="259" y="464" on="0"/>
      </contour>
    </TTGlyph>
    <TTGlyph name="AE" xMin="9" yMin="0" xMax="491" yMax="619">
      <contour>
        <pt x="255" y="143" on="1"/>
        <pt x="164" y="143" on="1"/>
        <pt x="137" y="0" on="1"/>
        <pt x="9" y="0" on="1"/>
        <pt x="35" y="106" on="0"/>
        <pt x="79" y="267" on="0"/>
        <pt x="123" y="407" on="0"/>
        <pt x="169" y="540" on="0"/>
        <pt x="198" y="619" on="1"/>
        <pt x="478" y="619" on="1"/>
        <pt x="478" y="517" on="1"/>
        <pt x="367" y="517" on="1"/>
        <pt x="367" y="379" on="1"/>
        <pt x="455" y="379" on="1"/>
        <pt x="455" y="277" on="1"/>
        <pt x="367" y="277" on="1"/>
        <pt x="367" y="102" on="1"/>
        <pt x="491" y="102" on="1"/>
        <pt x="491" y="0" on="1"/>
        <pt x="255" y="0" on="1"/>
      </contour>
      <contour>
        <pt x="255" y="536" on="1"/>
        <pt x="238" y="467" on="0"/>
        <pt x="204" y="328" on="0"/>
        <pt x="186" y="245" on="1"/>
        <pt x="255" y="245" on="1"/>
      </contour>
    </TTGlyph>
    <TTGlyph name="AEacute" xMin="9" yMin="0" xMax="491" yMax="830">
      <component glyphName="AE" x="0" y="0" flags="0x204"/>
      <component glyphName="acute" x="71" y="139" flags="0x4"/>
    </TTGlyph>
    <TTGlyph name="Aacute" xMin="9" yMin="0" xMax="491" yMax="830">
      <component glyphName="A" x="0" y="0" flags="0x204"/>
      <component glyphName="acute" x="-12" y="139" flags="0x4"/>
    </TTGlyph>
    <TTGlyph name="Abreve" xMin="9" yMin="0" xMax="491" yMax="821">
      <component glyphName="A" x="0" y="0" flags="0x204"/>
      <component glyphName="breve" x="0" y="139" flags="0x4"/>
    </TTGlyph>
    <TTGlyph name="Acircumflex" xMin="9" yMin="0" xMax="491" yMax="830">
      <component glyphName="A" x="0" y="0" flags="0x204"/>
      <component glyphName="circumflex" x="0" y="139" flags="0x4"/>
    </TTGlyph>
    <TTGlyph name="Adieresis" xMin="9" yMin="0" xMax="491" yMax="812">
      <component glyphName="A" x="0" y="0" flags="0x204"/>
      <component glyphName="dieresis" x="0" y="139" flags="0x4"/>
    </TTGlyph>
    <TTGlyph name="Agrave" xMin="9" yMin="0" xMax="491" yMax="830">
      <component glyphName="A" x="0" y="0" flags="0x204"/>
      <component glyphName="grave" x="-16" y="139" flags="0x4"/>
    </TTGlyph>
    <TTGlyph name="Alpha" xMin="9" yMin="0" xMax="491" yMax="619">
      <component glyphName="A" x="0" y="0" flags="0x204"/>
    </TTGlyph>
    <TTGlyph name="Alphatonos" xMin="-24" yMin="0" xMax="491" yMax="640">
      <component glyphName="A" x="0" y="0" flags="0x204"/>
      <component glyphName="tonos.cap" x="-195" y="0" flags="0x4"/>
    </TTGlyph>
    <TTGlyph name="Amacron" xMin="9" yMin="0" xMax="491" yMax="786">
      <component glyphName="A" x="0" y="0" flags="0x204"/>
      <component glyphName="macron" x="-1" y="139" flags="0x4"/>
    </TTGlyph>
    <TTGlyph name="Aogonek" xMin="9" yMin="-170" xMax="505" yMax="619">
      <contour>
        <pt x="249" y="499" on="1"/>
        <pt x="239" y="464" on="0"/>
        <pt x="222" y="401" on="0"/>
        <pt x="207" y="340" on="0"/>
        <pt x="194" y="278" on="0"/>
        <pt x="188" y="245" on="1"/>
        <pt x="309" y="245" on="1"/>
        <pt x="303" y="278" on="0"/>
        <pt x="291" y="340" on="0"/>
        <pt x="276" y="401" on="0"/>
        <pt x="259" y="464" on="0"/>
      </contour>
      <contour>
        <pt x="359" y="0" on="1"/>
        <pt x="330" y="143" on="1"/>
        <pt x="165" y="143" on="1"/>
        <pt x="137" y="0" on="1"/>
        <pt x="9" y="0" on="1"/>
        <pt x="53" y="183" on="0"/>
        <pt x="143" y="484" on="0"/>
        <pt x="185" y="619" on="1"/>
        <pt x="319" y="619" on="1"/>
        <pt x="363" y="483" on="0"/>
        <pt x="450" y="178" on="0"/>
        <pt x="491" y="0" on="1"/>
        <pt x="482" y="-8" on="0"/>
        <pt x="459" y="-28" on="0"/>
        <pt x="439" y="-50" on="0"/>
        <pt x="426" y="-72" on="0"/>
        <pt x="426" y="-81" on="1"/>
        <pt x="426" y="-91" on="0"/>
        <pt x="437" y="-105" on="0"/>
        <pt x="453" y="-105" on="1"/>
        <pt x="461" y="-105" on="0"/>
        <pt x="483" y="-103" on="0"/>
        <pt x="498" y="-98" on="1"/>
        <pt x="505" y="-156" on="1"/>
        <pt x="491" y="-161" on="0"/>
        <pt x="440" y="-170" on="0"/>
        <pt x="412" y="-170" on="1"/>
        <pt x="364" y="-170" on="0"/>
        <pt x="322" y="-133" on="0"/>
        <pt x="322" y="-106" on="1"/>
        <pt x="322" y="-82" on="0"/>
        <pt x="349" y="-28" on="0"/>
        <pt x="375" y="-8" on="1"/>
        <pt x="384" y="0" on="1"/>
      </contour>
    </TTGlyph>
    <TTGlyph name="Aring" xMin="9" yMin="0" xMax="491" yMax="788">
      <contour>
        <pt x="355" y="685" on="1"/>
        <pt x="355" y="659" on="0"/>
        <pt x="337" y="621" on="0"/>
        <pt x="322" y="607" on="1"/>
        <pt x="365" y="473" on="0"/>
        <pt x="451" y="174" on="0"/>
        <pt x="491" y="0" on="1"/>
        <pt x="359" y="0" on="1"/>
        <pt x="330" y="143" on="1"/>
        <pt x="165" y="143" on="1"/>
        <pt x="137" y="0" on="1"/>
        <pt x="9" y="0" on="1"/>
        <pt x="52" y="178" on="0"/>
        <pt x="139" y="473" on="0"/>
        <pt x="180" y="605" on="1"/>
        <pt x="164" y="618" on="0"/>
        <pt x="145" y="658" on="0"/>
        <pt x="145" y="685" on="1"/>
        <pt x="145" y="710" on="0"/>
        <pt x="162" y="749" on="0"/>
        <pt x="191" y="775" on="0"/>
        <pt x="229" y="788" on="0"/>
        <pt x="249" y="788" on="1"/>
        <pt x="292" y="788" on="0"/>
        <pt x="355" y="736" on="0"/>
      </contour>
      <contour>
        <pt x="249" y="499" on="1"/>
        <pt x="239" y="464" on="0"/>
        <pt x="222" y="401" on="0"/>
        <pt x="207" y="340" on="0"/>
        <pt x="194" y="278" on="0"/>
        <pt x="188" y="245" on="1"/>
        <pt x="309" y="245" on="1"/>
        <pt x="303" y="278" on="0"/>
        <pt x="291" y="340" on="0"/>
        <pt x="276" y="401" on="0"/>
        <pt x="259" y="464" on="0"/>
      </contour>
      <contour>
        <pt x="290" y="685" on="1"/>
        <pt x="290" y="706" on="0"/>
        <pt x="266" y="727" on="0"/>
        <pt x="249" y="727" on="1"/>
        <pt x="234" y="727" on="0"/>
        <pt x="209" y="706" on="0"/>
        <pt x="209" y="685" on="1"/>
        <pt x="209" y="664" on="0"/>
        <pt x="234" y="643" on="0"/>
        <pt x="249" y="643" on="1"/>
        <pt x="266" y="643" on="0"/>
        <pt x="290" y="664" on="0"/>
      </contour>
    </TTGlyph>
    <TTGlyph name="Aringacute" xMin="9" yMin="0" xMax="491" yMax="830">
      <contour>
        <pt x="359" y="0" on="1"/>
        <pt x="330" y="133" on="1"/>
        <pt x="165" y="133" on="1"/>
        <pt x="137" y="0" on="1"/>
        <pt x="9" y="0" on="1"/>
        <pt x="33" y="86" on="0"/>
        <pt x="76" y="233" on="0"/>
        <pt x="116" y="366" on="0"/>
        <pt x="154" y="492" on="0"/>
        <pt x="174" y="556" on="1"/>
        <pt x="159" y="575" on="0"/>
        <pt x="159" y="608" on="1"/>
        <pt x="159" y="629" on="0"/>
        <pt x="174" y="662" on="0"/>
        <pt x="199" y="685" on="0"/>
        <pt x="232" y="696" on="0"/>
        <pt x="249" y="696" on="1"/>
        <pt x="267" y="696" on="0"/>
        <pt x="299" y="685" on="0"/>
        <pt x="325" y="662" on="0"/>
        <pt x="340" y="629" on="0"/>
        <pt x="340" y="608" on="1"/>
        <pt x="340" y="581" on="0"/>
        <pt x="328" y="560" on="1"/>
        <pt x="349" y="495" on="0"/>
        <pt x="387" y="367" on="0"/>
        <pt x="426" y="231" on="0"/>
        <pt x="468" y="84" on="0"/>
        <pt x="491" y="0" on="1"/>
      </contour>
      <contour>
        <pt x="249" y="469" on="1"/>
        <pt x="239" y="434" on="0"/>
        <pt x="223" y="377" on="0"/>
        <pt x="209" y="323" on="0"/>
        <pt x="196" y="268" on="0"/>
        <pt x="188" y="235" on="1"/>
        <pt x="309" y="235" on="1"/>
        <pt x="301" y="268" on="0"/>
        <pt x="288" y="323" on="0"/>
        <pt x="275" y="377" on="0"/>
        <pt x="259" y="434" on="0"/>
      </contour>
      <contour>
        <pt x="284" y="608" on="1"/>
        <pt x="284" y="626" on="0"/>
        <pt x="263" y="644" on="0"/>
        <pt x="249" y="644" on="1"/>
        <pt x="236" y="644" on="0"/>
        <pt x="214" y="626" on="0"/>
        <pt x="214" y="608" on="1"/>
        <pt x="214" y="589" on="0"/>
        <pt x="236" y="571" on="0"/>
        <pt x="249" y="571" on="1"/>
        <pt x="263" y="571" on="0"/>
        <pt x="284" y="589" on="0"/>
      </contour>
      <contour>
        <pt x="338" y="765" on="1"/>
        <pt x="186" y="708" on="1"/>
        <pt x="162" y="755" on="1"/>
        <pt x="307" y="830" on="1"/>
      </contour>
    </TTGlyph>
    <TTGlyph name="At" xMin="18" yMin="-75" xMax="468" yMax="693">
      <component glyphName="at" x="0" y="60" flags="0x204"/>
    </TTGlyph>
    <TTGlyph name="Atilde" xMin="9" yMin="0" xMax="491" yMax="811">
      <component glyphName="A" x="0" y="0" flags="0x204"/>
      <component glyphName="tilde" x="-1" y="139" flags="0x4"/>
    </TTGlyph>
    <TTGlyph name="B" xMin="54" yMin="-8" xMax="469" yMax="626">
      <contour>
        <pt x="469" y="187" on="1"/>
        <pt x="469" y="131" on="0"/>
        <pt x="431" y="56" on="0"/>
        <pt x="366" y="11" on="0"/>
        <pt x="277" y="-8" on="0"/>
        <pt x="226" y="-8" on="1"/>
        <pt x="185" y="-8" on="0"/>
        <pt x="97" y="1" on="0"/>
        <pt x="54" y="10" on="1"/>
        <pt x="54" y="611" on="1"/>
        <pt x="89" y="617" on="0"/>
        <pt x="173" y="626" on="0"/>
        <pt x="214" y="626" on="1"/>
        <pt x="284" y="626" on="0"/>
        <pt x="372" y="597" on="0"/>
        <pt x="422" y="550" on="0"/>
        <pt x="440" y="492" on="0"/>
        <pt x="440" y="463" on="1"/>
        <pt x="440" y="419" on="0"/>
        <pt x="397" y="351" on="0"/>
        <pt x="361" y="331" on="1"/>
        <pt x="424" y="308" on="0"/>
        <pt x="469" y="230" on="0"/>
      </contour>
      <contour>
        <pt x="177" y="271" on="1"/>
        <pt x="177" y="103" on="1"/>
        <pt x="190" y="101" on="0"/>
        <pt x="221" y="99" on="0"/>
        <pt x="236" y="99" on="1"/>
        <pt x="257" y="99" on="0"/>
        <pt x="297" y="106" on="0"/>
        <pt x="328" y="125" on="0"/>
        <pt x="348" y="160" on="0"/>
        <pt x="348" y="187" on="1"/>
        <pt x="348" y="232" on="0"/>
        <pt x="291" y="271" on="0"/>
        <pt x="243" y="271" on="1"/>
      </contour>
      <contour>
        <pt x="225" y="373" on="1"/>
        <pt x="272" y="373" on="0"/>
        <pt x="320" y="414" on="0"/>
        <pt x="320" y="450" on="1"/>
        <pt x="320" y="472" on="0"/>
        <pt x="306" y="499" on="0"/>
        <pt x="282" y="514" on="0"/>
        <pt x="250" y="519" on="0"/>
        <pt x="233" y="519" on="1"/>
        <pt x="219" y="519" on="0"/>
        <pt x="189" y="517" on="0"/>
        <pt x="177" y="515" on="1"/>
        <pt x="177" y="373" on="1"/>
      </contour>
    </TTGlyph>
    <TTGlyph name="Backslash" xMin="49" yMin="-123" xMax="455" yMax="741">
      <component glyphName="backslash" x="0" y="42" flags="0x204"/>
    </TTGlyph>
    <TTGlyph name="Beta" xMin="54" yMin="-8" xMax="469" yMax="626">
      <component glyphName="B" x="0" y="0" flags="0x204"/>
    </TTGlyph>
    <TTGlyph name="Braceleft" xMin="63" yMin="-123" xMax="437" yMax="741">
      <component glyphName="braceleft" x="0" y="42" flags="0x204"/>
    </TTGlyph>
    <TTGlyph name="Braceright" xMin="63" yMin="-123" xMax="437" yMax="741">
      <component glyphName="braceright" x="0" y="42" flags="0x204"/>
    </TTGlyph>
    <TTGlyph name="Bracketleft" xMin="113" yMin="-123" xMax="390" yMax="741">
      <component glyphName="bracketleft" x="0" y="42" flags="0x204"/>
    </TTGlyph>
    <TTGlyph name="Bracketright" xMin="109" yMin="-123" xMax="387" yMax="741">
      <component glyphName="bracketright" x="0" y="42" flags="0x204"/>
    </TTGlyph>
    <TTGlyph name="Bullet" xMin="114" yMin="167" xMax="386" yMax="453">
      <component glyphName="bullet" x="0" y="-4" flags="0x204"/>
    </TTGlyph>
    <TTGlyph name="C" xMin="27" yMin="-13" xMax="469" yMax="633">
      <contour>
        <pt x="296" y="-13" on="1"/>
        <pt x="165" y="-13" on="0"/>
        <pt x="27" y="155" on="0"/>
        <pt x="27" y="310" on="1"/>
        <pt x="27" y="387" on="0"/>
        <pt x="69" y="507" on="0"/>
        <pt x="144" y="590" on="0"/>
        <pt x="247" y="633" on="0"/>
        <pt x="308" y="633" on="1"/>
        <pt x="341" y="633" on="0"/>
        <pt x="394" y="622" on="0"/>
        <pt x="434" y="608" on="0"/>
        <pt x="461" y="592" on="0"/>
        <pt x="468" y="588" on="1"/>
        <pt x="436" y="490" on="1"/>
        <pt x="413" y="505" on="0"/>
        <pt x="348" y="526" on="0"/>
        <pt x="306" y="526" on="1"/>
        <pt x="277" y="526" on="0"/>
        <pt x="222" y="505" on="0"/>
        <pt x="179" y="456" on="0"/>
        <pt x="152" y="374" on="0"/>
        <pt x="152" y="313" on="1"/>
        <pt x="152" y="207" on="0"/>
        <pt x="225" y="94" on="0"/>
        <pt x="308" y="94" on="1"/>
        <pt x="356" y="94" on="0"/>
        <pt x="419" y="116" on="0"/>
        <pt x="438" y="127" on="1"/>
        <pt x="469" y="30" on="1"/>
        <pt x="443" y="14" on="0"/>
        <pt x="354" y="-13" on="0"/>
      </contour>
    </TTGlyph>
    <TTGlyph name="Cacute" xMin="27" yMin="-13" xMax="469" yMax="830">
      <component glyphName="C" x="0" y="0" flags="0x204"/>
      <component glyphName="acute" x="36" y="139" flags="0x4"/>
    </TTGlyph>
    <TTGlyph name="Ccaron" xMin="27" yMin="-13" xMax="469" yMax="830">
      <component glyphName="C" x="0" y="0" flags="0x204"/>
      <component glyphName="caron" x="54" y="139" flags="0x4"/>
    </TTGlyph>
    <TTGlyph name="Ccedilla" xMin="27" yMin="-170" xMax="469" yMax="633">
      <contour>
        <pt x="300" y="-24" on="1"/>
        <pt x="333" y="-34" on="0"/>
        <pt x="359" y="-73" on="0"/>
        <pt x="359" y="-91" on="1"/>
        <pt x="359" y="-114" on="0"/>
        <pt x="338" y="-144" on="0"/>
        <pt x="305" y="-162" on="0"/>
        <pt x="261" y="-170" on="0"/>
        <pt x="239" y="-170" on="1"/>
        <pt x="194" y="-170" on="0"/>
        <pt x="159" y="-159" on="1"/>
        <pt x="172" y="-96" on="1"/>
        <pt x="178" y="-98" on="0"/>
        <pt x="212" y="-105" on="0"/>
        <pt x="228" y="-105" on="1"/>
        <pt x="269" y="-105" on="0"/>
        <pt x="269" y="-80" on="1"/>
        <pt x="269" y="-61" on="0"/>
        <pt x="233" y="-49" on="1"/>
        <pt x="213" y="-43" on="1"/>
        <pt x="215" y="-34" on="0"/>
        <pt x="223" y="-14" on="0"/>
        <pt x="227" y="-6" on="1"/>
        <pt x="130" y="15" on="0"/>
        <pt x="27" y="176" on="0"/>
        <pt x="27" y="310" on="1"/>
        <pt x="27" y="387" on="0"/>
        <pt x="69" y="507" on="0"/>
        <pt x="144" y="590" on="0"/>
        <pt x="247" y="633" on="0"/>
        <pt x="308" y="633" on="1"/>
        <pt x="341" y="633" on="0"/>
        <pt x="394" y="622" on="0"/>
        <pt x="434" y="608" on="0"/>
        <pt x="461" y="592" on="0"/>
        <pt x="468" y="588" on="1"/>
        <pt x="436" y="490" on="1"/>
        <pt x="413" y="505" on="0"/>
        <pt x="348" y="526" on="0"/>
        <pt x="306" y="526" on="1"/>
        <pt x="277" y="526" on="0"/>
        <pt x="222" y="505" on="0"/>
        <pt x="179" y="456" on="0"/>
        <pt x="152" y="374" on="0"/>
        <pt x="152" y="313" on="1"/>
        <pt x="152" y="207" on="0"/>
        <pt x="225" y="94" on="0"/>
        <pt x="308" y="94" on="1"/>
        <pt x="356" y="94" on="0"/>
        <pt x="419" y="116" on="0"/>
        <pt x="438" y="127" on="1"/>
        <pt x="469" y="30" on="1"/>
        <pt x="444" y="15" on="0"/>
        <pt x="359" y="-11" on="0"/>
        <pt x="304" y="-13" on="1"/>
      </contour>
    </TTGlyph>
    <TTGlyph name="Ccircumflex" xMin="27" yMin="-13" xMax="469" yMax="830">
      <component glyphName="C" x="0" y="0" flags="0x204"/>
      <component glyphName="circumflex" x="54" y="139" flags="0x4"/>
    </TTGlyph>
    <TTGlyph name="Cdotaccent" xMin="27" yMin="-13" xMax="469" yMax="814">
      <component glyphName="C" x="0" y="0" flags="0x204"/>
      <component glyphName="dotaccent" x="54" y="139" flags="0x4"/>
    </TTGlyph>
    <TTGlyph name="Chi" xMin="11" yMin="0" xMax="489" yMax="619">
      <component glyphName="X" x="0" y="0" flags="0x204"/>
    </TTGlyph>
    <TTGlyph name="D" xMin="54" yMin="-8" xMax="473" yMax="626">
      <contour>
        <pt x="177" y="100" on="1"/>
        <pt x="182" y="99" on="0"/>
        <pt x="194" y="99" on="0"/>
        <pt x="199" y="99" on="1"/>
        <pt x="241" y="99" on="0"/>
        <pt x="298" y="131" on="0"/>
        <pt x="333" y="187" on="0"/>
        <pt x="348" y="264" on="0"/>
        <pt x="348" y="310" on="1"/>
        <pt x="348" y="350" on="0"/>
        <pt x="336" y="426" on="0"/>
        <pt x="306" y="484" on="0"/>
        <pt x="254" y="519" on="0"/>
        <pt x="213" y="519" on="1"/>
        <pt x="205" y="519" on="0"/>
        <pt x="185" y="518" on="0"/>
        <pt x="177" y="516" on="1"/>
      </contour>
      <contour>
        <pt x="473" y="310" on="1"/>
        <pt x="473" y="224" on="0"/>
        <pt x="430" y="103" on="0"/>
        <pt x="354" y="27" on="0"/>
        <pt x="249" y="-8" on="0"/>
        <pt x="186" y="-8" on="1"/>
        <pt x="153" y="-8" on="0"/>
        <pt x="90" y="-1" on="0"/>
        <pt x="54" y="7" on="1"/>
        <pt x="54" y="611" on="1"/>
        <pt x="96" y="620" on="0"/>
        <pt x="170" y="626" on="0"/>
        <pt x="202" y="626" on="1"/>
        <pt x="263" y="626" on="0"/>
        <pt x="364" y="590" on="0"/>
        <pt x="434" y="513" on="0"/>
        <pt x="473" y="394" on="0"/>
      </contour>
    </TTGlyph>
    <TTGlyph name="Dcaron" xMin="54" yMin="-8" xMax="473" yMax="830">
      <component glyphName="D" x="0" y="0" flags="0x204"/>
      <component glyphName="caron" x="-35" y="139" flags="0x4"/>
    </TTGlyph>
    <TTGlyph name="Dcroat" xMin="18" yMin="-8" xMax="473" yMax="626">
      <component glyphName="Eth" x="0" y="0" flags="0x204"/>
    </TTGlyph>
    <TTGlyph name="Delta" xMin="9" yMin="0" xMax="491" yMax="619">
      <contour>
        <pt x="9" y="0" on="1"/>
        <pt x="53" y="183" on="0"/>
        <pt x="143" y="484" on="0"/>
        <pt x="185" y="619" on="1"/>
        <pt x="319" y="619" on="1"/>
        <pt x="363" y="483" on="0"/>
        <pt x="450" y="178" on="0"/>
        <pt x="491" y="0" on="1"/>
      </contour>
      <contour>
        <pt x="249" y="499" on="1"/>
        <pt x="223" y="409" on="0"/>
        <pt x="179" y="214" on="0"/>
        <pt x="156" y="102" on="1"/>
        <pt x="338" y="102" on="1"/>
        <pt x="315" y="215" on="0"/>
        <pt x="275" y="411" on="0"/>
      </contour>
    </TTGlyph>
    <TTGlyph name="E" xMin="63" yMin="0" xMax="460" yMax="619">
      <contour>
        <pt x="63" y="0" on="1"/>
        <pt x="63" y="619" on="1"/>
        <pt x="438" y="619" on="1"/>
        <pt x="438" y="517" on="1"/>
        <pt x="186" y="517" on="1"/>
        <pt x="186" y="378" on="1"/>
        <pt x="405" y="378" on="1"/>
        <pt x="405" y="276" on="1"/>
        <pt x="186" y="276" on="1"/>
        <pt x="186" y="102" on="1"/>
        <pt x="460" y="102" on="1"/>
        <pt x="460" y="0" on="1"/>
      </contour>
    </TTGlyph>
    <TTGlyph name="Eacute" xMin="63" yMin="0" xMax="460" yMax="830">
      <component glyphName="E" x="0" y="0" flags="0x204"/>
      <component glyphName="acute" x="-12" y="139" flags="0x4"/>
    </TTGlyph>
    <TTGlyph name="Ebreve" xMin="63" yMin="0" xMax="460" yMax="821">
      <component glyphName="E" x="0" y="0" flags="0x204"/>
      <component glyphName="breve" x="0" y="139" flags="0x4"/>
    </TTGlyph>
    <TTGlyph name="Ecaron" xMin="63" yMin="0" xMax="460" yMax="830">
      <component glyphName="E" x="0" y="0" flags="0x204"/>
      <component glyphName="caron" x="0" y="139" flags="0x4"/>
    </TTGlyph>
    <TTGlyph name="Ecircumflex" xMin="63" yMin="0" xMax="460" yMax="830">
      <component glyphName="E" x="0" y="0" flags="0x204"/>
      <component glyphName="circumflex" x="0" y="139" flags="0x4"/>
    </TTGlyph>
    <TTGlyph name="Edieresis" xMin="63" yMin="0" xMax="460" yMax="812">
      <component glyphName="E" x="0" y="0" flags="0x204"/>
      <component glyphName="dieresis" x="0" y="139" flags="0x4"/>
    </TTGlyph>
    <TTGlyph name="Edotaccent" xMin="63" yMin="0" xMax="460" yMax="814">
      <component glyphName="E" x="0" y="0" flags="0x204"/>
      <component glyphName="dotaccent" x="0" y="139" flags="0x4"/>
    </TTGlyph>
    <TTGlyph name="Egrave" xMin="63" yMin="0" xMax="460" yMax="830">
      <component glyphName="E" x="0" y="0" flags="0x204"/>
      <component glyphName="grave" x="-16" y="139" flags="0x4"/>
    </TTGlyph>
    <TTGlyph name="Emacron" xMin="63" yMin="0" xMax="460" yMax="786">
      <component glyphName="E" x="0" y="0" flags="0x204"/>
      <component glyphName="macron" x="0" y="139" flags="0x4"/>
    </TTGlyph>
    <TTGlyph name="Emdash" xMin="0" yMin="263" xMax="500" yMax="355">
      <component glyphName="emdash" x="0" y="42" flags="0x204"/>
    </TTGlyph>
    <TTGlyph name="Endash" xMin="54" yMin="263" xMax="447" yMax="355">
      <component glyphName="endash" x="0" y="42" flags="0x204"/>
    </TTGlyph>
    <TTGlyph name="Eng" xMin="46" yMin="-167" xMax="454" yMax="619">
      <contour>
        <pt x="343" y="30" on="1"/>
        <pt x="303" y="125" on="0"/>
        <pt x="210" y="315" on="0"/>
        <pt x="157" y="411" on="1"/>
        <pt x="157" y="0" on="1"/>
        <pt x="46" y="0" on="1"/>
        <pt x="46" y="619" on="1"/>
        <pt x="145" y="619" on="1"/>
        <pt x="173" y="575" on="0"/>
        <pt x="229" y="472" on="0"/>
        <pt x="282" y="370" on="0"/>
        <pt x="327" y="274" on="0"/>
        <pt x="343" y="238" on="1"/>
        <pt x="343" y="619" on="1"/>
        <pt x="454" y="619" on="1"/>
        <pt x="454" y="8" on="1"/>
        <pt x="454" y="-79" on="0"/>
        <pt x="383" y="-167" on="0"/>
        <pt x="305" y="-167" on="1"/>
        <pt x="294" y="-167" on="0"/>
        <pt x="258" y="-163" on="0"/>
        <pt x="240" y="-155" on="1"/>
        <pt x="258" y="-54" on="1"/>
        <pt x="277" y="-62" on="0"/>
        <pt x="295" y="-62" on="1"/>
        <pt x="323" y="-62" on="0"/>
        <pt x="343" y="-28" on="0"/>
        <pt x="343" y="4" on="1"/>
      </contour>
    </TTGlyph>
    <TTGlyph name="Eogonek" xMin="63" yMin="-170" xMax="474" yMax="619">
      <contour>
        <pt x="63" y="0" on="1"/>
        <pt x="63" y="619" on="1"/>
        <pt x="438" y="619" on="1"/>
        <pt x="438" y="517" on="1"/>
        <pt x="186" y="517" on="1"/>
        <pt x="186" y="378" on="1"/>
        <pt x="405" y="378" on="1"/>
        <pt x="405" y="276" on="1"/>
        <pt x="186" y="276" on="1"/>
        <pt x="186" y="102" on="1"/>
        <pt x="460" y="102" on="1"/>
        <pt x="460" y="0" on="1"/>
        <pt x="450" y="-8" on="0"/>
        <pt x="427" y="-28" on="0"/>
        <pt x="408" y="-50" on="0"/>
        <pt x="395" y="-72" on="0"/>
        <pt x="395" y="-81" on="1"/>
        <pt x="395" y="-91" on="0"/>
        <pt x="406" y="-105" on="0"/>
        <pt x="422" y="-105" on="1"/>
        <pt x="430" y="-105" on="0"/>
        <pt x="452" y="-103" on="0"/>
        <pt x="467" y="-98" on="1"/>
        <pt x="474" y="-156" on="1"/>
        <pt x="460" y="-161" on="0"/>
        <pt x="409" y="-170" on="0"/>
        <pt x="381" y="-170" on="1"/>
        <pt x="333" y="-170" on="0"/>
        <pt x="291" y="-133" on="0"/>
        <pt x="291" y="-106" on="1"/>
        <pt x="291" y="-80" on="0"/>
        <pt x="324" y="-22" on="0"/>
        <pt x="353" y="0" on="1"/>
      </contour>
    </TTGlyph>
    <TTGlyph name="Epsilon" xMin="63" yMin="0" xMax="460" yMax="619">
      <component glyphName="E" x="0" y="0" flags="0x204"/>
    </TTGlyph>
    <TTGlyph name="Epsilontonos" xMin="-133" yMin="0" xMax="460" yMax="640">
      <component glyphName="tonos.cap" x="-304" y="0" flags="0x214"/>
      <component glyphName="E" x="0" y="0" flags="0x4"/>
    </TTGlyph>
    <TTGlyph name="Eta" xMin="45" yMin="0" xMax="455" yMax="619">
      <component glyphName="H" x="0" y="0" flags="0x204"/>
    </TTGlyph>
    <TTGlyph name="Etatonos" xMin="-150" yMin="0" xMax="455" yMax="640">
      <component glyphName="H" x="0" y="0" flags="0x204"/>
      <component glyphName="tonos.cap" x="-321" y="0" flags="0x4"/>
    </TTGlyph>
    <TTGlyph name="Eth" xMin="18" yMin="-8" xMax="473" yMax="626">
      <contour>
        <pt x="473" y="310" on="1"/>
        <pt x="473" y="224" on="0"/>
        <pt x="432" y="103" on="0"/>
        <pt x="359" y="27" on="0"/>
        <pt x="259" y="-8" on="0"/>
        <pt x="199" y="-8" on="1"/>
        <pt x="167" y="-8" on="0"/>
        <pt x="106" y="-1" on="0"/>
        <pt x="71" y="7" on="1"/>
        <pt x="71" y="270" on="1"/>
        <pt x="18" y="270" on="1"/>
        <pt x="18" y="372" on="1"/>
        <pt x="71" y="372" on="1"/>
        <pt x="71" y="611" on="1"/>
        <pt x="113" y="620" on="0"/>
        <pt x="183" y="626" on="0"/>
        <pt x="215" y="626" on="1"/>
        <pt x="273" y="626" on="0"/>
        <pt x="369" y="590" on="0"/>
        <pt x="436" y="513" on="0"/>
        <pt x="473" y="394" on="0"/>
      </contour>
      <contour>
        <pt x="195" y="372" on="1"/>
        <pt x="271" y="372" on="1"/>
        <pt x="271" y="270" on="1"/>
        <pt x="195" y="270" on="1"/>
        <pt x="195" y="100" on="1"/>
        <pt x="199" y="99" on="0"/>
        <pt x="208" y="99" on="0"/>
        <pt x="213" y="99" on="1"/>
        <pt x="251" y="99" on="0"/>
        <pt x="303" y="131" on="0"/>
        <pt x="334" y="187" on="0"/>
        <pt x="348" y="264" on="0"/>
        <pt x="348" y="310" on="1"/>
        <pt x="348" y="350" on="0"/>
        <pt x="338" y="426" on="0"/>
        <pt x="311" y="484" on="0"/>
        <pt x="263" y="519" on="0"/>
        <pt x="226" y="519" on="1"/>
        <pt x="218" y="519" on="0"/>
        <pt x="202" y="518" on="0"/>
        <pt x="195" y="516" on="1"/>
      </contour>
    </TTGlyph>
    <TTGlyph name="Euro" xMin="31" yMin="-12" xMax="478" yMax="631">
      <contour>
        <pt x="100" y="427" on="1"/>
        <pt x="123" y="530" on="0"/>
        <pt x="247" y="631" on="0"/>
        <pt x="336" y="631" on="1"/>
        <pt x="365" y="631" on="0"/>
        <pt x="429" y="623" on="0"/>
        <pt x="463" y="609" on="1"/>
        <pt x="436" y="507" on="1"/>
        <pt x="418" y="515" on="0"/>
        <pt x="371" y="524" on="0"/>
        <pt x="342" y="524" on="1"/>
        <pt x="291" y="524" on="0"/>
        <pt x="239" y="472" on="0"/>
        <pt x="228" y="427" on="1"/>
        <pt x="410" y="427" on="1"/>
        <pt x="393" y="343" on="1"/>
        <pt x="216" y="343" on="1"/>
        <pt x="215" y="335" on="0"/>
        <pt x="214" y="320" on="0"/>
        <pt x="214" y="312" on="1"/>
        <pt x="214" y="304" on="0"/>
        <pt x="215" y="288" on="0"/>
        <pt x="216" y="280" on="1"/>
        <pt x="382" y="280" on="1"/>
        <pt x="365" y="196" on="1"/>
        <pt x="228" y="196" on="1"/>
        <pt x="240" y="143" on="0"/>
        <pt x="300" y="96" on="0"/>
        <pt x="337" y="96" on="1"/>
        <pt x="363" y="96" on="0"/>
        <pt x="425" y="106" on="0"/>
        <pt x="452" y="119" on="1"/>
        <pt x="478" y="20" on="1"/>
        <pt x="447" y="5" on="0"/>
        <pt x="372" y="-12" on="0"/>
        <pt x="334" y="-12" on="1"/>
        <pt x="292" y="-12" on="0"/>
        <pt x="214" y="11" on="0"/>
        <pt x="151" y="60" on="0"/>
        <pt x="106" y="139" on="0"/>
        <pt x="96" y="196" on="1"/>
        <pt x="31" y="196" on="1"/>
        <pt x="31" y="280" on="1"/>
        <pt x="88" y="280" on="1"/>
        <pt x="88" y="343" on="1"/>
        <pt x="31" y="343" on="1"/>
        <pt x="31" y="427" on="1"/>
      </contour>
    </TTGlyph>
    <TTGlyph name="Exclamdown" xMin="169" yMin="-6" xMax="335" yMax="624">
      <component glyphName="exclamdown" x="2" y="159" flags="0x204"/>
    </TTGlyph>
    <TTGlyph name="F" xMin="63" yMin="0" xMax="442" yMax="619">
      <contour>
        <pt x="63" y="0" on="1"/>
        <pt x="63" y="619" on="1"/>
        <pt x="442" y="619" on="1"/>
        <pt x="442" y="517" on="1"/>
        <pt x="186" y="517" on="1"/>
        <pt x="186" y="367" on="1"/>
        <pt x="410" y="367" on="1"/>
        <pt x="410" y="265" on="1"/>
        <pt x="186" y="265" on="1"/>
        <pt x="186" y="0" on="1"/>
      </contour>
    </TTGlyph>
    <TTGlyph name="G" xMin="27" yMin="-13" xMax="464" yMax="633">
      <contour>
        <pt x="312" y="526" on="1"/>
        <pt x="268" y="526" on="0"/>
        <pt x="208" y="494" on="0"/>
        <pt x="169" y="437" on="0"/>
        <pt x="152" y="358" on="0"/>
        <pt x="152" y="310" on="1"/>
        <pt x="152" y="199" on="0"/>
        <pt x="222" y="94" on="0"/>
        <pt x="290" y="94" on="1"/>
        <pt x="301" y="94" on="0"/>
        <pt x="327" y="96" on="0"/>
        <pt x="338" y="98" on="1"/>
        <pt x="338" y="324" on="1"/>
        <pt x="461" y="324" on="1"/>
        <pt x="461" y="15" on="1"/>
        <pt x="439" y="7" on="0"/>
        <pt x="346" y="-13" on="0"/>
        <pt x="280" y="-13" on="1"/>
        <pt x="222" y="-13" on="0"/>
        <pt x="129" y="28" on="0"/>
        <pt x="63" y="109" on="0"/>
        <pt x="27" y="230" on="0"/>
        <pt x="27" y="310" on="1"/>
        <pt x="27" y="389" on="0"/>
        <pt x="69" y="510" on="0"/>
        <pt x="141" y="592" on="0"/>
        <pt x="239" y="633" on="0"/>
        <pt x="295" y="633" on="1"/>
        <pt x="331" y="633" on="0"/>
        <pt x="388" y="622" on="0"/>
        <pt x="430" y="608" on="0"/>
        <pt x="457" y="592" on="0"/>
        <pt x="464" y="588" on="1"/>
        <pt x="432" y="490" on="1"/>
        <pt x="410" y="504" on="0"/>
        <pt x="346" y="526" on="0"/>
      </contour>
    </TTGlyph>
    <TTGlyph name="Gamma" xMin="36" yMin="0" xMax="484" yMax="619">
      <component glyphName="afii10020" x="0" y="0" flags="0x204"/>
    </TTGlyph>
    <TTGlyph name="Gbreve" xMin="27" yMin="-13" xMax="464" yMax="821">
      <component glyphName="G" x="0" y="0" flags="0x204"/>
      <component glyphName="breve" x="45" y="139" flags="0x4"/>
    </TTGlyph>
    <TTGlyph name="Gcaron" xMin="27" yMin="-13" xMax="464" yMax="830">
      <component glyphName="G" x="0" y="0" flags="0x204"/>
      <component glyphName="caron" x="36" y="139" flags="0x4"/>
    </TTGlyph>
    <TTGlyph name="Gcircumflex" xMin="27" yMin="-13" xMax="464" yMax="830">
      <component glyphName="G" x="0" y="0" flags="0x204"/>
      <component glyphName="circumflex" x="45" y="139" flags="0x4"/>
    </TTGlyph>
    <TTGlyph name="Gcommaaccent" xMin="27" yMin="-170" xMax="464" yMax="633">
      <component glyphName="G" x="0" y="0" flags="0x204"/>
      <component glyphName="commaaccent" x="0" y="0" flags="0x4"/>
    </TTGlyph>
    <TTGlyph name="Gdotaccent" xMin="27" yMin="-13" xMax="464" yMax="814">
      <component glyphName="G" x="0" y="0" flags="0x204"/>
      <component glyphName="dotaccent" x="45" y="139" flags="0x4"/>
    </TTGlyph>
    <TTGlyph name="Guillemotleft" xMin="50" yMin="100" xMax="451" yMax="516">
      <component glyphName="guillemotleft" x="0" y="54" flags="0x204"/>
    </TTGlyph>
    <TTGlyph name="Guillemotright" xMin="50" yMin="100" xMax="451" yMax="516">
      <component glyphName="guillemotright" x="0" y="54" flags="0x204"/>
    </TTGlyph>
    <TTGlyph name="Guilsinglleft" xMin="132" yMin="94" xMax="380" yMax="523">
      <component glyphName="guilsinglleft" x="0" y="55" flags="0x204"/>
    </TTGlyph>
    <TTGlyph name="Guilsinglright" xMin="155" yMin="94" xMax="403" yMax="523">
      <component glyphName="guilsinglright" x="0" y="55" flags="0x204"/>
    </TTGlyph>
    <TTGlyph name="H" xMin="45" yMin="0" xMax="455" yMax="619">
      <contour>
        <pt x="455" y="619" on="1"/>
        <pt x="455" y="0" on="1"/>
        <pt x="332" y="0" on="1"/>
        <pt x="332" y="273" on="1"/>
        <pt x="168" y="273" on="1"/>
        <pt x="168" y="0" on="1"/>
        <pt x="45" y="0" on="1"/>
        <pt x="45" y="619" on="1"/>
        <pt x="168" y="619" on="1"/>
        <pt x="168" y="375" on="1"/>
        <pt x="332" y="375" on="1"/>
        <pt x="332" y="619" on="1"/>
      </contour>
    </TTGlyph>
    <TTGlyph name="Hbar" xMin="18" yMin="0" xMax="483" yMax="619">
      <contour>
        <pt x="438" y="619" on="1"/>
        <pt x="438" y="547" on="1"/>
        <pt x="483" y="547" on="1"/>
        <pt x="483" y="448" on="1"/>
        <pt x="438" y="448" on="1"/>
        <pt x="438" y="0" on="1"/>
        <pt x="314" y="0" on="1"/>
        <pt x="314" y="254" on="1"/>
        <pt x="186" y="254" on="1"/>
        <pt x="186" y="0" on="1"/>
        <pt x="63" y="0" on="1"/>
        <pt x="63" y="448" on="1"/>
        <pt x="18" y="448" on="1"/>
        <pt x="18" y="547" on="1"/>
        <pt x="63" y="547" on="1"/>
        <pt x="63" y="619" on="1"/>
        <pt x="186" y="619" on="1"/>
        <pt x="186" y="547" on="1"/>
        <pt x="314" y="547" on="1"/>
        <pt x="314" y="619" on="1"/>
      </contour>
      <contour>
        <pt x="314" y="355" on="1"/>
        <pt x="314" y="448" on="1"/>
        <pt x="186" y="448" on="1"/>
        <pt x="186" y="355" on="1"/>
      </contour>
    </TTGlyph>
    <TTGlyph name="Hcircumflex" xMin="45" yMin="0" xMax="455" yMax="830">
      <component glyphName="H" x="0" y="0" flags="0x204"/>
      <component glyphName="circumflex" x="0" y="139" flags="0x4"/>
    </TTGlyph>
    <TTGlyph name="Hyphen" xMin="113" yMin="248" xMax="387" yMax="369">
      <component glyphName="hyphen" x="0" y="52" flags="0x204"/>
    </TTGlyph>
    <TTGlyph name="I" xMin="54" yMin="0" xMax="447" yMax="619">
      <contour>
        <pt x="54" y="0" on="1"/>
        <pt x="54" y="102" on="1"/>
        <pt x="189" y="102" on="1"/>
        <pt x="189" y="517" on="1"/>
        <pt x="54" y="517" on="1"/>
        <pt x="54" y="619" on="1"/>
        <pt x="447" y="619" on="1"/>
        <pt x="447" y="517" on="1"/>
        <pt x="313" y="517" on="1"/>
        <pt x="313" y="102" on="1"/>
        <pt x="447" y="102" on="1"/>
        <pt x="447" y="0" on="1"/>
      </contour>
    </TTGlyph>
    <TTGlyph name="IJ" xMin="24" yMin="-13" xMax="480" yMax="619">
      <contour>
        <pt x="24" y="0" on="1"/>
        <pt x="24" y="619" on="1"/>
        <pt x="147" y="619" on="1"/>
        <pt x="147" y="0" on="1"/>
      </contour>
      <contour>
        <pt x="480" y="194" on="1"/>
        <pt x="480" y="132" on="0"/>
        <pt x="453" y="52" on="0"/>
        <pt x="405" y="6" on="0"/>
        <pt x="342" y="-13" on="0"/>
        <pt x="306" y="-13" on="1"/>
        <pt x="271" y="-13" on="0"/>
        <pt x="209" y="4" on="0"/>
        <pt x="173" y="29" on="1"/>
        <pt x="221" y="127" on="1"/>
        <pt x="236" y="113" on="0"/>
        <pt x="269" y="94" on="0"/>
        <pt x="295" y="94" on="1"/>
        <pt x="308" y="94" on="0"/>
        <pt x="331" y="102" on="0"/>
        <pt x="347" y="125" on="0"/>
        <pt x="356" y="167" on="0"/>
        <pt x="356" y="202" on="1"/>
        <pt x="356" y="619" on="1"/>
        <pt x="480" y="619" on="1"/>
      </contour>
    </TTGlyph>
    <TTGlyph name="Iacute" xMin="54" yMin="0" xMax="447" yMax="830">
      <component glyphName="I" x="0" y="0" flags="0x204"/>
      <component glyphName="acute" x="-12" y="139" flags="0x4"/>
    </TTGlyph>
    <TTGlyph name="Ibreve" xMin="54" yMin="0" xMax="447" yMax="821">
      <component glyphName="I" x="0" y="0" flags="0x204"/>
      <component glyphName="breve" x="0" y="139" flags="0x4"/>
    </TTGlyph>
    <TTGlyph name="Icircumflex" xMin="54" yMin="0" xMax="447" yMax="830">
      <component glyphName="I" x="0" y="0" flags="0x204"/>
      <component glyphName="circumflex" x="0" y="139" flags="0x4"/>
    </TTGlyph>
    <TTGlyph name="Idieresis" xMin="54" yMin="0" xMax="447" yMax="812">
      <component glyphName="I" x="0" y="0" flags="0x204"/>
      <component glyphName="dieresis" x="0" y="139" flags="0x4"/>
    </TTGlyph>
    <TTGlyph name="Idotaccent" xMin="54" yMin="0" xMax="447" yMax="829">
      <component glyphName="I" x="0" y="0" flags="0x204"/>
      <component glyphName="dotaccent" x="0" y="154" flags="0x4"/>
    </TTGlyph>
    <TTGlyph name="Igrave" xMin="54" yMin="0" xMax="447" yMax="830">
      <component glyphName="I" x="0" y="0" flags="0x204"/>
      <component glyphName="grave" x="-16" y="139" flags="0x4"/>
    </TTGlyph>
    <TTGlyph name="Imacron" xMin="54" yMin="0" xMax="447" yMax="786">
      <component glyphName="I" x="0" y="0" flags="0x204"/>
      <component glyphName="macron" x="-1" y="139" flags="0x4"/>
    </TTGlyph>
    <TTGlyph name="Iogonek" xMin="54" yMin="-170" xMax="447" yMax="619">
      <contour>
        <pt x="334" y="-156" on="1"/>
        <pt x="320" y="-161" on="0"/>
        <pt x="269" y="-170" on="0"/>
        <pt x="241" y="-170" on="1"/>
        <pt x="193" y="-170" on="0"/>
        <pt x="151" y="-133" on="0"/>
        <pt x="151" y="-106" on="1"/>
        <pt x="151" y="-80" on="0"/>
        <pt x="184" y="-22" on="0"/>
        <pt x="213" y="0" on="1"/>
        <pt x="54" y="0" on="1"/>
        <pt x="54" y="102" on="1"/>
        <pt x="189" y="102" on="1"/>
        <pt x="189" y="517" on="1"/>
        <pt x="54" y="517" on="1"/>
        <pt x="54" y="619" on="1"/>
        <pt x="447" y="619" on="1"/>
        <pt x="447" y="517" on="1"/>
        <pt x="313" y="517" on="1"/>
        <pt x="313" y="102" on="1"/>
        <pt x="447" y="102" on="1"/>
        <pt x="447" y="0" on="1"/>
        <pt x="319" y="0" on="1"/>
        <pt x="309" y="-8" on="0"/>
        <pt x="287" y="-28" on="0"/>
        <pt x="268" y="-50" on="0"/>
        <pt x="255" y="-72" on="0"/>
        <pt x="255" y="-81" on="1"/>
        <pt x="255" y="-91" on="0"/>
        <pt x="266" y="-105" on="0"/>
        <pt x="282" y="-105" on="1"/>
        <pt x="290" y="-105" on="0"/>
        <pt x="312" y="-103" on="0"/>
        <pt x="327" y="-98" on="1"/>
      </contour>
    </TTGlyph>
    <TTGlyph name="Iota" xMin="54" yMin="0" xMax="447" yMax="619">
      <component glyphName="I" x="0" y="0" flags="0x204"/>
    </TTGlyph>
    <TTGlyph name="Iotadieresis" xMin="54" yMin="0" xMax="447" yMax="812">
      <component glyphName="I" x="0" y="0" flags="0x204"/>
      <component glyphName="dieresis" x="0" y="139" flags="0x4"/>
    </TTGlyph>
    <TTGlyph name="Iotatonos" xMin="-147" yMin="0" xMax="447" yMax="640">
      <component glyphName="I" x="0" y="0" flags="0x204"/>
      <component glyphName="tonos.cap" x="-318" y="0" flags="0x4"/>
    </TTGlyph>
    <TTGlyph name="Itilde" xMin="54" yMin="0" xMax="447" yMax="811">
      <component glyphName="I" x="0" y="0" flags="0x204"/>
      <component glyphName="tilde" x="-1" y="139" flags="0x4"/>
    </TTGlyph>
    <TTGlyph name="J" xMin="42" yMin="-13" xMax="438" yMax="619">
      <contour>
        <pt x="438" y="207" on="1"/>
        <pt x="438" y="162" on="0"/>
        <pt x="415" y="82" on="0"/>
        <pt x="362" y="22" on="0"/>
        <pt x="278" y="-13" on="0"/>
        <pt x="218" y="-13" on="1"/>
        <pt x="155" y="-13" on="0"/>
        <pt x="71" y="19" on="0"/>
        <pt x="42" y="42" on="1"/>
        <pt x="89" y="140" on="1"/>
        <pt x="114" y="124" on="0"/>
        <pt x="175" y="94" on="0"/>
        <pt x="207" y="94" on="1"/>
        <pt x="255" y="94" on="0"/>
        <pt x="314" y="145" on="0"/>
        <pt x="314" y="214" on="1"/>
        <pt x="314" y="517" on="1"/>
        <pt x="107" y="517" on="1"/>
        <pt x="107" y="619" on="1"/>
        <pt x="438" y="619" on="1"/>
      </contour>
    </TTGlyph>
    <TTGlyph name="Jcircumflex" xMin="42" yMin="-13" xMax="444" yMax="830">
      <component glyphName="J" x="0" y="0" flags="0x204"/>
      <component glyphName="circumflex" x="54" y="139" flags="0x4"/>
    </TTGlyph>
    <TTGlyph name="K" xMin="45" yMin="0" xMax="489" yMax="619">
      <contour>
        <pt x="350" y="0" on="1"/>
        <pt x="339" y="35" on="0"/>
        <pt x="298" y="116" on="0"/>
        <pt x="248" y="193" on="0"/>
        <pt x="193" y="260" on="0"/>
        <pt x="168" y="283" on="1"/>
        <pt x="168" y="0" on="1"/>
        <pt x="45" y="0" on="1"/>
        <pt x="45" y="619" on="1"/>
        <pt x="168" y="619" on="1"/>
        <pt x="168" y="362" on="1"/>
        <pt x="190" y="390" on="0"/>
        <pt x="238" y="458" on="0"/>
        <pt x="281" y="526" on="0"/>
        <pt x="317" y="592" on="0"/>
        <pt x="329" y="619" on="1"/>
        <pt x="468" y="619" on="1"/>
        <pt x="454" y="592" on="0"/>
        <pt x="415" y="523" on="0"/>
        <pt x="365" y="448" on="0"/>
        <pt x="308" y="370" on="0"/>
        <pt x="277" y="334" on="1"/>
        <pt x="308" y="304" on="0"/>
        <pt x="372" y="226" on="0"/>
        <pt x="429" y="137" on="0"/>
        <pt x="475" y="44" on="0"/>
        <pt x="489" y="0" on="1"/>
      </contour>
    </TTGlyph>
    <TTGlyph name="Kappa" xMin="45" yMin="0" xMax="489" yMax="619">
      <component glyphName="K" x="0" y="0" flags="0x204"/>
    </TTGlyph>
    <TTGlyph name="Kcommaaccent" xMin="45" yMin="-170" xMax="489" yMax="619">
      <component glyphName="K" x="0" y="0" flags="0x204"/>
      <component glyphName="commaaccent" x="-17" y="0" flags="0x4"/>
    </TTGlyph>
    <TTGlyph name="L" xMin="71" yMin="0" xMax="460" yMax="619">
      <contour>
        <pt x="460" y="0" on="1"/>
        <pt x="71" y="0" on="1"/>
        <pt x="71" y="619" on="1"/>
        <pt x="195" y="619" on="1"/>
        <pt x="195" y="102" on="1"/>
        <pt x="460" y="102" on="1"/>
      </contour>
    </TTGlyph>
    <TTGlyph name="Lacute" xMin="71" yMin="0" xMax="460" yMax="830">
      <component glyphName="L" x="0" y="0" flags="0x204"/>
      <component glyphName="acute" x="-53" y="139" flags="0x4"/>
    </TTGlyph>
    <TTGlyph name="Lambda" xMin="9" yMin="0" xMax="491" yMax="619">
      <contour>
        <pt x="359" y="0" on="1"/>
        <pt x="328" y="146" on="0"/>
        <pt x="282" y="391" on="0"/>
        <pt x="249" y="499" on="1"/>
        <pt x="232" y="440" on="0"/>
        <pt x="204" y="325" on="0"/>
        <pt x="178" y="203" on="0"/>
        <pt x="152" y="73" on="0"/>
        <pt x="137" y="0" on="1"/>
        <pt x="9" y="0" on="1"/>
        <pt x="53" y="183" on="0"/>
        <pt x="143" y="484" on="0"/>
        <pt x="185" y="619" on="1"/>
        <pt x="319" y="619" on="1"/>
        <pt x="363" y="483" on="0"/>
        <pt x="450" y="178" on="0"/>
        <pt x="491" y="0" on="1"/>
      </contour>
    </TTGlyph>
    <TTGlyph name="Lcaron" xMin="71" yMin="0" xMax="460" yMax="621">
      <component glyphName="L" x="0" y="0" flags="0x204"/>
      <component glyphName="caron.alt" x="89" y="-72" flags="0x4"/>
    </TTGlyph>
    <TTGlyph name="Lcommaaccent" xMin="71" yMin="-170" xMax="460" yMax="619">
      <component glyphName="L" x="0" y="0" flags="0x204"/>
      <component glyphName="commaaccent" x="0" y="0" flags="0x4"/>
    </TTGlyph>
    <TTGlyph name="Ldot" xMin="71" yMin="0" xMax="460" yMax="619">
      <contour>
        <pt x="458" y="360" on="1"/>
        <pt x="458" y="320" on="0"/>
        <pt x="407" y="278" on="0"/>
        <pt x="375" y="278" on="1"/>
        <pt x="343" y="278" on="0"/>
        <pt x="292" y="320" on="0"/>
        <pt x="292" y="360" on="1"/>
        <pt x="292" y="400" on="0"/>
        <pt x="343" y="442" on="0"/>
        <pt x="375" y="442" on="1"/>
        <pt x="407" y="442" on="0"/>
        <pt x="458" y="400" on="0"/>
      </contour>
      <contour>
        <pt x="460" y="0" on="1"/>
        <pt x="71" y="0" on="1"/>
        <pt x="71" y="619" on="1"/>
        <pt x="195" y="619" on="1"/>
        <pt x="195" y="102" on="1"/>
        <pt x="460" y="102" on="1"/>
      </contour>
    </TTGlyph>
    <TTGlyph name="Lslash" xMin="-10" yMin="0" xMax="460" yMax="619">
      <contour>
        <pt x="213" y="292" on="1"/>
        <pt x="213" y="102" on="1"/>
        <pt x="460" y="102" on="1"/>
        <pt x="460" y="0" on="1"/>
        <pt x="89" y="0" on="1"/>
        <pt x="89" y="230" on="1"/>
        <pt x="34" y="203" on="1"/>
        <pt x="-10" y="293" on="1"/>
        <pt x="89" y="343" on="1"/>
        <pt x="89" y="619" on="1"/>
        <pt x="213" y="619" on="1"/>
        <pt x="213" y="405" on="1"/>
        <pt x="321" y="459" on="1"/>
        <pt x="364" y="369" on="1"/>
      </contour>
    </TTGlyph>
    <TTGlyph name="M" xMin="23" yMin="0" xMax="477" yMax="619">
      <contour>
        <pt x="161" y="619" on="1"/>
        <pt x="168" y="598" on="0"/>
        <pt x="189" y="532" on="0"/>
        <pt x="213" y="456" on="0"/>
        <pt x="237" y="378" on="0"/>
        <pt x="248" y="345" on="1"/>
        <pt x="260" y="382" on="0"/>
        <pt x="286" y="461" on="0"/>
        <pt x="310" y="534" on="0"/>
        <pt x="330" y="598" on="0"/>
        <pt x="338" y="619" on="1"/>
        <pt x="440" y="619" on="1"/>
        <pt x="447" y="538" on="0"/>
        <pt x="460" y="384" on="0"/>
        <pt x="469" y="233" on="0"/>
        <pt x="475" y="80" on="0"/>
        <pt x="477" y="0" on="1"/>
        <pt x="364" y="0" on="1"/>
        <pt x="370" y="481" on="1"/>
        <pt x="294" y="219" on="1"/>
        <pt x="204" y="219" on="1"/>
        <pt x="131" y="481" on="1"/>
        <pt x="136" y="0" on="1"/>
        <pt x="23" y="0" on="1"/>
        <pt x="26" y="76" on="0"/>
        <pt x="33" y="240" on="0"/>
        <pt x="41" y="402" on="0"/>
        <pt x="52" y="554" on="0"/>
        <pt x="59" y="619" on="1"/>
      </contour>
    </TTGlyph>
    <TTGlyph name="Mu" xMin="23" yMin="0" xMax="477" yMax="619">
      <component glyphName="M" x="0" y="0" flags="0x204"/>
    </TTGlyph>
    <TTGlyph name="N" xMin="46" yMin="0" xMax="454" yMax="619">
      <contour>
        <pt x="355" y="0" on="1"/>
        <pt x="313" y="103" on="0"/>
        <pt x="214" y="308" on="0"/>
        <pt x="157" y="411" on="1"/>
        <pt x="157" y="0" on="1"/>
        <pt x="46" y="0" on="1"/>
        <pt x="46" y="619" on="1"/>
        <pt x="145" y="619" on="1"/>
        <pt x="173" y="575" on="0"/>
        <pt x="229" y="472" on="0"/>
        <pt x="282" y="370" on="0"/>
        <pt x="327" y="274" on="0"/>
        <pt x="343" y="238" on="1"/>
        <pt x="343" y="619" on="1"/>
        <pt x="454" y="619" on="1"/>
        <pt x="454" y="0" on="1"/>
      </contour>
    </TTGlyph>
    <TTGlyph name="Nacute" xMin="46" yMin="0" xMax="454" yMax="830">
      <component glyphName="N" x="0" y="0" flags="0x204"/>
      <component glyphName="acute" x="0" y="139" flags="0x4"/>
    </TTGlyph>
    <TTGlyph name="Ncaron" xMin="46" yMin="0" xMax="454" yMax="830">
      <component glyphName="N" x="0" y="0" flags="0x204"/>
      <component glyphName="caron" x="0" y="139" flags="0x4"/>
    </TTGlyph>
    <TTGlyph name="Ncommaaccent" xMin="46" yMin="-170" xMax="454" yMax="619">
      <component glyphName="N" x="0" y="0" flags="0x204"/>
      <component glyphName="commaaccent" x="-17" y="0" flags="0x4"/>
    </TTGlyph>
    <TTGlyph name="Ntilde" xMin="46" yMin="0" xMax="454" yMax="811">
      <component glyphName="N" x="0" y="0" flags="0x204"/>
      <component glyphName="tilde" x="-1" y="139" flags="0x4"/>
    </TTGlyph>
    <TTGlyph name="Nu" xMin="46" yMin="0" xMax="454" yMax="619">
      <component glyphName="N" x="0" y="0" flags="0x204"/>
    </TTGlyph>
    <TTGlyph name="O" xMin="27" yMin="-13" xMax="473" yMax="633">
      <contour>
        <pt x="152" y="310" on="1"/>
        <pt x="152" y="265" on="0"/>
        <pt x="159" y="186" on="0"/>
        <pt x="180" y="128" on="0"/>
        <pt x="218" y="94" on="0"/>
        <pt x="250" y="94" on="1"/>
        <pt x="281" y="94" on="0"/>
        <pt x="320" y="128" on="0"/>
        <pt x="341" y="187" on="0"/>
        <pt x="348" y="265" on="0"/>
        <pt x="348" y="310" on="1"/>
        <pt x="348" y="355" on="0"/>
        <pt x="341" y="434" on="0"/>
        <pt x="320" y="492" on="0"/>
        <pt x="282" y="526" on="0"/>
        <pt x="250" y="526" on="1"/>
        <pt x="218" y="526" on="0"/>
        <pt x="180" y="492" on="0"/>
        <pt x="159" y="433" on="0"/>
        <pt x="152" y="355" on="0"/>
      </contour>
      <contour>
        <pt x="27" y="310" on="1"/>
        <pt x="27" y="470" on="0"/>
        <pt x="145" y="633" on="0"/>
        <pt x="250" y="633" on="1"/>
        <pt x="359" y="633" on="0"/>
        <pt x="473" y="470" on="0"/>
        <pt x="473" y="310" on="1"/>
        <pt x="473" y="150" on="0"/>
        <pt x="357" y="-13" on="0"/>
        <pt x="251" y="-13" on="1"/>
        <pt x="142" y="-13" on="0"/>
        <pt x="27" y="150" on="0"/>
      </contour>
    </TTGlyph>
    <TTGlyph name="OE" xMin="18" yMin="-5" xMax="491" yMax="625">
      <contour>
        <pt x="275" y="0" on="1"/>
        <pt x="263" y="-3" on="0"/>
        <pt x="238" y="-5" on="0"/>
        <pt x="224" y="-5" on="1"/>
        <pt x="123" y="-5" on="0"/>
        <pt x="18" y="144" on="0"/>
        <pt x="18" y="310" on="1"/>
        <pt x="18" y="475" on="0"/>
        <pt x="125" y="625" on="0"/>
        <pt x="223" y="625" on="1"/>
        <pt x="238" y="625" on="0"/>
        <pt x="266" y="621" on="0"/>
        <pt x="280" y="619" on="1"/>
        <pt x="478" y="619" on="1"/>
        <pt x="478" y="517" on="1"/>
        <pt x="367" y="517" on="1"/>
        <pt x="367" y="379" on="1"/>
        <pt x="455" y="379" on="1"/>
        <pt x="455" y="277" on="1"/>
        <pt x="367" y="277" on="1"/>
        <pt x="367" y="102" on="1"/>
        <pt x="491" y="102" on="1"/>
        <pt x="491" y="0" on="1"/>
      </contour>
      <contour>
        <pt x="223" y="102" on="1"/>
        <pt x="240" y="102" on="0"/>
        <pt x="255" y="107" on="1"/>
        <pt x="255" y="513" on="1"/>
        <pt x="240" y="518" on="0"/>
        <pt x="223" y="518" on="1"/>
        <pt x="195" y="518" on="0"/>
        <pt x="160" y="489" on="0"/>
        <pt x="141" y="435" on="0"/>
        <pt x="134" y="358" on="0"/>
        <pt x="134" y="310" on="1"/>
        <pt x="134" y="262" on="0"/>
        <pt x="140" y="185" on="0"/>
        <pt x="160" y="131" on="0"/>
        <pt x="194" y="102" on="0"/>
      </contour>
    </TTGlyph>
    <TTGlyph name="Oacute" xMin="27" yMin="-13" xMax="473" yMax="830">
      <component glyphName="O" x="0" y="0" flags="0x204"/>
      <component glyphName="acute" x="-12" y="139" flags="0x4"/>
    </TTGlyph>
    <TTGlyph name="Obreve" xMin="27" yMin="-13" xMax="473" yMax="821">
      <component glyphName="O" x="0" y="0" flags="0x204"/>
      <component glyphName="breve" x="0" y="139" flags="0x4"/>
    </TTGlyph>
    <TTGlyph name="Ocircumflex" xMin="27" yMin="-13" xMax="473" yMax="830">
      <component glyphName="O" x="0" y="0" flags="0x204"/>
      <component glyphName="circumflex" x="0" y="139" flags="0x4"/>
    </TTGlyph>
    <TTGlyph name="Odieresis" xMin="27" yMin="-13" xMax="473" yMax="812">
      <component glyphName="O" x="0" y="0" flags="0x204"/>
      <component glyphName="dieresis" x="0" y="139" flags="0x4"/>
    </TTGlyph>
    <TTGlyph name="Ograve" xMin="27" yMin="-13" xMax="473" yMax="830">
      <component glyphName="O" x="0" y="0" flags="0x204"/>
      <component glyphName="grave" x="-16" y="139" flags="0x4"/>
    </TTGlyph>
    <TTGlyph name="Ohorn" xMin="27" yMin="-13" xMax="497" yMax="715">
      <contour>
        <pt x="27" y="310" on="1"/>
        <pt x="27" y="470" on="0"/>
        <pt x="145" y="633" on="0"/>
        <pt x="250" y="633" on="1"/>
        <pt x="327" y="633" on="0"/>
        <pt x="377" y="593" on="1"/>
        <pt x="384" y="611" on="0"/>
        <pt x="389" y="651" on="0"/>
        <pt x="389" y="672" on="1"/>
        <pt x="389" y="683" on="0"/>
        <pt x="388" y="704" on="0"/>
        <pt x="388" y="715" on="1"/>
        <pt x="493" y="715" on="1"/>
        <pt x="497" y="692" on="0"/>
        <pt x="497" y="667" on="1"/>
        <pt x="497" y="625" on="0"/>
        <pt x="469" y="551" on="0"/>
        <pt x="435" y="519" on="1"/>
        <pt x="434" y="519" on="1"/>
        <pt x="473" y="439" on="0"/>
        <pt x="473" y="310" on="1"/>
        <pt x="473" y="150" on="0"/>
        <pt x="357" y="-13" on="0"/>
        <pt x="251" y="-13" on="1"/>
        <pt x="142" y="-13" on="0"/>
        <pt x="27" y="150" on="0"/>
      </contour>
      <contour>
        <pt x="152" y="310" on="1"/>
        <pt x="152" y="265" on="0"/>
        <pt x="159" y="186" on="0"/>
        <pt x="180" y="128" on="0"/>
        <pt x="218" y="94" on="0"/>
        <pt x="250" y="94" on="1"/>
        <pt x="281" y="94" on="0"/>
        <pt x="320" y="128" on="0"/>
        <pt x="341" y="187" on="0"/>
        <pt x="348" y="265" on="0"/>
        <pt x="348" y="310" on="1"/>
        <pt x="348" y="355" on="0"/>
        <pt x="341" y="434" on="0"/>
        <pt x="320" y="492" on="0"/>
        <pt x="282" y="526" on="0"/>
        <pt x="250" y="526" on="1"/>
        <pt x="218" y="526" on="0"/>
        <pt x="180" y="492" on="0"/>
        <pt x="159" y="433" on="0"/>
        <pt x="152" y="355" on="0"/>
      </contour>
    </TTGlyph>
    <TTGlyph name="Ohungarumlaut" xMin="27" yMin="-13" xMax="474" yMax="830">
      <component glyphName="O" x="0" y="0" flags="0x204"/>
      <component glyphName="hungarumlaut" x="36" y="138" flags="0x4"/>
    </TTGlyph>
    <TTGlyph name="Omacron" xMin="27" yMin="-13" xMax="473" yMax="786">
      <component glyphName="O" x="0" y="0" flags="0x204"/>
      <component glyphName="macron" x="0" y="139" flags="0x4"/>
    </TTGlyph>
    <TTGlyph name="Omega" xMin="9" yMin="0" xMax="491" yMax="633">
      <contour>
        <pt x="14" y="354" on="1"/>
        <pt x="14" y="429" on="0"/>
        <pt x="55" y="535" on="0"/>
        <pt x="121" y="602" on="0"/>
        <pt x="206" y="633" on="0"/>
        <pt x="251" y="633" on="1"/>
        <pt x="295" y="633" on="0"/>
        <pt x="380" y="602" on="0"/>
        <pt x="447" y="535" on="0"/>
        <pt x="488" y="429" on="0"/>
        <pt x="488" y="354" on="1"/>
        <pt x="488" y="288" on="0"/>
        <pt x="452" y="162" on="0"/>
        <pt x="410" y="102" on="1"/>
        <pt x="491" y="102" on="1"/>
        <pt x="491" y="0" on="1"/>
        <pt x="276" y="0" on="1"/>
        <pt x="276" y="87" on="1"/>
        <pt x="310" y="128" on="0"/>
        <pt x="363" y="247" on="0"/>
        <pt x="363" y="327" on="1"/>
        <pt x="363" y="366" on="0"/>
        <pt x="352" y="437" on="0"/>
        <pt x="327" y="493" on="0"/>
        <pt x="284" y="526" on="0"/>
        <pt x="252" y="526" on="1"/>
        <pt x="220" y="526" on="0"/>
        <pt x="177" y="493" on="0"/>
        <pt x="150" y="437" on="0"/>
        <pt x="139" y="366" on="0"/>
        <pt x="139" y="327" on="1"/>
        <pt x="139" y="247" on="0"/>
        <pt x="188" y="128" on="0"/>
        <pt x="226" y="87" on="1"/>
        <pt x="226" y="0" on="1"/>
        <pt x="9" y="0" on="1"/>
        <pt x="9" y="102" on="1"/>
        <pt x="93" y="102" on="1"/>
        <pt x="51" y="162" on="0"/>
        <pt x="14" y="291" on="0"/>
      </contour>
    </TTGlyph>
    <TTGlyph name="Omegatonos" xMin="-128" yMin="0" xMax="491" yMax="640">
      <component glyphName="Omega" x="0" y="0" flags="0x204"/>
      <component glyphName="tonos.cap" x="-299" y="0" flags="0x4"/>
    </TTGlyph>
    <TTGlyph name="Omicron" xMin="27" yMin="-13" xMax="473" yMax="633">
      <component glyphName="O" x="0" y="0" flags="0x204"/>
    </TTGlyph>
    <TTGlyph name="Omicrontonos" xMin="-128" yMin="-13" xMax="473" yMax="640">
      <component glyphName="O" x="0" y="0" flags="0x204"/>
      <component glyphName="tonos.cap" x="-299" y="0" flags="0x4"/>
    </TTGlyph>
    <TTGlyph name="Oslash" xMin="27" yMin="-40" xMax="473" yMax="659">
      <contour>
        <pt x="27" y="308" on="1"/>
        <pt x="27" y="468" on="0"/>
        <pt x="145" y="631" on="0"/>
        <pt x="250" y="631" on="1"/>
        <pt x="305" y="631" on="0"/>
        <pt x="344" y="612" on="1"/>
        <pt x="367" y="659" on="1"/>
        <pt x="447" y="619" on="1"/>
        <pt x="413" y="552" on="1"/>
        <pt x="473" y="469" on="0"/>
        <pt x="473" y="308" on="1"/>
        <pt x="473" y="148" on="0"/>
        <pt x="357" y="-15" on="0"/>
        <pt x="251" y="-15" on="1"/>
        <pt x="194" y="-15" on="0"/>
        <pt x="150" y="8" on="1"/>
        <pt x="127" y="-40" on="1"/>
        <pt x="48" y="0" on="1"/>
        <pt x="82" y="71" on="1"/>
        <pt x="27" y="153" on="0"/>
      </contour>
      <contour>
        <pt x="348" y="308" on="1"/>
        <pt x="348" y="334" on="0"/>
        <pt x="345" y="383" on="0"/>
        <pt x="343" y="405" on="1"/>
        <pt x="198" y="109" on="1"/>
        <pt x="220" y="92" on="0"/>
        <pt x="250" y="92" on="1"/>
        <pt x="281" y="92" on="0"/>
        <pt x="320" y="126" on="0"/>
        <pt x="341" y="185" on="0"/>
        <pt x="348" y="263" on="0"/>
      </contour>
      <contour>
        <pt x="152" y="308" on="1"/>
        <pt x="152" y="260" on="0"/>
        <pt x="155" y="221" on="1"/>
        <pt x="296" y="511" on="1"/>
        <pt x="277" y="524" on="0"/>
        <pt x="250" y="524" on="1"/>
        <pt x="218" y="524" on="0"/>
        <pt x="180" y="490" on="0"/>
        <pt x="159" y="431" on="0"/>
        <pt x="152" y="353" on="0"/>
      </contour>
    </TTGlyph>
    <TTGlyph name="Oslashacute" xMin="27" yMin="-40" xMax="473" yMax="830">
      <component glyphName="Oslash" x="0" y="0" flags="0x204"/>
      <component glyphName="acute" x="0" y="139" flags="0x4"/>
    </TTGlyph>
    <TTGlyph name="Otilde" xMin="27" yMin="-13" xMax="473" yMax="811">
      <component glyphName="O" x="0" y="0" flags="0x204"/>
      <component glyphName="tilde" x="-1" y="139" flags="0x4"/>
    </TTGlyph>
    <TTGlyph name="P" xMin="54" yMin="0" xMax="472" yMax="626">
      <contour>
        <pt x="224" y="626" on="1"/>
        <pt x="342" y="626" on="0"/>
        <pt x="472" y="529" on="0"/>
        <pt x="472" y="419" on="1"/>
        <pt x="472" y="308" on="0"/>
        <pt x="341" y="209" on="0"/>
        <pt x="221" y="209" on="1"/>
        <pt x="177" y="209" on="1"/>
        <pt x="177" y="0" on="1"/>
        <pt x="54" y="0" on="1"/>
        <pt x="54" y="611" on="1"/>
        <pt x="72" y="615" on="0"/>
        <pt x="117" y="621" on="0"/>
        <pt x="163" y="624" on="0"/>
        <pt x="207" y="626" on="0"/>
      </contour>
      <contour>
        <pt x="238" y="519" on="1"/>
        <pt x="227" y="519" on="0"/>
        <pt x="188" y="518" on="0"/>
        <pt x="177" y="516" on="1"/>
        <pt x="177" y="316" on="1"/>
        <pt x="227" y="316" on="1"/>
        <pt x="286" y="316" on="0"/>
        <pt x="346" y="363" on="0"/>
        <pt x="346" y="420" on="1"/>
        <pt x="346" y="474" on="0"/>
        <pt x="287" y="519" on="0"/>
      </contour>
    </TTGlyph>
    <TTGlyph name="Parenleft" xMin="94" yMin="-127" xMax="417" yMax="753">
      <component glyphName="parenleft" x="0" y="43" flags="0x204"/>
    </TTGlyph>
    <TTGlyph name="Parenright" xMin="85" yMin="-127" xMax="408" yMax="753">
      <component glyphName="parenright" x="0" y="43" flags="0x204"/>
    </TTGlyph>
    <TTGlyph name="Phi" xMin="25" yMin="0" xMax="474" yMax="659">
      <component glyphName="afii10038" x="0" y="0" flags="0x204"/>
    </TTGlyph>
    <TTGlyph name="Pi" xMin="45" yMin="0" xMax="455" yMax="619">
      <component glyphName="afii10033" x="0" y="0" flags="0x204"/>
    </TTGlyph>
    <TTGlyph name="Psi" xMin="25" yMin="0" xMax="475" yMax="619">
      <contour>
        <pt x="298" y="240" on="1"/>
        <pt x="315" y="240" on="0"/>
        <pt x="345" y="252" on="0"/>
        <pt x="367" y="285" on="0"/>
        <pt x="379" y="346" on="0"/>
        <pt x="379" y="394" on="1"/>
        <pt x="379" y="619" on="1"/>
        <pt x="475" y="619" on="1"/>
        <pt x="475" y="405" on="1"/>
        <pt x="475" y="274" on="0"/>
        <pt x="383" y="154" on="0"/>
        <pt x="298" y="147" on="1"/>
        <pt x="298" y="0" on="1"/>
        <pt x="202" y="0" on="1"/>
        <pt x="202" y="147" on="1"/>
        <pt x="117" y="154" on="0"/>
        <pt x="25" y="274" on="0"/>
        <pt x="25" y="405" on="1"/>
        <pt x="25" y="619" on="1"/>
        <pt x="121" y="619" on="1"/>
        <pt x="121" y="394" on="1"/>
        <pt x="121" y="346" on="0"/>
        <pt x="133" y="285" on="0"/>
        <pt x="155" y="252" on="0"/>
        <pt x="185" y="240" on="0"/>
        <pt x="202" y="240" on="1"/>
        <pt x="202" y="475" on="1"/>
        <pt x="298" y="475" on="1"/>
      </contour>
    </TTGlyph>
    <TTGlyph name="Q" xMin="27" yMin="-170" xMax="473" yMax="630">
      <contour>
        <pt x="27" y="307" on="1"/>
        <pt x="27" y="467" on="0"/>
        <pt x="145" y="630" on="0"/>
        <pt x="250" y="630" on="1"/>
        <pt x="359" y="630" on="0"/>
        <pt x="473" y="467" on="0"/>
        <pt x="473" y="307" on="1"/>
        <pt x="473" y="167" on="0"/>
        <pt x="383" y="6" on="0"/>
        <pt x="298" y="-11" on="1"/>
        <pt x="309" y="-36" on="0"/>
        <pt x="394" y="-69" on="0"/>
        <pt x="468" y="-82" on="1"/>
        <pt x="442" y="-170" on="1"/>
        <pt x="325" y="-154" on="0"/>
        <pt x="206" y="-79" on="0"/>
        <pt x="195" y="-9" on="1"/>
        <pt x="114" y="11" on="0"/>
        <pt x="27" y="170" on="0"/>
      </contour>
      <contour>
        <pt x="152" y="307" on="1"/>
        <pt x="152" y="262" on="0"/>
        <pt x="159" y="184" on="0"/>
        <pt x="180" y="125" on="0"/>
        <pt x="218" y="91" on="0"/>
        <pt x="250" y="91" on="1"/>
        <pt x="281" y="91" on="0"/>
        <pt x="320" y="125" on="0"/>
        <pt x="341" y="184" on="0"/>
        <pt x="348" y="262" on="0"/>
        <pt x="348" y="307" on="1"/>
        <pt x="348" y="352" on="0"/>
        <pt x="341" y="431" on="0"/>
        <pt x="320" y="489" on="0"/>
        <pt x="282" y="523" on="0"/>
        <pt x="250" y="523" on="1"/>
        <pt x="218" y="523" on="0"/>
        <pt x="180" y="489" on="0"/>
        <pt x="159" y="430" on="0"/>
        <pt x="152" y="352" on="0"/>
      </contour>
    </TTGlyph>
    <TTGlyph name="Questiondown" xMin="69" yMin="-8" xMax="434" yMax="628">
      <component glyphName="questiondown" x="0" y="162" flags="0x204"/>
    </TTGlyph>
    <TTGlyph name="R" xMin="54" yMin="0" xMax="489" yMax="626">
      <contour>
        <pt x="214" y="626" on="1"/>
        <pt x="267" y="626" on="0"/>
        <pt x="353" y="602" on="0"/>
        <pt x="415" y="552" on="0"/>
        <pt x="448" y="475" on="0"/>
        <pt x="448" y="423" on="1"/>
        <pt x="448" y="369" on="0"/>
        <pt x="404" y="281" on="0"/>
        <pt x="353" y="258" on="1"/>
        <pt x="370" y="232" on="0"/>
        <pt x="408" y="169" on="0"/>
        <pt x="444" y="100" on="0"/>
        <pt x="477" y="31" on="0"/>
        <pt x="489" y="0" on="1"/>
        <pt x="360" y="0" on="1"/>
        <pt x="337" y="60" on="0"/>
        <pt x="276" y="171" on="0"/>
        <pt x="241" y="228" on="1"/>
        <pt x="177" y="228" on="1"/>
        <pt x="177" y="0" on="1"/>
        <pt x="54" y="0" on="1"/>
        <pt x="54" y="610" on="1"/>
        <pt x="72" y="614" on="0"/>
        <pt x="115" y="621" on="0"/>
        <pt x="159" y="624" on="0"/>
        <pt x="199" y="626" on="0"/>
      </contour>
      <contour>
        <pt x="323" y="424" on="1"/>
        <pt x="323" y="473" on="0"/>
        <pt x="263" y="519" on="0"/>
        <pt x="214" y="519" on="1"/>
        <pt x="207" y="519" on="0"/>
        <pt x="187" y="518" on="0"/>
        <pt x="177" y="516" on="1"/>
        <pt x="177" y="330" on="1"/>
        <pt x="204" y="330" on="1"/>
        <pt x="267" y="330" on="0"/>
        <pt x="323" y="379" on="0"/>
      </contour>
    </TTGlyph>
    <TTGlyph name="Racute" xMin="54" yMin="0" xMax="489" yMax="830">
      <component glyphName="R" x="0" y="0" flags="0x204"/>
      <component glyphName="acute" x="-12" y="139" flags="0x4"/>
    </TTGlyph>
    <TTGlyph name="Rcaron" xMin="54" yMin="0" xMax="489" yMax="830">
      <component glyphName="R" x="0" y="0" flags="0x204"/>
      <component glyphName="caron" x="-17" y="139" flags="0x4"/>
    </TTGlyph>
    <TTGlyph name="Rcommaaccent" xMin="54" yMin="-170" xMax="489" yMax="626">
      <component glyphName="R" x="0" y="0" flags="0x204"/>
      <component glyphName="commaaccent" x="-17" y="0" flags="0x4"/>
    </TTGlyph>
    <TTGlyph name="Rho" xMin="54" yMin="0" xMax="472" yMax="626">
      <component glyphName="P" x="0" y="0" flags="0x204"/>
    </TTGlyph>
    <TTGlyph name="S" xMin="40" yMin="-13" xMax="460" yMax="633">
      <contour>
        <pt x="232" y="90" on="1"/>
        <pt x="263" y="90" on="0"/>
        <pt x="304" y="103" on="0"/>
        <pt x="328" y="126" on="0"/>
        <pt x="337" y="155" on="0"/>
        <pt x="337" y="170" on="1"/>
        <pt x="337" y="189" on="0"/>
        <pt x="315" y="219" on="0"/>
        <pt x="281" y="242" on="0"/>
        <pt x="239" y="261" on="0"/>
        <pt x="218" y="269" on="1"/>
        <pt x="190" y="279" on="0"/>
        <pt x="130" y="305" on="0"/>
        <pt x="81" y="345" on="0"/>
        <pt x="49" y="404" on="0"/>
        <pt x="49" y="448" on="1"/>
        <pt x="49" y="535" on="0"/>
        <pt x="162" y="633" on="0"/>
        <pt x="261" y="633" on="1"/>
        <pt x="318" y="633" on="0"/>
        <pt x="403" y="607" on="0"/>
        <pt x="432" y="591" on="1"/>
        <pt x="396" y="496" on="1"/>
        <pt x="371" y="510" on="0"/>
        <pt x="310" y="530" on="0"/>
        <pt x="270" y="530" on="1"/>
        <pt x="172" y="530" on="0"/>
        <pt x="172" y="459" on="1"/>
        <pt x="172" y="441" on="0"/>
        <pt x="192" y="414" on="0"/>
        <pt x="223" y="393" on="0"/>
        <pt x="262" y="377" on="0"/>
        <pt x="281" y="370" on="1"/>
        <pt x="310" y="359" on="0"/>
        <pt x="373" y="332" on="0"/>
        <pt x="426" y="287" on="0"/>
        <pt x="460" y="220" on="0"/>
        <pt x="460" y="169" on="1"/>
        <pt x="460" y="82" on="0"/>
        <pt x="347" y="-13" on="0"/>
        <pt x="232" y="-13" on="1"/>
        <pt x="155" y="-13" on="0"/>
        <pt x="63" y="20" on="0"/>
        <pt x="40" y="34" on="1"/>
        <pt x="76" y="134" on="1"/>
        <pt x="103" y="118" on="0"/>
        <pt x="178" y="90" on="0"/>
      </contour>
    </TTGlyph>
    <TTGlyph name="SF010000.001" xMin="210" yMin="-170" xMax="500" yMax="370">
      <contour>
        <pt x="210" y="370" on="1"/>
        <pt x="500" y="370" on="1"/>
        <pt x="500" y="290" on="1"/>
        <pt x="290" y="290" on="1"/>
        <pt x="290" y="-170" on="1"/>
        <pt x="210" y="-170" on="1"/>
      </contour>
    </TTGlyph>
    <TTGlyph name="SF020000.001" xMin="210" yMin="290" xMax="500" yMax="830">
      <contour>
        <pt x="210" y="830" on="1"/>
        <pt x="290" y="830" on="1"/>
        <pt x="290" y="370" on="1"/>
        <pt x="500" y="370" on="1"/>
        <pt x="500" y="290" on="1"/>
        <pt x="210" y="290" on="1"/>
      </contour>
    </TTGlyph>
    <TTGlyph name="SF030000.001" xMin="0" yMin="-170" xMax="290" yMax="370">
      <contour>
        <pt x="0" y="370" on="1"/>
        <pt x="290" y="370" on="1"/>
        <pt x="290" y="-170" on="1"/>
        <pt x="210" y="-170" on="1"/>
        <pt x="210" y="290" on="1"/>
        <pt x="0" y="290" on="1"/>
      </contour>
    </TTGlyph>
    <TTGlyph name="SF040000.001" xMin="0" yMin="290" xMax="290" yMax="830">
      <contour>
        <pt x="0" y="370" on="1"/>
        <pt x="210" y="370" on="1"/>
        <pt x="210" y="830" on="1"/>
        <pt x="290" y="830" on="1"/>
        <pt x="290" y="290" on="1"/>
        <pt x="0" y="290" on="1"/>
      </contour>
    </TTGlyph>
    <TTGlyph name="SF050000.001" xMin="0" yMin="-170" xMax="500" yMax="830">
      <contour>
        <pt x="210" y="290" on="1"/>
        <pt x="0" y="290" on="1"/>
        <pt x="0" y="370" on="1"/>
        <pt x="210" y="370" on="1"/>
        <pt x="210" y="830" on="1"/>
        <pt x="290" y="830" on="1"/>
        <pt x="290" y="370" on="1"/>
        <pt x="500" y="370" on="1"/>
        <pt x="500" y="290" on="1"/>
        <pt x="290" y="290" on="1"/>
        <pt x="290" y="-170" on="1"/>
        <pt x="210" y="-170" on="1"/>
      </contour>
    </TTGlyph>
    <TTGlyph name="SF060000.001" xMin="0" yMin="-170" xMax="500" yMax="370">
      <contour>
        <pt x="500" y="370" on="1"/>
        <pt x="500" y="290" on="1"/>
        <pt x="290" y="290" on="1"/>
        <pt x="290" y="-170" on="1"/>
        <pt x="210" y="-170" on="1"/>
        <pt x="210" y="290" on="1"/>
        <pt x="0" y="290" on="1"/>
        <pt x="0" y="370" on="1"/>
      </contour>
    </TTGlyph>
    <TTGlyph name="SF070000.001" xMin="0" yMin="290" xMax="500" yMax="830">
      <contour>
        <pt x="0" y="290" on="1"/>
        <pt x="0" y="370" on="1"/>
        <pt x="210" y="370" on="1"/>
        <pt x="210" y="830" on="1"/>
        <pt x="290" y="830" on="1"/>
        <pt x="290" y="370" on="1"/>
        <pt x="500" y="370" on="1"/>
        <pt x="500" y="290" on="1"/>
      </contour>
    </TTGlyph>
    <TTGlyph name="SF080000.001" xMin="210" yMin="-170" xMax="500" yMax="830">
      <contour>
        <pt x="210" y="830" on="1"/>
        <pt x="290" y="830" on="1"/>
        <pt x="290" y="370" on="1"/>
        <pt x="500" y="370" on="1"/>
        <pt x="500" y="290" on="1"/>
        <pt x="290" y="290" on="1"/>
        <pt x="290" y="-170" on="1"/>
        <pt x="210" y="-170" on="1"/>
      </contour>
    </TTGlyph>
    <TTGlyph name="SF090000.001" xMin="0" yMin="-170" xMax="290" yMax="830">
      <contour>
        <pt x="290" y="-170" on="1"/>
        <pt x="210" y="-170" on="1"/>
        <pt x="210" y="290" on="1"/>
        <pt x="0" y="290" on="1"/>
        <pt x="0" y="370" on="1"/>
        <pt x="210" y="370" on="1"/>
        <pt x="210" y="830" on="1"/>
        <pt x="290" y="830" on="1"/>
      </contour>
    </TTGlyph>
    <TTGlyph name="SF100000.001" xMin="0" yMin="290" xMax="500" yMax="370">
      <contour>
        <pt x="0" y="290" on="1"/>
        <pt x="0" y="370" on="1"/>
        <pt x="500" y="370" on="1"/>
        <pt x="500" y="290" on="1"/>
      </contour>
    </TTGlyph>
    <TTGlyph name="SF110000.001" xMin="210" yMin="-170" xMax="290" yMax="830">
      <contour>
        <pt x="290" y="-170" on="1"/>
        <pt x="210" y="-170" on="1"/>
        <pt x="210" y="830" on="1"/>
        <pt x="290" y="830" on="1"/>
      </contour>
    </TTGlyph>
    <TTGlyph name="SF190000" xMin="0" yMin="-170" xMax="290" yMax="830">
      <contour>
        <pt x="0" y="450" on="1"/>
        <pt x="210" y="450" on="1"/>
        <pt x="210" y="830" on="1"/>
        <pt x="290" y="830" on="1"/>
        <pt x="290" y="370" on="1"/>
        <pt x="0" y="370" on="1"/>
      </contour>
      <contour>
        <pt x="0" y="290" on="1"/>
        <pt x="290" y="290" on="1"/>
        <pt x="290" y="-170" on="1"/>
        <pt x="210" y="-170" on="1"/>
        <pt x="210" y="210" on="1"/>
        <pt x="0" y="210" on="1"/>
      </contour>
    </TTGlyph>
    <TTGlyph name="SF200000" xMin="0" yMin="-170" xMax="370" yMax="830">
      <contour>
        <pt x="210" y="-170" on="1"/>
        <pt x="130" y="-170" on="1"/>
        <pt x="130" y="290" on="1"/>
        <pt x="0" y="290" on="1"/>
        <pt x="0" y="370" on="1"/>
        <pt x="130" y="370" on="1"/>
        <pt x="130" y="830" on="1"/>
        <pt x="210" y="830" on="1"/>
      </contour>
      <contour>
        <pt x="370" y="-170" on="1"/>
        <pt x="290" y="-170" on="1"/>
        <pt x="290" y="830" on="1"/>
        <pt x="370" y="830" on="1"/>
      </contour>
    </TTGlyph>
    <TTGlyph name="SF210000" xMin="0" yMin="-170" xMax="370" yMax="370">
      <contour>
        <pt x="0" y="370" on="1"/>
        <pt x="210" y="370" on="1"/>
        <pt x="210" y="-170" on="1"/>
        <pt x="130" y="-170" on="1"/>
        <pt x="130" y="290" on="1"/>
        <pt x="0" y="290" on="1"/>
      </contour>
      <contour>
        <pt x="290" y="370" on="1"/>
        <pt x="370" y="370" on="1"/>
        <pt x="370" y="-170" on="1"/>
        <pt x="290" y="-170" on="1"/>
      </contour>
    </TTGlyph>
    <TTGlyph name="SF220000" xMin="0" yMin="-170" xMax="290" yMax="450">
      <contour>
        <pt x="0" y="290" on="1"/>
        <pt x="290" y="290" on="1"/>
        <pt x="290" y="-170" on="1"/>
        <pt x="210" y="-170" on="1"/>
        <pt x="210" y="210" on="1"/>
        <pt x="0" y="210" on="1"/>
      </contour>
      <contour>
        <pt x="0" y="450" on="1"/>
        <pt x="290" y="450" on="1"/>
        <pt x="290" y="370" on="1"/>
        <pt x="0" y="370" on="1"/>
      </contour>
    </TTGlyph>
    <TTGlyph name="SF230000" xMin="0" yMin="-170" xMax="370" yMax="830">
      <contour>
        <pt x="290" y="830" on="1"/>
        <pt x="370" y="830" on="1"/>
        <pt x="370" y="-170" on="1"/>
        <pt x="290" y="-170" on="1"/>
      </contour>
      <contour>
        <pt x="0" y="450" on="1"/>
        <pt x="130" y="450" on="1"/>
        <pt x="130" y="830" on="1"/>
        <pt x="210" y="830" on="1"/>
        <pt x="210" y="370" on="1"/>
        <pt x="0" y="370" on="1"/>
      </contour>
      <contour>
        <pt x="0" y="290" on="1"/>
        <pt x="210" y="290" on="1"/>
        <pt x="210" y="-170" on="1"/>
        <pt x="130" y="-170" on="1"/>
        <pt x="130" y="210" on="1"/>
        <pt x="0" y="210" on="1"/>
      </contour>
    </TTGlyph>
    <TTGlyph name="SF240000" xMin="130" yMin="-170" xMax="370" yMax="830">
      <contour>
        <pt x="210" y="-170" on="1"/>
        <pt x="130" y="-170" on="1"/>
        <pt x="130" y="830" on="1"/>
        <pt x="210" y="830" on="1"/>
      </contour>
      <contour>
        <pt x="290" y="830" on="1"/>
        <pt x="370" y="830" on="1"/>
        <pt x="370" y="-170" on="1"/>
        <pt x="290" y="-170" on="1"/>
      </contour>
    </TTGlyph>
    <TTGlyph name="SF250000" xMin="0" yMin="-170" xMax="370" yMax="450">
      <contour>
        <pt x="0" y="290" on="1"/>
        <pt x="210" y="290" on="1"/>
        <pt x="210" y="-170" on="1"/>
        <pt x="130" y="-170" on="1"/>
        <pt x="130" y="210" on="1"/>
        <pt x="0" y="210" on="1"/>
      </contour>
      <contour>
        <pt x="0" y="450" on="1"/>
        <pt x="370" y="450" on="1"/>
        <pt x="370" y="-170" on="1"/>
        <pt x="290" y="-170" on="1"/>
        <pt x="290" y="370" on="1"/>
        <pt x="0" y="370" on="1"/>
      </contour>
    </TTGlyph>
    <TTGlyph name="SF260000" xMin="0" yMin="210" xMax="370" yMax="830">
      <contour>
        <pt x="0" y="450" on="1"/>
        <pt x="130" y="450" on="1"/>
        <pt x="130" y="830" on="1"/>
        <pt x="210" y="830" on="1"/>
        <pt x="210" y="370" on="1"/>
        <pt x="0" y="370" on="1"/>
      </contour>
      <contour>
        <pt x="0" y="290" on="1"/>
        <pt x="290" y="290" on="1"/>
        <pt x="290" y="830" on="1"/>
        <pt x="370" y="830" on="1"/>
        <pt x="370" y="210" on="1"/>
        <pt x="0" y="210" on="1"/>
      </contour>
    </TTGlyph>
    <TTGlyph name="SF270000" xMin="0" yMin="290" xMax="370" yMax="830">
      <contour>
        <pt x="0" y="370" on="1"/>
        <pt x="130" y="370" on="1"/>
        <pt x="130" y="830" on="1"/>
        <pt x="210" y="830" on="1"/>
        <pt x="210" y="290" on="1"/>
        <pt x="0" y="290" on="1"/>
      </contour>
      <contour>
        <pt x="290" y="830" on="1"/>
        <pt x="370" y="830" on="1"/>
        <pt x="370" y="290" on="1"/>
        <pt x="290" y="290" on="1"/>
      </contour>
    </TTGlyph>
    <TTGlyph name="SF280000" xMin="0" yMin="210" xMax="290" yMax="830">
      <contour>
        <pt x="0" y="450" on="1"/>
        <pt x="210" y="450" on="1"/>
        <pt x="210" y="830" on="1"/>
        <pt x="290" y="830" on="1"/>
        <pt x="290" y="370" on="1"/>
        <pt x="0" y="370" on="1"/>
      </contour>
      <contour>
        <pt x="0" y="290" on="1"/>
        <pt x="290" y="290" on="1"/>
        <pt x="290" y="210" on="1"/>
        <pt x="0" y="210" on="1"/>
      </contour>
    </TTGlyph>
    <TTGlyph name="SF360000" xMin="210" yMin="-170" xMax="500" yMax="830">
      <contour>
        <pt x="500" y="370" on="1"/>
        <pt x="210" y="370" on="1"/>
        <pt x="210" y="830" on="1"/>
        <pt x="290" y="830" on="1"/>
        <pt x="290" y="450" on="1"/>
        <pt x="500" y="450" on="1"/>
      </contour>
      <contour>
        <pt x="500" y="210" on="1"/>
        <pt x="290" y="210" on="1"/>
        <pt x="290" y="-170" on="1"/>
        <pt x="210" y="-170" on="1"/>
        <pt x="210" y="290" on="1"/>
        <pt x="500" y="290" on="1"/>
      </contour>
    </TTGlyph>
    <TTGlyph name="SF370000" xMin="130" yMin="-170" xMax="500" yMax="830">
      <contour>
        <pt x="290" y="830" on="1"/>
        <pt x="370" y="830" on="1"/>
        <pt x="370" y="370" on="1"/>
        <pt x="500" y="370" on="1"/>
        <pt x="500" y="290" on="1"/>
        <pt x="370" y="290" on="1"/>
        <pt x="370" y="-170" on="1"/>
        <pt x="290" y="-170" on="1"/>
      </contour>
      <contour>
        <pt x="130" y="830" on="1"/>
        <pt x="210" y="830" on="1"/>
        <pt x="210" y="-170" on="1"/>
        <pt x="130" y="-170" on="1"/>
      </contour>
    </TTGlyph>
    <TTGlyph name="SF380000" xMin="130" yMin="210" xMax="500" yMax="830">
      <contour>
        <pt x="500" y="370" on="1"/>
        <pt x="290" y="370" on="1"/>
        <pt x="290" y="830" on="1"/>
        <pt x="370" y="830" on="1"/>
        <pt x="370" y="450" on="1"/>
        <pt x="500" y="450" on="1"/>
      </contour>
      <contour>
        <pt x="500" y="210" on="1"/>
        <pt x="130" y="210" on="1"/>
        <pt x="130" y="830" on="1"/>
        <pt x="210" y="830" on="1"/>
        <pt x="210" y="290" on="1"/>
        <pt x="500" y="290" on="1"/>
      </contour>
    </TTGlyph>
    <TTGlyph name="SF390000" xMin="130" yMin="-170" xMax="500" yMax="450">
      <contour>
        <pt x="500" y="210" on="1"/>
        <pt x="370" y="210" on="1"/>
        <pt x="370" y="-170" on="1"/>
        <pt x="290" y="-170" on="1"/>
        <pt x="290" y="290" on="1"/>
        <pt x="500" y="290" on="1"/>
      </contour>
      <contour>
        <pt x="500" y="370" on="1"/>
        <pt x="210" y="370" on="1"/>
        <pt x="210" y="-170" on="1"/>
        <pt x="130" y="-170" on="1"/>
        <pt x="130" y="450" on="1"/>
        <pt x="500" y="450" on="1"/>
      </contour>
    </TTGlyph>
    <TTGlyph name="SF400000" xMin="0" yMin="210" xMax="500" yMax="830">
      <contour>
        <pt x="500" y="290" on="1"/>
        <pt x="500" y="210" on="1"/>
        <pt x="0" y="210" on="1"/>
        <pt x="0" y="290" on="1"/>
      </contour>
      <contour>
        <pt x="0" y="450" on="1"/>
        <pt x="130" y="450" on="1"/>
        <pt x="130" y="830" on="1"/>
        <pt x="210" y="830" on="1"/>
        <pt x="210" y="370" on="1"/>
        <pt x="0" y="370" on="1"/>
      </contour>
      <contour>
        <pt x="500" y="370" on="1"/>
        <pt x="290" y="370" on="1"/>
        <pt x="290" y="830" on="1"/>
        <pt x="370" y="830" on="1"/>
        <pt x="370" y="450" on="1"/>
        <pt x="500" y="450" on="1"/>
      </contour>
    </TTGlyph>
    <TTGlyph name="SF410000" xMin="0" yMin="-170" xMax="500" yMax="450">
      <contour>
        <pt x="0" y="370" on="1"/>
        <pt x="0" y="450" on="1"/>
        <pt x="500" y="450" on="1"/>
        <pt x="500" y="370" on="1"/>
      </contour>
      <contour>
        <pt x="500" y="210" on="1"/>
        <pt x="370" y="210" on="1"/>
        <pt x="370" y="-170" on="1"/>
        <pt x="290" y="-170" on="1"/>
        <pt x="290" y="290" on="1"/>
        <pt x="500" y="290" on="1"/>
      </contour>
      <contour>
        <pt x="0" y="290" on="1"/>
        <pt x="210" y="290" on="1"/>
        <pt x="210" y="-170" on="1"/>
        <pt x="130" y="-170" on="1"/>
        <pt x="130" y="210" on="1"/>
        <pt x="0" y="210" on="1"/>
      </contour>
    </TTGlyph>
    <TTGlyph name="SF420000" xMin="130" yMin="-170" xMax="500" yMax="830">
      <contour>
        <pt x="210" y="-170" on="1"/>
        <pt x="130" y="-170" on="1"/>
        <pt x="130" y="830" on="1"/>
        <pt x="210" y="830" on="1"/>
      </contour>
      <contour>
        <pt x="500" y="370" on="1"/>
        <pt x="290" y="370" on="1"/>
        <pt x="290" y="830" on="1"/>
        <pt x="370" y="830" on="1"/>
        <pt x="370" y="450" on="1"/>
        <pt x="500" y="450" on="1"/>
      </contour>
      <contour>
        <pt x="500" y="210" on="1"/>
        <pt x="370" y="210" on="1"/>
        <pt x="370" y="-170" on="1"/>
        <pt x="290" y="-170" on="1"/>
        <pt x="290" y="290" on="1"/>
        <pt x="500" y="290" on="1"/>
      </contour>
    </TTGlyph>
    <TTGlyph name="SF430000" xMin="0" yMin="210" xMax="500" yMax="450">
      <contour>
        <pt x="0" y="210" on="1"/>
        <pt x="0" y="290" on="1"/>
        <pt x="500" y="290" on="1"/>
        <pt x="500" y="210" on="1"/>
      </contour>
      <contour>
        <pt x="0" y="370" on="1"/>
        <pt x="0" y="450" on="1"/>
        <pt x="500" y="450" on="1"/>
        <pt x="500" y="370" on="1"/>
      </contour>
    </TTGlyph>
    <TTGlyph name="SF440000" xMin="0" yMin="-170" xMax="500" yMax="830">
      <contour>
        <pt x="0" y="450" on="1"/>
        <pt x="130" y="450" on="1"/>
        <pt x="130" y="830" on="1"/>
        <pt x="210" y="830" on="1"/>
        <pt x="210" y="370" on="1"/>
        <pt x="0" y="370" on="1"/>
      </contour>
      <contour>
        <pt x="500" y="210" on="1"/>
        <pt x="370" y="210" on="1"/>
        <pt x="370" y="-170" on="1"/>
        <pt x="290" y="-170" on="1"/>
        <pt x="290" y="290" on="1"/>
        <pt x="500" y="290" on="1"/>
      </contour>
      <contour>
        <pt x="500" y="370" on="1"/>
        <pt x="290" y="370" on="1"/>
        <pt x="290" y="830" on="1"/>
        <pt x="370" y="830" on="1"/>
        <pt x="370" y="450" on="1"/>
        <pt x="500" y="450" on="1"/>
      </contour>
      <contour>
        <pt x="0" y="290" on="1"/>
        <pt x="210" y="290" on="1"/>
        <pt x="210" y="-170" on="1"/>
        <pt x="130" y="-170" on="1"/>
        <pt x="130" y="210" on="1"/>
        <pt x="0" y="210" on="1"/>
      </contour>
    </TTGlyph>
    <TTGlyph name="SF450000" xMin="0" yMin="210" xMax="500" yMax="830">
      <contour>
        <pt x="0" y="370" on="1"/>
        <pt x="0" y="450" on="1"/>
        <pt x="210" y="450" on="1"/>
        <pt x="210" y="830" on="1"/>
        <pt x="290" y="830" on="1"/>
        <pt x="290" y="450" on="1"/>
        <pt x="500" y="450" on="1"/>
        <pt x="500" y="370" on="1"/>
      </contour>
      <contour>
        <pt x="500" y="290" on="1"/>
        <pt x="500" y="210" on="1"/>
        <pt x="0" y="210" on="1"/>
        <pt x="0" y="290" on="1"/>
      </contour>
    </TTGlyph>
    <TTGlyph name="SF460000" xMin="0" yMin="290" xMax="500" yMax="830">
      <contour>
        <pt x="500" y="370" on="1"/>
        <pt x="500" y="290" on="1"/>
        <pt x="0" y="290" on="1"/>
        <pt x="0" y="370" on="1"/>
        <pt x="130" y="370" on="1"/>
        <pt x="130" y="830" on="1"/>
        <pt x="210" y="830" on="1"/>
        <pt x="210" y="370" on="1"/>
        <pt x="290" y="370" on="1"/>
        <pt x="290" y="830" on="1"/>
        <pt x="370" y="830" on="1"/>
        <pt x="370" y="370" on="1"/>
      </contour>
    </TTGlyph>
    <TTGlyph name="SF470000" xMin="0" yMin="-170" xMax="500" yMax="450">
      <contour>
        <pt x="500" y="290" on="1"/>
        <pt x="500" y="210" on="1"/>
        <pt x="290" y="210" on="1"/>
        <pt x="290" y="-170" on="1"/>
        <pt x="210" y="-170" on="1"/>
        <pt x="210" y="210" on="1"/>
        <pt x="0" y="210" on="1"/>
        <pt x="0" y="290" on="1"/>
      </contour>
      <contour>
        <pt x="0" y="370" on="1"/>
        <pt x="0" y="450" on="1"/>
        <pt x="500" y="450" on="1"/>
        <pt x="500" y="370" on="1"/>
      </contour>
    </TTGlyph>
    <TTGlyph name="SF480000" xMin="0" yMin="-170" xMax="500" yMax="370">
      <contour>
        <pt x="0" y="290" on="1"/>
        <pt x="0" y="370" on="1"/>
        <pt x="500" y="370" on="1"/>
        <pt x="500" y="290" on="1"/>
        <pt x="370" y="290" on="1"/>
        <pt x="370" y="-170" on="1"/>
        <pt x="290" y="-170" on="1"/>
        <pt x="290" y="290" on="1"/>
        <pt x="210" y="290" on="1"/>
        <pt x="210" y="-170" on="1"/>
        <pt x="130" y="-170" on="1"/>
        <pt x="130" y="290" on="1"/>
      </contour>
    </TTGlyph>
    <TTGlyph name="SF490000" xMin="130" yMin="290" xMax="500" yMax="830">
      <contour>
        <pt x="500" y="290" on="1"/>
        <pt x="290" y="290" on="1"/>
        <pt x="290" y="830" on="1"/>
        <pt x="370" y="830" on="1"/>
        <pt x="370" y="370" on="1"/>
        <pt x="500" y="370" on="1"/>
      </contour>
      <contour>
        <pt x="210" y="290" on="1"/>
        <pt x="130" y="290" on="1"/>
        <pt x="130" y="830" on="1"/>
        <pt x="210" y="830" on="1"/>
      </contour>
    </TTGlyph>
    <TTGlyph name="SF500000" xMin="210" yMin="210" xMax="500" yMax="830">
      <contour>
        <pt x="500" y="370" on="1"/>
        <pt x="210" y="370" on="1"/>
        <pt x="210" y="830" on="1"/>
        <pt x="290" y="830" on="1"/>
        <pt x="290" y="450" on="1"/>
        <pt x="500" y="450" on="1"/>
      </contour>
      <contour>
        <pt x="210" y="290" on="1"/>
        <pt x="500" y="290" on="1"/>
        <pt x="500" y="210" on="1"/>
        <pt x="210" y="210" on="1"/>
      </contour>
    </TTGlyph>
    <TTGlyph name="SF510000" xMin="210" yMin="-170" xMax="500" yMax="450">
      <contour>
        <pt x="500" y="210" on="1"/>
        <pt x="290" y="210" on="1"/>
        <pt x="290" y="-170" on="1"/>
        <pt x="210" y="-170" on="1"/>
        <pt x="210" y="290" on="1"/>
        <pt x="500" y="290" on="1"/>
      </contour>
      <contour>
        <pt x="210" y="450" on="1"/>
        <pt x="500" y="450" on="1"/>
        <pt x="500" y="370" on="1"/>
        <pt x="210" y="370" on="1"/>
      </contour>
    </TTGlyph>
    <TTGlyph name="SF520000" xMin="130" yMin="-170" xMax="500" yMax="370">
      <contour>
        <pt x="500" y="290" on="1"/>
        <pt x="370" y="290" on="1"/>
        <pt x="370" y="-170" on="1"/>
        <pt x="290" y="-170" on="1"/>
        <pt x="290" y="370" on="1"/>
        <pt x="500" y="370" on="1"/>
      </contour>
      <contour>
        <pt x="210" y="-170" on="1"/>
        <pt x="130" y="-170" on="1"/>
        <pt x="130" y="370" on="1"/>
        <pt x="210" y="370" on="1"/>
      </contour>
    </TTGlyph>
    <TTGlyph name="SF530000" xMin="0" yMin="-170" xMax="500" yMax="830">
      <contour>
        <pt x="370" y="370" on="1"/>
        <pt x="500" y="370" on="1"/>
        <pt x="500" y="290" on="1"/>
        <pt x="370" y="290" on="1"/>
        <pt x="370" y="-170" on="1"/>
        <pt x="290" y="-170" on="1"/>
        <pt x="290" y="290" on="1"/>
        <pt x="210" y="290" on="1"/>
        <pt x="210" y="-170" on="1"/>
        <pt x="130" y="-170" on="1"/>
        <pt x="130" y="290" on="1"/>
        <pt x="0" y="290" on="1"/>
        <pt x="0" y="370" on="1"/>
        <pt x="130" y="370" on="1"/>
        <pt x="130" y="830" on="1"/>
        <pt x="210" y="830" on="1"/>
        <pt x="210" y="370" on="1"/>
        <pt x="290" y="370" on="1"/>
        <pt x="290" y="830" on="1"/>
        <pt x="370" y="830" on="1"/>
      </contour>
    </TTGlyph>
    <TTGlyph name="SF530000.001" xMin="0" yMin="-170" xMax="500" yMax="830">
      <contour>
        <pt x="210" y="-170" on="1"/>
        <pt x="130" y="-170" on="1"/>
        <pt x="130" y="290" on="1"/>
        <pt x="0" y="290" on="1"/>
        <pt x="0" y="370" on="1"/>
        <pt x="130" y="370" on="1"/>
        <pt x="130" y="830" on="1"/>
        <pt x="210" y="830" on="1"/>
      </contour>
      <contour>
        <pt x="290" y="830" on="1"/>
        <pt x="370" y="830" on="1"/>
        <pt x="370" y="370" on="1"/>
        <pt x="500" y="370" on="1"/>
        <pt x="500" y="290" on="1"/>
        <pt x="370" y="290" on="1"/>
        <pt x="370" y="-170" on="1"/>
        <pt x="290" y="-170" on="1"/>
      </contour>
    </TTGlyph>
    <TTGlyph name="SF540000" xMin="0" yMin="-170" xMax="500" yMax="830">
      <contour>
        <pt x="500" y="290" on="1"/>
        <pt x="500" y="210" on="1"/>
        <pt x="290" y="210" on="1"/>
        <pt x="290" y="-170" on="1"/>
        <pt x="210" y="-170" on="1"/>
        <pt x="210" y="210" on="1"/>
        <pt x="0" y="210" on="1"/>
        <pt x="0" y="290" on="1"/>
        <pt x="210" y="290" on="1"/>
        <pt x="210" y="370" on="1"/>
        <pt x="0" y="370" on="1"/>
        <pt x="0" y="450" on="1"/>
        <pt x="210" y="450" on="1"/>
        <pt x="210" y="830" on="1"/>
        <pt x="290" y="830" on="1"/>
        <pt x="290" y="450" on="1"/>
        <pt x="500" y="450" on="1"/>
        <pt x="500" y="370" on="1"/>
        <pt x="290" y="370" on="1"/>
        <pt x="290" y="290" on="1"/>
      </contour>
    </TTGlyph>
    <TTGlyph name="SF540000.001" xMin="0" yMin="-170" xMax="500" yMax="830">
      <contour>
        <pt x="0" y="370" on="1"/>
        <pt x="0" y="450" on="1"/>
        <pt x="210" y="450" on="1"/>
        <pt x="210" y="830" on="1"/>
        <pt x="290" y="830" on="1"/>
        <pt x="290" y="450" on="1"/>
        <pt x="500" y="450" on="1"/>
        <pt x="500" y="370" on="1"/>
      </contour>
      <contour>
        <pt x="500" y="290" on="1"/>
        <pt x="500" y="210" on="1"/>
        <pt x="290" y="210" on="1"/>
        <pt x="290" y="-170" on="1"/>
        <pt x="210" y="-170" on="1"/>
        <pt x="210" y="210" on="1"/>
        <pt x="0" y="210" on="1"/>
        <pt x="0" y="290" on="1"/>
      </contour>
    </TTGlyph>
    <TTGlyph name="Sacute" xMin="40" yMin="-13" xMax="460" yMax="830">
      <component glyphName="S" x="0" y="0" flags="0x204"/>
      <component glyphName="acute" x="-3" y="139" flags="0x4"/>
    </TTGlyph>
    <TTGlyph name="Scaron" xMin="40" yMin="-13" xMax="460" yMax="830">
      <component glyphName="S" x="0" y="0" flags="0x204"/>
      <component glyphName="caron" x="0" y="139" flags="0x4"/>
    </TTGlyph>
    <TTGlyph name="Scedilla" xMin="40" yMin="-170" xMax="460" yMax="633">
      <contour>
        <pt x="260" y="-24" on="1"/>
        <pt x="293" y="-34" on="0"/>
        <pt x="319" y="-73" on="0"/>
        <pt x="319" y="-91" on="1"/>
        <pt x="319" y="-114" on="0"/>
        <pt x="298" y="-144" on="0"/>
        <pt x="265" y="-162" on="0"/>
        <pt x="221" y="-170" on="0"/>
        <pt x="199" y="-170" on="1"/>
        <pt x="154" y="-170" on="0"/>
        <pt x="119" y="-159" on="1"/>
        <pt x="132" y="-96" on="1"/>
        <pt x="138" y="-98" on="0"/>
        <pt x="172" y="-105" on="0"/>
        <pt x="188" y="-105" on="1"/>
        <pt x="229" y="-105" on="0"/>
        <pt x="229" y="-80" on="1"/>
        <pt x="229" y="-61" on="0"/>
        <pt x="193" y="-49" on="1"/>
        <pt x="173" y="-43" on="1"/>
        <pt x="175" y="-35" on="0"/>
        <pt x="182" y="-19" on="0"/>
        <pt x="185" y="-11" on="1"/>
        <pt x="129" y="-6" on="0"/>
        <pt x="60" y="22" on="0"/>
        <pt x="40" y="34" on="1"/>
        <pt x="76" y="134" on="1"/>
        <pt x="103" y="118" on="0"/>
        <pt x="178" y="90" on="0"/>
        <pt x="232" y="90" on="1"/>
        <pt x="263" y="90" on="0"/>
        <pt x="304" y="103" on="0"/>
        <pt x="328" y="126" on="0"/>
        <pt x="337" y="155" on="0"/>
        <pt x="337" y="170" on="1"/>
        <pt x="337" y="189" on="0"/>
        <pt x="315" y="219" on="0"/>
        <pt x="281" y="242" on="0"/>
        <pt x="239" y="261" on="0"/>
        <pt x="218" y="269" on="1"/>
        <pt x="190" y="279" on="0"/>
        <pt x="130" y="305" on="0"/>
        <pt x="81" y="345" on="0"/>
        <pt x="49" y="404" on="0"/>
        <pt x="49" y="448" on="1"/>
        <pt x="49" y="535" on="0"/>
        <pt x="162" y="633" on="0"/>
        <pt x="261" y="633" on="1"/>
        <pt x="318" y="633" on="0"/>
        <pt x="403" y="607" on="0"/>
        <pt x="432" y="591" on="1"/>
        <pt x="396" y="496" on="1"/>
        <pt x="371" y="510" on="0"/>
        <pt x="310" y="530" on="0"/>
        <pt x="270" y="530" on="1"/>
        <pt x="172" y="530" on="0"/>
        <pt x="172" y="459" on="1"/>
        <pt x="172" y="441" on="0"/>
        <pt x="192" y="414" on="0"/>
        <pt x="223" y="393" on="0"/>
        <pt x="262" y="377" on="0"/>
        <pt x="281" y="370" on="1"/>
        <pt x="310" y="359" on="0"/>
        <pt x="373" y="332" on="0"/>
        <pt x="426" y="287" on="0"/>
        <pt x="460" y="220" on="0"/>
        <pt x="460" y="169" on="1"/>
        <pt x="460" y="88" on="0"/>
        <pt x="363" y="-5" on="0"/>
        <pt x="265" y="-12" on="1"/>
        <pt x="261" y="-20" on="0"/>
      </contour>
    </TTGlyph>
    <TTGlyph name="Scircumflex" xMin="40" yMin="-13" xMax="460" yMax="830">
      <component glyphName="S" x="0" y="0" flags="0x204"/>
      <component glyphName="circumflex" x="0" y="139" flags="0x4"/>
    </TTGlyph>
    <TTGlyph name="Scommaaccent" xMin="40" yMin="-170" xMax="460" yMax="633">
      <component glyphName="S" x="0" y="0" flags="0x204"/>
      <component glyphName="commaaccent" x="-35" y="0" flags="0x4"/>
    </TTGlyph>
    <TTGlyph name="Sigma" xMin="28" yMin="0" xMax="470" yMax="619">
      <contour>
        <pt x="232" y="313" on="1"/>
        <pt x="212" y="341" on="0"/>
        <pt x="160" y="404" on="0"/>
        <pt x="108" y="467" on="0"/>
        <pt x="59" y="523" on="0"/>
        <pt x="41" y="544" on="1"/>
        <pt x="41" y="619" on="1"/>
        <pt x="469" y="619" on="1"/>
        <pt x="469" y="517" on="1"/>
        <pt x="205" y="517" on="1"/>
        <pt x="224" y="494" on="0"/>
        <pt x="266" y="441" on="0"/>
        <pt x="309" y="387" on="0"/>
        <pt x="349" y="335" on="0"/>
        <pt x="366" y="313" on="1"/>
        <pt x="352" y="297" on="0"/>
        <pt x="302" y="241" on="0"/>
        <pt x="247" y="179" on="0"/>
        <pt x="194" y="120" on="0"/>
        <pt x="179" y="102" on="1"/>
        <pt x="470" y="102" on="1"/>
        <pt x="470" y="0" on="1"/>
        <pt x="28" y="0" on="1"/>
        <pt x="28" y="81" on="1"/>
        <pt x="49" y="106" on="0"/>
        <pt x="100" y="165" on="0"/>
        <pt x="155" y="227" on="0"/>
        <pt x="209" y="287" on="0"/>
      </contour>
    </TTGlyph>
    <TTGlyph name="Slash" xMin="47" yMin="-123" xMax="453" yMax="741">
      <component glyphName="slash" x="0" y="42" flags="0x204"/>
    </TTGlyph>
    <TTGlyph name="T" xMin="25" yMin="0" xMax="475" yMax="619">
      <contour>
        <pt x="475" y="619" on="1"/>
        <pt x="475" y="517" on="1"/>
        <pt x="312" y="517" on="1"/>
        <pt x="312" y="0" on="1"/>
        <pt x="188" y="0" on="1"/>
        <pt x="188" y="517" on="1"/>
        <pt x="25" y="517" on="1"/>
        <pt x="25" y="619" on="1"/>
      </contour>
    </TTGlyph>
    <TTGlyph name="Tau" xMin="25" yMin="0" xMax="475" yMax="619">
      <component glyphName="T" x="0" y="0" flags="0x204"/>
    </TTGlyph>
    <TTGlyph name="Tbar" xMin="25" yMin="0" xMax="475" yMax="619">
      <contour>
        <pt x="475" y="619" on="1"/>
        <pt x="475" y="517" on="1"/>
        <pt x="312" y="517" on="1"/>
        <pt x="312" y="337" on="1"/>
        <pt x="438" y="337" on="1"/>
        <pt x="438" y="238" on="1"/>
        <pt x="312" y="238" on="1"/>
        <pt x="312" y="0" on="1"/>
        <pt x="188" y="0" on="1"/>
        <pt x="188" y="238" on="1"/>
        <pt x="63" y="238" on="1"/>
        <pt x="63" y="337" on="1"/>
        <pt x="188" y="337" on="1"/>
        <pt x="188" y="517" on="1"/>
        <pt x="25" y="517" on="1"/>
        <pt x="25" y="619" on="1"/>
      </contour>
    </TTGlyph>
    <TTGlyph name="Tcaron" xMin="25" yMin="0" xMax="475" yMax="830">
      <component glyphName="T" x="0" y="0" flags="0x204"/>
      <component glyphName="caron" x="0" y="139" flags="0x4"/>
    </TTGlyph>
    <TTGlyph name="Theta" xMin="22" yMin="-13" xMax="478" yMax="633">
      <contour>
        <pt x="179" y="357" on="1"/>
        <pt x="322" y="357" on="1"/>
        <pt x="322" y="264" on="1"/>
        <pt x="179" y="264" on="1"/>
      </contour>
      <contour>
        <pt x="138" y="310" on="1"/>
        <pt x="138" y="206" on="0"/>
        <pt x="186" y="94" on="0"/>
        <pt x="250" y="94" on="1"/>
        <pt x="313" y="94" on="0"/>
        <pt x="362" y="207" on="0"/>
        <pt x="362" y="310" on="1"/>
        <pt x="362" y="413" on="0"/>
        <pt x="314" y="526" on="0"/>
        <pt x="250" y="526" on="1"/>
        <pt x="187" y="526" on="0"/>
        <pt x="138" y="413" on="0"/>
      </contour>
      <contour>
        <pt x="22" y="310" on="1"/>
        <pt x="22" y="396" on="0"/>
        <pt x="54" y="518" on="0"/>
        <pt x="114" y="596" on="0"/>
        <pt x="198" y="633" on="0"/>
        <pt x="250" y="633" on="1"/>
        <pt x="304" y="633" on="0"/>
        <pt x="389" y="596" on="0"/>
        <pt x="448" y="518" on="0"/>
        <pt x="478" y="396" on="0"/>
        <pt x="478" y="310" on="1"/>
        <pt x="478" y="224" on="0"/>
        <pt x="446" y="101" on="0"/>
        <pt x="388" y="23" on="0"/>
        <pt x="303" y="-13" on="0"/>
        <pt x="251" y="-13" on="1"/>
        <pt x="197" y="-13" on="0"/>
        <pt x="112" y="23" on="0"/>
        <pt x="53" y="101" on="0"/>
        <pt x="22" y="224" on="0"/>
      </contour>
    </TTGlyph>
    <TTGlyph name="Thorn" xMin="54" yMin="0" xMax="472" yMax="619">
      <contour>
        <pt x="224" y="531" on="1"/>
        <pt x="343" y="531" on="0"/>
        <pt x="472" y="429" on="0"/>
        <pt x="472" y="324" on="1"/>
        <pt x="472" y="220" on="0"/>
        <pt x="342" y="114" on="0"/>
        <pt x="221" y="114" on="1"/>
        <pt x="177" y="114" on="1"/>
        <pt x="177" y="0" on="1"/>
        <pt x="54" y="0" on="1"/>
        <pt x="54" y="619" on="1"/>
        <pt x="177" y="619" on="1"/>
        <pt x="177" y="530" on="1"/>
        <pt x="190" y="531" on="0"/>
        <pt x="213" y="531" on="0"/>
      </contour>
      <contour>
        <pt x="238" y="424" on="1"/>
        <pt x="227" y="424" on="0"/>
        <pt x="188" y="423" on="0"/>
        <pt x="177" y="421" on="1"/>
        <pt x="177" y="221" on="1"/>
        <pt x="227" y="221" on="1"/>
        <pt x="286" y="221" on="0"/>
        <pt x="346" y="275" on="0"/>
        <pt x="346" y="325" on="1"/>
        <pt x="346" y="373" on="0"/>
        <pt x="287" y="424" on="0"/>
      </contour>
    </TTGlyph>
    <TTGlyph name="U" xMin="39" yMin="-13" xMax="461" yMax="619">
      <contour>
        <pt x="248" y="-13" on="1"/>
        <pt x="188" y="-13" on="0"/>
        <pt x="107" y="20" on="0"/>
        <pt x="59" y="82" on="0"/>
        <pt x="39" y="170" on="0"/>
        <pt x="39" y="224" on="1"/>
        <pt x="39" y="619" on="1"/>
        <pt x="163" y="619" on="1"/>
        <pt x="163" y="232" on="1"/>
        <pt x="163" y="193" on="0"/>
        <pt x="171" y="140" on="0"/>
        <pt x="190" y="108" on="0"/>
        <pt x="224" y="94" on="0"/>
        <pt x="250" y="94" on="1"/>
        <pt x="276" y="94" on="0"/>
        <pt x="310" y="108" on="0"/>
        <pt x="330" y="141" on="0"/>
        <pt x="338" y="194" on="0"/>
        <pt x="338" y="233" on="1"/>
        <pt x="338" y="619" on="1"/>
        <pt x="461" y="619" on="1"/>
        <pt x="461" y="224" on="1"/>
        <pt x="461" y="170" on="0"/>
        <pt x="441" y="82" on="0"/>
        <pt x="391" y="20" on="0"/>
        <pt x="309" y="-13" on="0"/>
      </contour>
    </TTGlyph>
    <TTGlyph name="Uacute" xMin="39" yMin="-13" xMax="461" yMax="830">
      <component glyphName="U" x="0" y="0" flags="0x204"/>
      <component glyphName="acute" x="4" y="139" flags="0x4"/>
    </TTGlyph>
    <TTGlyph name="Ubreve" xMin="39" yMin="-13" xMax="461" yMax="821">
      <component glyphName="U" x="0" y="0" flags="0x204"/>
      <component glyphName="breve" x="0" y="139" flags="0x4"/>
    </TTGlyph>
    <TTGlyph name="Ucircumflex" xMin="39" yMin="-13" xMax="461" yMax="830">
      <component glyphName="U" x="0" y="0" flags="0x204"/>
      <component glyphName="circumflex" x="0" y="139" flags="0x4"/>
    </TTGlyph>
    <TTGlyph name="Udieresis" xMin="39" yMin="-13" xMax="461" yMax="812">
      <component glyphName="U" x="0" y="0" flags="0x204"/>
      <component glyphName="dieresis" x="0" y="139" flags="0x4"/>
    </TTGlyph>
    <TTGlyph name="Ugrave" xMin="39" yMin="-13" xMax="461" yMax="830">
      <component glyphName="U" x="0" y="0" flags="0x204"/>
      <component glyphName="grave" x="-25" y="139" flags="0x4"/>
    </TTGlyph>
    <TTGlyph name="Uhorn" xMin="39" yMin="-13" xMax="513" yMax="715">
      <contour>
        <pt x="221" y="-13" on="1"/>
        <pt x="168" y="-13" on="0"/>
        <pt x="98" y="20" on="0"/>
        <pt x="56" y="82" on="0"/>
        <pt x="39" y="170" on="0"/>
        <pt x="39" y="224" on="1"/>
        <pt x="39" y="619" on="1"/>
        <pt x="154" y="619" on="1"/>
        <pt x="154" y="223" on="1"/>
        <pt x="154" y="145" on="0"/>
        <pt x="185" y="85" on="0"/>
        <pt x="223" y="85" on="1"/>
        <pt x="260" y="85" on="0"/>
        <pt x="293" y="147" on="0"/>
        <pt x="293" y="224" on="1"/>
        <pt x="293" y="619" on="1"/>
        <pt x="344" y="619" on="1"/>
        <pt x="383" y="619" on="0"/>
        <pt x="409" y="651" on="0"/>
        <pt x="409" y="680" on="1"/>
        <pt x="409" y="688" on="0"/>
        <pt x="408" y="706" on="0"/>
        <pt x="407" y="715" on="1"/>
        <pt x="509" y="715" on="1"/>
        <pt x="511" y="703" on="0"/>
        <pt x="513" y="680" on="0"/>
        <pt x="513" y="669" on="1"/>
        <pt x="513" y="622" on="0"/>
        <pt x="468" y="561" on="0"/>
        <pt x="407" y="552" on="1"/>
        <pt x="407" y="224" on="1"/>
        <pt x="407" y="170" on="0"/>
        <pt x="389" y="82" on="0"/>
        <pt x="346" y="20" on="0"/>
        <pt x="275" y="-13" on="0"/>
      </contour>
    </TTGlyph>
    <TTGlyph name="Uhungarumlaut" xMin="39" yMin="-13" xMax="474" yMax="830">
      <component glyphName="U" x="0" y="0" flags="0x204"/>
      <component glyphName="hungarumlaut" x="36" y="138" flags="0x4"/>
    </TTGlyph>
    <TTGlyph name="Umacron" xMin="39" yMin="-13" xMax="461" yMax="786">
      <component glyphName="U" x="0" y="0" flags="0x204"/>
      <component glyphName="macron" x="0" y="139" flags="0x4"/>
    </TTGlyph>
    <TTGlyph name="Uogonek" xMin="39" yMin="-170" xMax="461" yMax="619">
      <contour>
        <pt x="391" y="24" on="1"/>
        <pt x="384" y="19" on="0"/>
        <pt x="355" y="-7" on="0"/>
        <pt x="325" y="-38" on="0"/>
        <pt x="302" y="-69" on="0"/>
        <pt x="302" y="-81" on="1"/>
        <pt x="302" y="-91" on="0"/>
        <pt x="313" y="-105" on="0"/>
        <pt x="329" y="-105" on="1"/>
        <pt x="337" y="-105" on="0"/>
        <pt x="359" y="-103" on="0"/>
        <pt x="374" y="-98" on="1"/>
        <pt x="381" y="-156" on="1"/>
        <pt x="367" y="-161" on="0"/>
        <pt x="316" y="-170" on="0"/>
        <pt x="288" y="-170" on="1"/>
        <pt x="240" y="-170" on="0"/>
        <pt x="198" y="-133" on="0"/>
        <pt x="198" y="-106" on="1"/>
        <pt x="198" y="-83" on="0"/>
        <pt x="223" y="-34" on="0"/>
        <pt x="245" y="-13" on="1"/>
        <pt x="185" y="-13" on="0"/>
        <pt x="106" y="21" on="0"/>
        <pt x="59" y="83" on="0"/>
        <pt x="39" y="170" on="0"/>
        <pt x="39" y="224" on="1"/>
        <pt x="39" y="619" on="1"/>
        <pt x="163" y="619" on="1"/>
        <pt x="163" y="232" on="1"/>
        <pt x="163" y="193" on="0"/>
        <pt x="171" y="140" on="0"/>
        <pt x="190" y="108" on="0"/>
        <pt x="224" y="94" on="0"/>
        <pt x="250" y="94" on="1"/>
        <pt x="276" y="94" on="0"/>
        <pt x="310" y="108" on="0"/>
        <pt x="330" y="141" on="0"/>
        <pt x="338" y="194" on="0"/>
        <pt x="338" y="233" on="1"/>
        <pt x="338" y="619" on="1"/>
        <pt x="461" y="619" on="1"/>
        <pt x="461" y="224" on="1"/>
        <pt x="461" y="156" on="0"/>
        <pt x="431" y="57" on="0"/>
      </contour>
    </TTGlyph>
    <TTGlyph name="Upsilon" xMin="13" yMin="0" xMax="488" yMax="619">
      <component glyphName="Y" x="0" y="0" flags="0x204"/>
    </TTGlyph>
    <TTGlyph name="Upsilondieresis" xMin="13" yMin="0" xMax="488" yMax="812">
      <component glyphName="Y" x="0" y="0" flags="0x204"/>
      <component glyphName="dieresis" x="0" y="139" flags="0x4"/>
    </TTGlyph>
    <TTGlyph name="Upsilontonos" xMin="-166" yMin="0" xMax="488" yMax="640">
      <component glyphName="Y" x="0" y="0" flags="0x204"/>
      <component glyphName="tonos.cap" x="-337" y="0" flags="0x4"/>
    </TTGlyph>
    <TTGlyph name="Uring" xMin="39" yMin="-13" xMax="461" yMax="826">
      <contour>
        <pt x="248" y="-13" on="1"/>
        <pt x="188" y="-13" on="0"/>
        <pt x="107" y="20" on="0"/>
        <pt x="59" y="82" on="0"/>
        <pt x="39" y="170" on="0"/>
        <pt x="39" y="224" on="1"/>
        <pt x="39" y="599" on="1"/>
        <pt x="163" y="599" on="1"/>
        <pt x="163" y="232" on="1"/>
        <pt x="163" y="193" on="0"/>
        <pt x="171" y="140" on="0"/>
        <pt x="190" y="108" on="0"/>
        <pt x="224" y="94" on="0"/>
        <pt x="250" y="94" on="1"/>
        <pt x="276" y="94" on="0"/>
        <pt x="310" y="108" on="0"/>
        <pt x="330" y="141" on="0"/>
        <pt x="338" y="194" on="0"/>
        <pt x="338" y="233" on="1"/>
        <pt x="338" y="599" on="1"/>
        <pt x="461" y="599" on="1"/>
        <pt x="461" y="224" on="1"/>
        <pt x="461" y="170" on="0"/>
        <pt x="441" y="82" on="0"/>
        <pt x="391" y="20" on="0"/>
        <pt x="309" y="-13" on="0"/>
      </contour>
      <contour>
        <pt x="355" y="723" on="1"/>
        <pt x="355" y="673" on="0"/>
        <pt x="292" y="621" on="0"/>
        <pt x="249" y="621" on="1"/>
        <pt x="229" y="621" on="0"/>
        <pt x="191" y="634" on="0"/>
        <pt x="162" y="660" on="0"/>
        <pt x="145" y="698" on="0"/>
        <pt x="145" y="723" on="1"/>
        <pt x="145" y="748" on="0"/>
        <pt x="162" y="787" on="0"/>
        <pt x="191" y="813" on="0"/>
        <pt x="229" y="826" on="0"/>
        <pt x="249" y="826" on="1"/>
        <pt x="292" y="826" on="0"/>
        <pt x="355" y="774" on="0"/>
      </contour>
      <contour>
        <pt x="290" y="723" on="1"/>
        <pt x="290" y="744" on="0"/>
        <pt x="266" y="765" on="0"/>
        <pt x="249" y="765" on="1"/>
        <pt x="234" y="765" on="0"/>
        <pt x="209" y="744" on="0"/>
        <pt x="209" y="723" on="1"/>
        <pt x="209" y="703" on="0"/>
        <pt x="234" y="681" on="0"/>
        <pt x="249" y="681" on="1"/>
        <pt x="266" y="681" on="0"/>
        <pt x="290" y="703" on="0"/>
      </contour>
    </TTGlyph>
    <TTGlyph name="Utilde" xMin="39" yMin="-13" xMax="461" yMax="811">
      <component glyphName="U" x="0" y="0" flags="0x204"/>
      <component glyphName="tilde" x="0" y="139" flags="0x4"/>
    </TTGlyph>
    <TTGlyph name="V" xMin="13" yMin="0" xMax="488" yMax="619">
      <contour>
        <pt x="186" y="0" on="1"/>
        <pt x="162" y="69" on="0"/>
        <pt x="108" y="243" on="0"/>
        <pt x="60" y="416" on="0"/>
        <pt x="22" y="570" on="0"/>
        <pt x="13" y="619" on="1"/>
        <pt x="143" y="619" on="1"/>
        <pt x="149" y="571" on="0"/>
        <pt x="173" y="444" on="0"/>
        <pt x="202" y="309" on="0"/>
        <pt x="235" y="178" on="0"/>
        <pt x="251" y="126" on="1"/>
        <pt x="267" y="177" on="0"/>
        <pt x="299" y="308" on="0"/>
        <pt x="327" y="443" on="0"/>
        <pt x="351" y="571" on="0"/>
        <pt x="359" y="619" on="1"/>
        <pt x="488" y="619" on="1"/>
        <pt x="476" y="559" on="0"/>
        <pt x="441" y="411" on="0"/>
        <pt x="396" y="248" on="0"/>
        <pt x="342" y="79" on="0"/>
        <pt x="313" y="0" on="1"/>
      </contour>
    </TTGlyph>
    <TTGlyph name="W" xMin="23" yMin="0" xMax="477" yMax="619">
      <contour>
        <pt x="296" y="400" on="1"/>
        <pt x="300" y="381" on="0"/>
        <pt x="316" y="325" on="0"/>
        <pt x="335" y="257" on="0"/>
        <pt x="358" y="179" on="0"/>
        <pt x="369" y="138" on="1"/>
        <pt x="369" y="190" on="0"/>
        <pt x="367" y="309" on="0"/>
        <pt x="365" y="433" on="0"/>
        <pt x="363" y="560" on="0"/>
        <pt x="363" y="619" on="1"/>
        <pt x="477" y="619" on="1"/>
        <pt x="474" y="543" on="0"/>
        <pt x="468" y="382" on="0"/>
        <pt x="460" y="223" on="0"/>
        <pt x="449" y="69" on="0"/>
        <pt x="442" y="0" on="1"/>
        <pt x="340" y="0" on="1"/>
        <pt x="318" y="63" on="0"/>
        <pt x="274" y="208" on="0"/>
        <pt x="252" y="274" on="1"/>
        <pt x="230" y="211" on="0"/>
        <pt x="182" y="63" on="0"/>
        <pt x="162" y="0" on="1"/>
        <pt x="60" y="0" on="1"/>
        <pt x="52" y="69" on="0"/>
        <pt x="40" y="224" on="0"/>
        <pt x="31" y="383" on="0"/>
        <pt x="25" y="544" on="0"/>
        <pt x="23" y="619" on="1"/>
        <pt x="137" y="619" on="1"/>
        <pt x="136" y="560" on="0"/>
        <pt x="134" y="434" on="0"/>
        <pt x="132" y="309" on="0"/>
        <pt x="130" y="190" on="0"/>
        <pt x="130" y="138" on="1"/>
        <pt x="139" y="170" on="0"/>
        <pt x="162" y="246" on="0"/>
        <pt x="183" y="320" on="0"/>
        <pt x="201" y="382" on="0"/>
        <pt x="206" y="400" on="1"/>
      </contour>
    </TTGlyph>
    <TTGlyph name="Wacute" xMin="23" yMin="0" xMax="477" yMax="830">
      <component glyphName="W" x="0" y="0" flags="0x204"/>
      <component glyphName="acute" x="0" y="139" flags="0x4"/>
    </TTGlyph>
    <TTGlyph name="Wcircumflex" xMin="23" yMin="0" xMax="477" yMax="830">
      <component glyphName="W" x="0" y="0" flags="0x204"/>
      <component glyphName="circumflex" x="0" y="139" flags="0x4"/>
    </TTGlyph>
    <TTGlyph name="Wdieresis" xMin="23" yMin="0" xMax="477" yMax="812">
      <component glyphName="W" x="0" y="0" flags="0x204"/>
      <component glyphName="dieresis" x="0" y="139" flags="0x4"/>
    </TTGlyph>
    <TTGlyph name="Wgrave" xMin="23" yMin="0" xMax="477" yMax="830">
      <component glyphName="W" x="0" y="0" flags="0x204"/>
      <component glyphName="grave" x="-26" y="139" flags="0x4"/>
    </TTGlyph>
    <TTGlyph name="X" xMin="11" yMin="0" xMax="489" yMax="619">
      <contour>
        <pt x="356" y="0" on="1"/>
        <pt x="337" y="51" on="0"/>
        <pt x="282" y="175" on="0"/>
        <pt x="252" y="237" on="1"/>
        <pt x="223" y="178" on="0"/>
        <pt x="165" y="51" on="0"/>
        <pt x="144" y="0" on="1"/>
        <pt x="11" y="0" on="1"/>
        <pt x="21" y="27" on="0"/>
        <pt x="60" y="103" on="0"/>
        <pt x="107" y="191" on="0"/>
        <pt x="159" y="284" on="0"/>
        <pt x="183" y="327" on="1"/>
        <pt x="21" y="619" on="1"/>
        <pt x="154" y="619" on="1"/>
        <pt x="252" y="421" on="1"/>
        <pt x="355" y="619" on="1"/>
        <pt x="479" y="619" on="1"/>
        <pt x="321" y="330" on="1"/>
        <pt x="348" y="287" on="0"/>
        <pt x="400" y="193" on="0"/>
        <pt x="445" y="104" on="0"/>
        <pt x="479" y="27" on="0"/>
        <pt x="489" y="0" on="1"/>
      </contour>
    </TTGlyph>
    <TTGlyph name="Xi" xMin="32" yMin="0" xMax="468" yMax="619">
      <contour>
        <pt x="32" y="619" on="1"/>
        <pt x="468" y="619" on="1"/>
        <pt x="468" y="515" on="1"/>
        <pt x="32" y="515" on="1"/>
      </contour>
      <contour>
        <pt x="71" y="275" on="1"/>
        <pt x="71" y="379" on="1"/>
        <pt x="430" y="379" on="1"/>
        <pt x="430" y="275" on="1"/>
      </contour>
      <contour>
        <pt x="32" y="104" on="1"/>
        <pt x="468" y="104" on="1"/>
        <pt x="468" y="0" on="1"/>
        <pt x="32" y="0" on="1"/>
      </contour>
    </TTGlyph>
    <TTGlyph name="Y" xMin="13" yMin="0" xMax="488" yMax="619">
      <contour>
        <pt x="254" y="336" on="1"/>
        <pt x="265" y="359" on="0"/>
        <pt x="294" y="429" on="0"/>
        <pt x="323" y="507" on="0"/>
        <pt x="350" y="587" on="0"/>
        <pt x="361" y="619" on="1"/>
        <pt x="488" y="619" on="1"/>
        <pt x="469" y="568" on="0"/>
        <pt x="431" y="472" on="0"/>
        <pt x="389" y="378" on="0"/>
        <pt x="341" y="285" on="0"/>
        <pt x="313" y="236" on="1"/>
        <pt x="313" y="0" on="1"/>
        <pt x="189" y="0" on="1"/>
        <pt x="189" y="235" on="1"/>
        <pt x="134" y="332" on="0"/>
        <pt x="51" y="517" on="0"/>
        <pt x="13" y="619" on="1"/>
        <pt x="145" y="619" on="1"/>
        <pt x="168" y="547" on="0"/>
        <pt x="224" y="398" on="0"/>
      </contour>
    </TTGlyph>
    <TTGlyph name="Yacute" xMin="13" yMin="0" xMax="488" yMax="830">
      <component glyphName="Y" x="0" y="0" flags="0x204"/>
      <component glyphName="acute" x="4" y="139" flags="0x4"/>
    </TTGlyph>
    <TTGlyph name="Ycircumflex" xMin="13" yMin="0" xMax="488" yMax="830">
      <component glyphName="Y" x="0" y="0" flags="0x204"/>
      <component glyphName="circumflex" x="0" y="139" flags="0x4"/>
    </TTGlyph>
    <TTGlyph name="Ydieresis" xMin="13" yMin="0" xMax="488" yMax="812">
      <component glyphName="Y" x="0" y="0" flags="0x204"/>
      <component glyphName="dieresis" x="0" y="139" flags="0x4"/>
    </TTGlyph>
    <TTGlyph name="Ygrave" xMin="13" yMin="0" xMax="488" yMax="830">
      <component glyphName="Y" x="0" y="0" flags="0x204"/>
      <component glyphName="grave" x="-35" y="139" flags="0x4"/>
    </TTGlyph>
    <TTGlyph name="Z" xMin="46" yMin="0" xMax="454" yMax="619">
      <contour>
        <pt x="445" y="533" on="1"/>
        <pt x="402" y="467" on="0"/>
        <pt x="330" y="351" on="0"/>
        <pt x="268" y="246" on="0"/>
        <pt x="213" y="149" on="0"/>
        <pt x="188" y="102" on="1"/>
        <pt x="454" y="102" on="1"/>
        <pt x="454" y="0" on="1"/>
        <pt x="46" y="0" on="1"/>
        <pt x="46" y="71" on="1"/>
        <pt x="68" y="114" on="0"/>
        <pt x="118" y="209" on="0"/>
        <pt x="180" y="317" on="0"/>
        <pt x="253" y="443" on="0"/>
        <pt x="297" y="517" on="1"/>
        <pt x="59" y="517" on="1"/>
        <pt x="59" y="619" on="1"/>
        <pt x="445" y="619" on="1"/>
      </contour>
    </TTGlyph>
    <TTGlyph name="Zacute" xMin="46" yMin="0" xMax="454" yMax="830">
      <component glyphName="Z" x="0" y="0" flags="0x204"/>
      <component glyphName="acute" x="0" y="139" flags="0x4"/>
    </TTGlyph>
    <TTGlyph name="Zcaron" xMin="46" yMin="0" xMax="454" yMax="830">
      <component glyphName="Z" x="0" y="0" flags="0x204"/>
      <component glyphName="caron" x="0" y="139" flags="0x4"/>
    </TTGlyph>
    <TTGlyph name="Zdotaccent" xMin="46" yMin="0" xMax="454" yMax="814">
      <component glyphName="Z" x="0" y="0" flags="0x204"/>
      <component glyphName="dotaccent" x="0" y="139" flags="0x4"/>
    </TTGlyph>
    <TTGlyph name="Zeta" xMin="46" yMin="0" xMax="454" yMax="619">
      <component glyphName="Z" x="0" y="0" flags="0x204"/>
    </TTGlyph>
    <TTGlyph name="a" xMin="44" yMin="-11" xMax="441" yMax="482">
      <contour>
        <pt x="251" y="88" on="1"/>
        <pt x="271" y="88" on="0"/>
        <pt x="309" y="89" on="0"/>
        <pt x="323" y="91" on="1"/>
        <pt x="323" y="199" on="1"/>
        <pt x="311" y="201" on="0"/>
        <pt x="277" y="204" on="0"/>
        <pt x="263" y="204" on="1"/>
        <pt x="244" y="204" on="0"/>
        <pt x="208" y="199" on="0"/>
        <pt x="181" y="187" on="0"/>
        <pt x="165" y="165" on="0"/>
        <pt x="165" y="147" on="1"/>
        <pt x="165" y="115" on="0"/>
        <pt x="213" y="88" on="0"/>
      </contour>
      <contour>
        <pt x="240" y="482" on="1"/>
        <pt x="298" y="482" on="0"/>
        <pt x="375" y="455" on="0"/>
        <pt x="421" y="406" on="0"/>
        <pt x="441" y="335" on="0"/>
        <pt x="441" y="291" on="1"/>
        <pt x="441" y="11" on="1"/>
        <pt x="414" y="5" on="0"/>
        <pt x="308" y="-11" on="0"/>
        <pt x="242" y="-11" on="1"/>
        <pt x="197" y="-11" on="0"/>
        <pt x="124" y="5" on="0"/>
        <pt x="72" y="42" on="0"/>
        <pt x="44" y="101" on="0"/>
        <pt x="44" y="144" on="1"/>
        <pt x="44" y="185" on="0"/>
        <pt x="76" y="241" on="0"/>
        <pt x="130" y="275" on="0"/>
        <pt x="200" y="290" on="0"/>
        <pt x="238" y="290" on="1"/>
        <pt x="286" y="290" on="0"/>
        <pt x="323" y="282" on="1"/>
        <pt x="323" y="297" on="1"/>
        <pt x="323" y="332" on="0"/>
        <pt x="279" y="379" on="0"/>
        <pt x="225" y="379" on="1"/>
        <pt x="190" y="379" on="0"/>
        <pt x="125" y="369" on="0"/>
        <pt x="105" y="362" on="1"/>
        <pt x="88" y="461" on="1"/>
        <pt x="111" y="469" on="0"/>
        <pt x="195" y="482" on="0"/>
      </contour>
    </TTGlyph>
    <TTGlyph name="aacute" xMin="44" yMin="-11" xMax="441" yMax="691">
      <component glyphName="a" x="0" y="0" flags="0x204"/>
      <component glyphName="acute" x="0" y="0" flags="0x4"/>
    </TTGlyph>
    <TTGlyph name="abreve" xMin="44" yMin="-11" xMax="441" yMax="682">
      <component glyphName="a" x="0" y="0" flags="0x204"/>
      <component glyphName="breve" x="0" y="0" flags="0x4"/>
    </TTGlyph>
    <TTGlyph name="acircumflex" xMin="44" yMin="-11" xMax="441" yMax="691">
      <component glyphName="a" x="0" y="0" flags="0x204"/>
      <component glyphName="circumflex" x="0" y="0" flags="0x4"/>
    </TTGlyph>
    <TTGlyph name="acute" xMin="152" yMin="513" xMax="371" yMax="691">
      <contour>
        <pt x="371" y="597" on="1"/>
        <pt x="197" y="513" on="1"/>
        <pt x="152" y="580" on="1"/>
        <pt x="310" y="691" on="1"/>
      </contour>
    </TTGlyph>
    <TTGlyph name="acute.asc" xMin="139" yMin="677" xMax="361" yMax="829">
      <contour>
        <pt x="361" y="739" on="1"/>
        <pt x="166" y="677" on="1"/>
        <pt x="139" y="739" on="1"/>
        <pt x="329" y="829" on="1"/>
      </contour>
    </TTGlyph>
    <TTGlyph name="adieresis" xMin="44" yMin="-11" xMax="441" yMax="673">
      <component glyphName="a" x="0" y="0" flags="0x204"/>
      <component glyphName="dieresis" x="0" y="0" flags="0x4"/>
    </TTGlyph>
    <TTGlyph name="ae" xMin="23" yMin="-11" xMax="488" yMax="482">
      <contour>
        <pt x="163" y="482" on="1"/>
        <pt x="194" y="482" on="0"/>
        <pt x="249" y="457" on="0"/>
        <pt x="270" y="428" on="1"/>
        <pt x="287" y="454" on="0"/>
        <pt x="329" y="482" on="0"/>
        <pt x="354" y="482" on="1"/>
        <pt x="383" y="482" on="0"/>
        <pt x="432" y="458" on="0"/>
        <pt x="468" y="404" on="0"/>
        <pt x="488" y="316" on="0"/>
        <pt x="488" y="252" on="1"/>
        <pt x="488" y="240" on="0"/>
        <pt x="488" y="205" on="0"/>
        <pt x="486" y="195" on="1"/>
        <pt x="307" y="195" on="1"/>
        <pt x="308" y="167" on="0"/>
        <pt x="322" y="128" on="0"/>
        <pt x="344" y="103" on="0"/>
        <pt x="372" y="92" on="0"/>
        <pt x="388" y="92" on="1"/>
        <pt x="406" y="92" on="0"/>
        <pt x="441" y="101" on="0"/>
        <pt x="455" y="109" on="1"/>
        <pt x="473" y="12" on="1"/>
        <pt x="450" y="0" on="0"/>
        <pt x="405" y="-11" on="0"/>
        <pt x="375" y="-11" on="1"/>
        <pt x="340" y="-11" on="0"/>
        <pt x="290" y="17" on="0"/>
        <pt x="273" y="38" on="1"/>
        <pt x="250" y="12" on="0"/>
        <pt x="191" y="-11" on="0"/>
        <pt x="162" y="-11" on="1"/>
        <pt x="128" y="-11" on="0"/>
        <pt x="76" y="16" on="0"/>
        <pt x="41" y="60" on="0"/>
        <pt x="23" y="116" on="0"/>
        <pt x="23" y="145" on="1"/>
        <pt x="23" y="213" on="0"/>
        <pt x="100" y="290" on="0"/>
        <pt x="160" y="290" on="1"/>
        <pt x="173" y="290" on="0"/>
        <pt x="199" y="287" on="0"/>
        <pt x="213" y="282" on="1"/>
        <pt x="213" y="305" on="1"/>
        <pt x="213" y="349" on="0"/>
        <pt x="182" y="383" on="0"/>
        <pt x="155" y="383" on="1"/>
        <pt x="138" y="383" on="0"/>
        <pt x="99" y="372" on="0"/>
        <pt x="76" y="364" on="1"/>
        <pt x="59" y="459" on="1"/>
        <pt x="85" y="470" on="0"/>
        <pt x="137" y="482" on="0"/>
      </contour>
      <contour>
        <pt x="213" y="199" on="1"/>
        <pt x="204" y="202" on="0"/>
        <pt x="185" y="204" on="0"/>
        <pt x="177" y="204" on="1"/>
        <pt x="151" y="204" on="0"/>
        <pt x="118" y="178" on="0"/>
        <pt x="118" y="146" on="1"/>
        <pt x="118" y="119" on="0"/>
        <pt x="146" y="87" on="0"/>
        <pt x="173" y="87" on="1"/>
        <pt x="196" y="87" on="0"/>
        <pt x="222" y="99" on="1"/>
        <pt x="216" y="125" on="0"/>
        <pt x="213" y="177" on="0"/>
      </contour>
      <contour>
        <pt x="354" y="384" on="1"/>
        <pt x="341" y="384" on="0"/>
        <pt x="324" y="365" on="0"/>
        <pt x="313" y="335" on="0"/>
        <pt x="308" y="298" on="0"/>
        <pt x="308" y="280" on="1"/>
        <pt x="396" y="280" on="1"/>
        <pt x="396" y="299" on="0"/>
        <pt x="392" y="337" on="0"/>
        <pt x="383" y="366" on="0"/>
        <pt x="367" y="384" on="0"/>
      </contour>
    </TTGlyph>
    <TTGlyph name="aeacute" xMin="23" yMin="-11" xMax="488" yMax="691">
      <component glyphName="ae" x="0" y="0" flags="0x204"/>
      <component glyphName="acute" x="20" y="0" flags="0x4"/>
    </TTGlyph>
    <TTGlyph name="afii00208" xMin="0" yMin="221" xMax="500" yMax="313">
      <contour>
        <pt x="0" y="313" on="1"/>
        <pt x="500" y="313" on="1"/>
        <pt x="500" y="221" on="1"/>
        <pt x="0" y="221" on="1"/>
      </contour>
    </TTGlyph>
    <TTGlyph name="afii10017" xMin="9" yMin="0" xMax="491" yMax="619">
      <component glyphName="A" x="0" y="0" flags="0x204"/>
    </TTGlyph>
    <TTGlyph name="afii10018" xMin="54" yMin="-8" xMax="469" yMax="619">
      <contour>
        <pt x="177" y="517" on="1"/>
        <pt x="177" y="399" on="1"/>
        <pt x="223" y="399" on="1"/>
        <pt x="279" y="399" on="0"/>
        <pt x="370" y="378" on="0"/>
        <pt x="434" y="330" on="0"/>
        <pt x="469" y="253" on="0"/>
        <pt x="469" y="197" on="1"/>
        <pt x="469" y="94" on="0"/>
        <pt x="344" y="-8" on="0"/>
        <pt x="226" y="-8" on="1"/>
        <pt x="191" y="-8" on="0"/>
        <pt x="99" y="0" on="0"/>
        <pt x="54" y="10" on="1"/>
        <pt x="54" y="619" on="1"/>
        <pt x="405" y="619" on="1"/>
        <pt x="405" y="517" on="1"/>
      </contour>
      <contour>
        <pt x="233" y="99" on="1"/>
        <pt x="287" y="99" on="0"/>
        <pt x="348" y="145" on="0"/>
        <pt x="348" y="196" on="1"/>
        <pt x="348" y="250" on="0"/>
        <pt x="284" y="292" on="0"/>
        <pt x="219" y="292" on="1"/>
        <pt x="177" y="292" on="1"/>
        <pt x="177" y="103" on="1"/>
        <pt x="185" y="102" on="0"/>
        <pt x="219" y="99" on="0"/>
      </contour>
    </TTGlyph>
    <TTGlyph name="afii10019" xMin="54" yMin="-8" xMax="469" yMax="626">
      <component glyphName="B" x="0" y="0" flags="0x204"/>
    </TTGlyph>
    <TTGlyph name="afii10020" xMin="36" yMin="0" xMax="484" yMax="619">
      <contour>
        <pt x="125" y="102" on="1"/>
        <pt x="125" y="619" on="1"/>
        <pt x="484" y="619" on="1"/>
        <pt x="484" y="517" on="1"/>
        <pt x="248" y="517" on="1"/>
        <pt x="248" y="102" on="1"/>
        <pt x="382" y="102" on="1"/>
        <pt x="382" y="0" on="1"/>
        <pt x="36" y="0" on="1"/>
        <pt x="36" y="102" on="1"/>
      </contour>
    </TTGlyph>
    <TTGlyph name="afii10021" xMin="15" yMin="-165" xMax="482" yMax="619">
      <contour>
        <pt x="15" y="102" on="1"/>
        <pt x="51" y="102" on="1"/>
        <pt x="77" y="147" on="0"/>
        <pt x="106" y="264" on="0"/>
        <pt x="119" y="389" on="0"/>
        <pt x="121" y="511" on="0"/>
        <pt x="121" y="559" on="1"/>
        <pt x="121" y="619" on="1"/>
        <pt x="447" y="619" on="1"/>
        <pt x="447" y="102" on="1"/>
        <pt x="482" y="102" on="1"/>
        <pt x="482" y="-165" on="1"/>
        <pt x="368" y="-165" on="1"/>
        <pt x="368" y="0" on="1"/>
        <pt x="129" y="0" on="1"/>
        <pt x="129" y="-165" on="1"/>
        <pt x="15" y="-165" on="1"/>
      </contour>
      <contour>
        <pt x="233" y="517" on="1"/>
        <pt x="233" y="497" on="0"/>
        <pt x="230" y="434" on="0"/>
        <pt x="224" y="358" on="0"/>
        <pt x="215" y="274" on="0"/>
        <pt x="199" y="195" on="0"/>
        <pt x="178" y="126" on="0"/>
        <pt x="164" y="102" on="1"/>
        <pt x="323" y="102" on="1"/>
        <pt x="323" y="517" on="1"/>
      </contour>
    </TTGlyph>
    <TTGlyph name="afii10022" xMin="63" yMin="0" xMax="460" yMax="619">
      <component glyphName="E" x="0" y="0" flags="0x204"/>
    </TTGlyph>
    <TTGlyph name="afii10023" xMin="63" yMin="0" xMax="460" yMax="812">
      <component glyphName="E" x="0" y="0" flags="0x204"/>
      <component glyphName="dieresis" x="0" y="139" flags="0x4"/>
    </TTGlyph>
    <TTGlyph name="afii10024" xMin="9" yMin="0" xMax="491" yMax="619">
      <contour>
        <pt x="112" y="619" on="1"/>
        <pt x="122" y="581" on="0"/>
        <pt x="142" y="516" on="0"/>
        <pt x="165" y="457" on="0"/>
        <pt x="189" y="400" on="0"/>
        <pt x="202" y="370" on="1"/>
        <pt x="202" y="619" on="1"/>
        <pt x="298" y="619" on="1"/>
        <pt x="298" y="369" on="1"/>
        <pt x="311" y="398" on="0"/>
        <pt x="335" y="455" on="0"/>
        <pt x="358" y="515" on="0"/>
        <pt x="379" y="581" on="0"/>
        <pt x="388" y="619" on="1"/>
        <pt x="491" y="619" on="1"/>
        <pt x="466" y="548" on="0"/>
        <pt x="404" y="406" on="0"/>
        <pt x="359" y="327" on="1"/>
        <pt x="380" y="298" on="0"/>
        <pt x="421" y="224" on="0"/>
        <pt x="456" y="139" on="0"/>
        <pt x="483" y="46" on="0"/>
        <pt x="491" y="0" on="1"/>
        <pt x="388" y="0" on="1"/>
        <pt x="382" y="42" on="0"/>
        <pt x="362" y="125" on="0"/>
        <pt x="337" y="203" on="0"/>
        <pt x="310" y="271" on="0"/>
        <pt x="298" y="298" on="1"/>
        <pt x="298" y="0" on="1"/>
        <pt x="202" y="0" on="1"/>
        <pt x="202" y="298" on="1"/>
        <pt x="189" y="271" on="0"/>
        <pt x="162" y="203" on="0"/>
        <pt x="138" y="125" on="0"/>
        <pt x="118" y="42" on="0"/>
        <pt x="112" y="0" on="1"/>
        <pt x="9" y="0" on="1"/>
        <pt x="17" y="46" on="0"/>
        <pt x="44" y="139" on="0"/>
        <pt x="79" y="224" on="0"/>
        <pt x="120" y="298" on="0"/>
        <pt x="141" y="327" on="1"/>
        <pt x="99" y="408" on="0"/>
        <pt x="34" y="550" on="0"/>
        <pt x="9" y="619" on="1"/>
      </contour>
    </TTGlyph>
    <TTGlyph name="afii10025" xMin="23" yMin="-13" xMax="479" yMax="633">
      <contour>
        <pt x="128" y="371" on="1"/>
        <pt x="207" y="371" on="1"/>
        <pt x="267" y="371" on="0"/>
        <pt x="327" y="414" on="0"/>
        <pt x="327" y="452" on="1"/>
        <pt x="327" y="490" on="0"/>
        <pt x="277" y="525" on="0"/>
        <pt x="226" y="525" on="1"/>
        <pt x="207" y="525" on="0"/>
        <pt x="168" y="517" on="0"/>
        <pt x="132" y="505" on="0"/>
        <pt x="100" y="490" on="0"/>
        <pt x="89" y="483" on="1"/>
        <pt x="45" y="582" on="1"/>
        <pt x="84" y="606" on="0"/>
        <pt x="184" y="633" on="0"/>
        <pt x="235" y="633" on="1"/>
        <pt x="292" y="633" on="0"/>
        <pt x="374" y="604" on="0"/>
        <pt x="427" y="556" on="0"/>
        <pt x="452" y="495" on="0"/>
        <pt x="452" y="464" on="1"/>
        <pt x="452" y="422" on="0"/>
        <pt x="408" y="349" on="0"/>
        <pt x="369" y="330" on="1"/>
        <pt x="420" y="313" on="0"/>
        <pt x="479" y="229" on="0"/>
        <pt x="479" y="177" on="1"/>
        <pt x="479" y="143" on="0"/>
        <pt x="457" y="75" on="0"/>
        <pt x="399" y="21" on="0"/>
        <pt x="300" y="-13" on="0"/>
        <pt x="223" y="-13" on="1"/>
        <pt x="175" y="-13" on="0"/>
        <pt x="68" y="12" on="0"/>
        <pt x="23" y="35" on="1"/>
        <pt x="64" y="134" on="1"/>
        <pt x="76" y="129" on="0"/>
        <pt x="110" y="115" on="0"/>
        <pt x="151" y="103" on="0"/>
        <pt x="198" y="94" on="0"/>
        <pt x="224" y="94" on="1"/>
        <pt x="262" y="94" on="0"/>
        <pt x="312" y="109" on="0"/>
        <pt x="342" y="133" on="0"/>
        <pt x="354" y="165" on="0"/>
        <pt x="354" y="182" on="1"/>
        <pt x="354" y="224" on="0"/>
        <pt x="297" y="270" on="0"/>
        <pt x="226" y="270" on="1"/>
        <pt x="128" y="270" on="1"/>
      </contour>
    </TTGlyph>
    <TTGlyph name="afii10026" xMin="46" yMin="0" xMax="454" yMax="619">
      <contour>
        <pt x="46" y="0" on="1"/>
        <pt x="46" y="619" on="1"/>
        <pt x="157" y="619" on="1"/>
        <pt x="157" y="238" on="1"/>
        <pt x="173" y="273" on="0"/>
        <pt x="218" y="368" on="0"/>
        <pt x="271" y="472" on="0"/>
        <pt x="327" y="575" on="0"/>
        <pt x="355" y="619" on="1"/>
        <pt x="454" y="619" on="1"/>
        <pt x="454" y="0" on="1"/>
        <pt x="343" y="0" on="1"/>
        <pt x="343" y="411" on="1"/>
        <pt x="286" y="308" on="0"/>
        <pt x="189" y="108" on="0"/>
        <pt x="145" y="0" on="1"/>
      </contour>
    </TTGlyph>
    <TTGlyph name="afii10027" xMin="46" yMin="0" xMax="454" yMax="824">
      <component glyphName="afii10026" x="0" y="0" flags="0x204"/>
      <component glyphName="kratka" x="0" y="138" flags="0x4"/>
    </TTGlyph>
    <TTGlyph name="afii10028" xMin="45" yMin="0" xMax="489" yMax="619">
      <component glyphName="K" x="0" y="0" flags="0x204"/>
    </TTGlyph>
    <TTGlyph name="afii10029" xMin="8" yMin="-13" xMax="464" yMax="619">
      <contour>
        <pt x="8" y="93" on="1"/>
        <pt x="34" y="102" on="0"/>
        <pt x="69" y="127" on="0"/>
        <pt x="91" y="160" on="0"/>
        <pt x="106" y="201" on="0"/>
        <pt x="112" y="226" on="1"/>
        <pt x="128" y="292" on="0"/>
        <pt x="138" y="491" on="0"/>
        <pt x="138" y="619" on="1"/>
        <pt x="464" y="619" on="1"/>
        <pt x="464" y="0" on="1"/>
        <pt x="341" y="0" on="1"/>
        <pt x="341" y="517" on="1"/>
        <pt x="251" y="517" on="1"/>
        <pt x="249" y="459" on="0"/>
        <pt x="243" y="337" on="0"/>
        <pt x="228" y="223" on="0"/>
        <pt x="200" y="120" on="0"/>
        <pt x="151" y="41" on="0"/>
        <pt x="77" y="-9" on="0"/>
        <pt x="23" y="-13" on="1"/>
      </contour>
    </TTGlyph>
    <TTGlyph name="afii10030" xMin="23" yMin="0" xMax="477" yMax="619">
      <component glyphName="M" x="0" y="0" flags="0x204"/>
    </TTGlyph>
    <TTGlyph name="afii10031" xMin="45" yMin="0" xMax="455" yMax="619">
      <component glyphName="H" x="0" y="0" flags="0x204"/>
    </TTGlyph>
    <TTGlyph name="afii10032" xMin="27" yMin="-13" xMax="473" yMax="633">
      <component glyphName="O" x="0" y="0" flags="0x204"/>
    </TTGlyph>
    <TTGlyph name="afii10033" xMin="45" yMin="0" xMax="455" yMax="619">
      <contour>
        <pt x="455" y="619" on="1"/>
        <pt x="455" y="0" on="1"/>
        <pt x="332" y="0" on="1"/>
        <pt x="332" y="517" on="1"/>
        <pt x="168" y="517" on="1"/>
        <pt x="168" y="0" on="1"/>
        <pt x="45" y="0" on="1"/>
        <pt x="45" y="619" on="1"/>
      </contour>
    </TTGlyph>
    <TTGlyph name="afii10034" xMin="54" yMin="0" xMax="472" yMax="626">
      <component glyphName="P" x="0" y="0" flags="0x204"/>
    </TTGlyph>
    <TTGlyph name="afii10035" xMin="27" yMin="-13" xMax="469" yMax="633">
      <component glyphName="C" x="0" y="0" flags="0x204"/>
    </TTGlyph>
    <TTGlyph name="afii10036" xMin="25" yMin="0" xMax="475" yMax="619">
      <component glyphName="T" x="0" y="0" flags="0x204"/>
    </TTGlyph>
    <TTGlyph name="afii10037" xMin="5" yMin="-13" xMax="494" yMax="619">
      <contour>
        <pt x="494" y="619" on="1"/>
        <pt x="470" y="544" on="0"/>
        <pt x="431" y="427" on="0"/>
        <pt x="396" y="327" on="0"/>
        <pt x="363" y="237" on="0"/>
        <pt x="344" y="190" on="1"/>
        <pt x="321" y="131" on="0"/>
        <pt x="276" y="53" on="0"/>
        <pt x="227" y="7" on="0"/>
        <pt x="171" y="-13" on="0"/>
        <pt x="138" y="-13" on="1"/>
        <pt x="108" y="-13" on="0"/>
        <pt x="55" y="-1" on="0"/>
        <pt x="26" y="10" on="1"/>
        <pt x="51" y="114" on="1"/>
        <pt x="73" y="106" on="0"/>
        <pt x="109" y="98" on="0"/>
        <pt x="125" y="98" on="1"/>
        <pt x="157" y="98" on="0"/>
        <pt x="201" y="142" on="0"/>
        <pt x="222" y="198" on="1"/>
        <pt x="152" y="315" on="0"/>
        <pt x="40" y="534" on="0"/>
        <pt x="5" y="619" on="1"/>
        <pt x="141" y="619" on="1"/>
        <pt x="170" y="549" on="0"/>
        <pt x="231" y="411" on="0"/>
        <pt x="269" y="333" on="1"/>
        <pt x="283" y="377" on="0"/>
        <pt x="309" y="461" on="0"/>
        <pt x="330" y="535" on="0"/>
        <pt x="346" y="597" on="0"/>
        <pt x="352" y="619" on="1"/>
      </contour>
    </TTGlyph>
    <TTGlyph name="afii10038" xMin="25" yMin="0" xMax="474" yMax="659">
      <contour>
        <pt x="25" y="332" on="1"/>
        <pt x="25" y="567" on="0"/>
        <pt x="202" y="594" on="1"/>
        <pt x="202" y="659" on="1"/>
        <pt x="298" y="659" on="1"/>
        <pt x="298" y="594" on="1"/>
        <pt x="474" y="565" on="0"/>
        <pt x="474" y="332" on="1"/>
        <pt x="474" y="97" on="0"/>
        <pt x="298" y="71" on="1"/>
        <pt x="298" y="0" on="1"/>
        <pt x="202" y="0" on="1"/>
        <pt x="202" y="70" on="1"/>
        <pt x="25" y="97" on="0"/>
      </contour>
      <contour>
        <pt x="123" y="331" on="1"/>
        <pt x="123" y="267" on="0"/>
        <pt x="156" y="174" on="0"/>
        <pt x="202" y="158" on="1"/>
        <pt x="202" y="505" on="1"/>
        <pt x="157" y="488" on="0"/>
        <pt x="123" y="396" on="0"/>
      </contour>
      <contour>
        <pt x="376" y="335" on="1"/>
        <pt x="376" y="399" on="0"/>
        <pt x="343" y="489" on="0"/>
        <pt x="298" y="505" on="1"/>
        <pt x="298" y="159" on="1"/>
        <pt x="342" y="176" on="0"/>
        <pt x="376" y="270" on="0"/>
      </contour>
    </TTGlyph>
    <TTGlyph name="afii10039" xMin="11" yMin="0" xMax="489" yMax="619">
      <component glyphName="X" x="0" y="0" flags="0x204"/>
    </TTGlyph>
    <TTGlyph name="afii10040" xMin="45" yMin="-165" xMax="473" yMax="619">
      <contour>
        <pt x="438" y="102" on="1"/>
        <pt x="473" y="102" on="1"/>
        <pt x="473" y="-165" on="1"/>
        <pt x="359" y="-165" on="1"/>
        <pt x="359" y="0" on="1"/>
        <pt x="45" y="0" on="1"/>
        <pt x="45" y="619" on="1"/>
        <pt x="168" y="619" on="1"/>
        <pt x="168" y="102" on="1"/>
        <pt x="314" y="102" on="1"/>
        <pt x="314" y="619" on="1"/>
        <pt x="438" y="619" on="1"/>
      </contour>
    </TTGlyph>
    <TTGlyph name="afii10041" xMin="45" yMin="0" xMax="455" yMax="619">
      <contour>
        <pt x="168" y="437" on="1"/>
        <pt x="168" y="399" on="0"/>
        <pt x="179" y="351" on="0"/>
        <pt x="203" y="322" on="0"/>
        <pt x="239" y="311" on="0"/>
        <pt x="263" y="311" on="1"/>
        <pt x="276" y="311" on="0"/>
        <pt x="315" y="314" on="0"/>
        <pt x="332" y="318" on="1"/>
        <pt x="332" y="619" on="1"/>
        <pt x="455" y="619" on="1"/>
        <pt x="455" y="0" on="1"/>
        <pt x="332" y="0" on="1"/>
        <pt x="332" y="207" on="1"/>
        <pt x="309" y="204" on="0"/>
        <pt x="265" y="200" on="0"/>
        <pt x="245" y="200" on="1"/>
        <pt x="201" y="200" on="0"/>
        <pt x="128" y="220" on="0"/>
        <pt x="75" y="272" on="0"/>
        <pt x="45" y="361" on="0"/>
        <pt x="45" y="430" on="1"/>
        <pt x="45" y="619" on="1"/>
        <pt x="168" y="619" on="1"/>
      </contour>
    </TTGlyph>
    <TTGlyph name="afii10042" xMin="23" yMin="0" xMax="477" yMax="619">
      <contour>
        <pt x="477" y="0" on="1"/>
        <pt x="23" y="0" on="1"/>
        <pt x="23" y="619" on="1"/>
        <pt x="120" y="619" on="1"/>
        <pt x="120" y="102" on="1"/>
        <pt x="202" y="102" on="1"/>
        <pt x="202" y="384" on="1"/>
        <pt x="298" y="384" on="1"/>
        <pt x="298" y="102" on="1"/>
        <pt x="380" y="102" on="1"/>
        <pt x="380" y="619" on="1"/>
        <pt x="477" y="619" on="1"/>
      </contour>
    </TTGlyph>
    <TTGlyph name="afii10043" xMin="23" yMin="-165" xMax="491" yMax="619">
      <contour>
        <pt x="491" y="102" on="1"/>
        <pt x="491" y="-165" on="1"/>
        <pt x="395" y="-165" on="1"/>
        <pt x="395" y="0" on="1"/>
        <pt x="23" y="0" on="1"/>
        <pt x="23" y="619" on="1"/>
        <pt x="120" y="619" on="1"/>
        <pt x="120" y="102" on="1"/>
        <pt x="191" y="102" on="1"/>
        <pt x="191" y="384" on="1"/>
        <pt x="288" y="384" on="1"/>
        <pt x="288" y="102" on="1"/>
        <pt x="359" y="102" on="1"/>
        <pt x="359" y="619" on="1"/>
        <pt x="455" y="619" on="1"/>
        <pt x="455" y="102" on="1"/>
      </contour>
    </TTGlyph>
    <TTGlyph name="afii10044" xMin="18" yMin="-8" xMax="468" yMax="619">
      <contour>
        <pt x="18" y="517" on="1"/>
        <pt x="18" y="619" on="1"/>
        <pt x="221" y="619" on="1"/>
        <pt x="221" y="405" on="1"/>
        <pt x="250" y="405" on="1"/>
        <pt x="299" y="405" on="0"/>
        <pt x="379" y="382" on="0"/>
        <pt x="436" y="333" on="0"/>
        <pt x="468" y="257" on="0"/>
        <pt x="468" y="203" on="1"/>
        <pt x="468" y="149" on="0"/>
        <pt x="434" y="69" on="0"/>
        <pt x="375" y="17" on="0"/>
        <pt x="295" y="-8" on="0"/>
        <pt x="249" y="-8" on="1"/>
        <pt x="215" y="-8" on="0"/>
        <pt x="136" y="0" on="0"/>
        <pt x="98" y="11" on="1"/>
        <pt x="98" y="517" on="1"/>
      </contour>
      <contour>
        <pt x="221" y="303" on="1"/>
        <pt x="221" y="104" on="1"/>
        <pt x="228" y="103" on="0"/>
        <pt x="242" y="103" on="0"/>
        <pt x="248" y="103" on="1"/>
        <pt x="291" y="103" on="0"/>
        <pt x="341" y="149" on="0"/>
        <pt x="341" y="203" on="1"/>
        <pt x="341" y="258" on="0"/>
        <pt x="290" y="303" on="0"/>
        <pt x="242" y="303" on="1"/>
      </contour>
    </TTGlyph>
    <TTGlyph name="afii10045" xMin="34" yMin="-8" xMax="463" yMax="619">
      <contour>
        <pt x="332" y="203" on="1"/>
        <pt x="332" y="143" on="0"/>
        <pt x="305" y="63" on="0"/>
        <pt x="258" y="13" on="0"/>
        <pt x="194" y="-8" on="0"/>
        <pt x="158" y="-8" on="1"/>
        <pt x="129" y="-8" on="0"/>
        <pt x="68" y="-1" on="0"/>
        <pt x="34" y="9" on="1"/>
        <pt x="34" y="619" on="1"/>
        <pt x="130" y="619" on="1"/>
        <pt x="130" y="413" on="1"/>
        <pt x="143" y="413" on="1"/>
        <pt x="240" y="413" on="0"/>
        <pt x="332" y="311" on="0"/>
      </contour>
      <contour>
        <pt x="130" y="312" on="1"/>
        <pt x="130" y="96" on="1"/>
        <pt x="137" y="95" on="0"/>
        <pt x="156" y="94" on="0"/>
        <pt x="162" y="94" on="1"/>
        <pt x="200" y="94" on="0"/>
        <pt x="234" y="153" on="0"/>
        <pt x="234" y="203" on="1"/>
        <pt x="234" y="262" on="0"/>
        <pt x="189" y="312" on="0"/>
        <pt x="144" y="312" on="1"/>
      </contour>
      <contour>
        <pt x="463" y="0" on="1"/>
        <pt x="367" y="0" on="1"/>
        <pt x="367" y="619" on="1"/>
        <pt x="463" y="619" on="1"/>
      </contour>
    </TTGlyph>
    <TTGlyph name="afii10046" xMin="54" yMin="-8" xMax="469" yMax="619">
      <contour>
        <pt x="469" y="203" on="1"/>
        <pt x="469" y="98" on="0"/>
        <pt x="336" y="-8" on="0"/>
        <pt x="220" y="-8" on="1"/>
        <pt x="183" y="-8" on="0"/>
        <pt x="99" y="0" on="0"/>
        <pt x="54" y="11" on="1"/>
        <pt x="54" y="619" on="1"/>
        <pt x="177" y="619" on="1"/>
        <pt x="177" y="405" on="1"/>
        <pt x="226" y="405" on="1"/>
        <pt x="469" y="405" on="0"/>
      </contour>
      <contour>
        <pt x="177" y="303" on="1"/>
        <pt x="177" y="104" on="1"/>
        <pt x="185" y="103" on="0"/>
        <pt x="211" y="103" on="0"/>
        <pt x="226" y="103" on="1"/>
        <pt x="250" y="103" on="0"/>
        <pt x="292" y="113" on="0"/>
        <pt x="323" y="136" on="0"/>
        <pt x="342" y="172" on="0"/>
        <pt x="342" y="199" on="1"/>
        <pt x="342" y="256" on="0"/>
        <pt x="269" y="303" on="0"/>
        <pt x="213" y="303" on="1"/>
      </contour>
    </TTGlyph>
    <TTGlyph name="afii10047" xMin="42" yMin="-13" xMax="484" yMax="633">
      <contour>
        <pt x="209" y="-13" on="1"/>
        <pt x="151" y="-13" on="0"/>
        <pt x="68" y="14" on="0"/>
        <pt x="42" y="30" on="1"/>
        <pt x="73" y="127" on="1"/>
        <pt x="91" y="116" on="0"/>
        <pt x="155" y="94" on="0"/>
        <pt x="203" y="94" on="1"/>
        <pt x="274" y="94" on="0"/>
        <pt x="352" y="186" on="0"/>
        <pt x="360" y="259" on="1"/>
        <pt x="154" y="259" on="1"/>
        <pt x="154" y="370" on="1"/>
        <pt x="359" y="370" on="1"/>
        <pt x="353" y="418" on="0"/>
        <pt x="324" y="478" on="0"/>
        <pt x="284" y="513" on="0"/>
        <pt x="237" y="526" on="0"/>
        <pt x="212" y="526" on="1"/>
        <pt x="170" y="526" on="0"/>
        <pt x="105" y="505" on="0"/>
        <pt x="82" y="490" on="1"/>
        <pt x="50" y="588" on="1"/>
        <pt x="57" y="592" on="0"/>
        <pt x="85" y="608" on="0"/>
        <pt x="127" y="622" on="0"/>
        <pt x="182" y="633" on="0"/>
        <pt x="214" y="633" on="1"/>
        <pt x="275" y="633" on="0"/>
        <pt x="374" y="592" on="0"/>
        <pt x="445" y="511" on="0"/>
        <pt x="484" y="390" on="0"/>
        <pt x="484" y="310" on="1"/>
        <pt x="484" y="236" on="0"/>
        <pt x="447" y="117" on="0"/>
        <pt x="376" y="33" on="0"/>
        <pt x="274" y="-13" on="0"/>
      </contour>
    </TTGlyph>
    <TTGlyph name="afii10048" xMin="30" yMin="-13" xMax="475" yMax="633">
      <contour>
        <pt x="475" y="310" on="1"/>
        <pt x="475" y="214" on="0"/>
        <pt x="459" y="89" on="0"/>
        <pt x="424" y="16" on="0"/>
        <pt x="370" y="-13" on="0"/>
        <pt x="332" y="-13" on="1"/>
        <pt x="297" y="-13" on="0"/>
        <pt x="245" y="12" on="0"/>
        <pt x="210" y="77" on="0"/>
        <pt x="191" y="187" on="0"/>
        <pt x="189" y="271" on="1"/>
        <pt x="127" y="271" on="1"/>
        <pt x="127" y="0" on="1"/>
        <pt x="30" y="0" on="1"/>
        <pt x="30" y="619" on="1"/>
        <pt x="127" y="619" on="1"/>
        <pt x="127" y="373" on="1"/>
        <pt x="190" y="373" on="1"/>
        <pt x="193" y="449" on="0"/>
        <pt x="213" y="550" on="0"/>
        <pt x="249" y="609" on="0"/>
        <pt x="299" y="633" on="0"/>
        <pt x="332" y="633" on="1"/>
        <pt x="369" y="633" on="0"/>
        <pt x="423" y="604" on="0"/>
        <pt x="458" y="531" on="0"/>
        <pt x="475" y="406" on="0"/>
      </contour>
      <contour>
        <pt x="288" y="310" on="1"/>
        <pt x="288" y="248" on="0"/>
        <pt x="290" y="163" on="0"/>
        <pt x="299" y="111" on="0"/>
        <pt x="316" y="89" on="0"/>
        <pt x="332" y="89" on="1"/>
        <pt x="348" y="89" on="0"/>
        <pt x="366" y="112" on="0"/>
        <pt x="375" y="164" on="0"/>
        <pt x="377" y="248" on="0"/>
        <pt x="377" y="310" on="1"/>
        <pt x="377" y="373" on="0"/>
        <pt x="375" y="457" on="0"/>
        <pt x="366" y="509" on="0"/>
        <pt x="348" y="531" on="0"/>
        <pt x="332" y="531" on="1"/>
        <pt x="316" y="531" on="0"/>
        <pt x="298" y="509" on="0"/>
        <pt x="290" y="457" on="0"/>
        <pt x="288" y="372" on="0"/>
      </contour>
    </TTGlyph>
    <TTGlyph name="afii10049" xMin="20" yMin="0" xMax="455" yMax="626">
      <contour>
        <pt x="295" y="626" on="1"/>
        <pt x="310" y="626" on="0"/>
        <pt x="350" y="624" on="0"/>
        <pt x="394" y="621" on="0"/>
        <pt x="437" y="614" on="0"/>
        <pt x="455" y="610" on="1"/>
        <pt x="455" y="0" on="1"/>
        <pt x="332" y="0" on="1"/>
        <pt x="332" y="228" on="1"/>
        <pt x="268" y="228" on="1"/>
        <pt x="233" y="171" on="0"/>
        <pt x="172" y="60" on="0"/>
        <pt x="149" y="0" on="1"/>
        <pt x="20" y="0" on="1"/>
        <pt x="32" y="31" on="0"/>
        <pt x="65" y="100" on="0"/>
        <pt x="101" y="169" on="0"/>
        <pt x="138" y="232" on="0"/>
        <pt x="155" y="258" on="1"/>
        <pt x="104" y="281" on="0"/>
        <pt x="61" y="369" on="0"/>
        <pt x="61" y="423" on="1"/>
        <pt x="61" y="475" on="0"/>
        <pt x="94" y="552" on="0"/>
        <pt x="156" y="602" on="0"/>
        <pt x="242" y="626" on="0"/>
      </contour>
      <contour>
        <pt x="186" y="424" on="1"/>
        <pt x="186" y="379" on="0"/>
        <pt x="242" y="330" on="0"/>
        <pt x="305" y="330" on="1"/>
        <pt x="332" y="330" on="1"/>
        <pt x="332" y="516" on="1"/>
        <pt x="322" y="518" on="0"/>
        <pt x="302" y="519" on="0"/>
        <pt x="295" y="519" on="1"/>
        <pt x="246" y="519" on="0"/>
        <pt x="186" y="473" on="0"/>
      </contour>
    </TTGlyph>
    <TTGlyph name="afii10050" xMin="36" yMin="0" xMax="475" yMax="737">
      <contour>
        <pt x="125" y="102" on="1"/>
        <pt x="125" y="619" on="1"/>
        <pt x="361" y="619" on="1"/>
        <pt x="361" y="737" on="1"/>
        <pt x="475" y="737" on="1"/>
        <pt x="475" y="517" on="1"/>
        <pt x="248" y="517" on="1"/>
        <pt x="248" y="102" on="1"/>
        <pt x="382" y="102" on="1"/>
        <pt x="382" y="0" on="1"/>
        <pt x="36" y="0" on="1"/>
        <pt x="36" y="102" on="1"/>
      </contour>
    </TTGlyph>
    <TTGlyph name="afii10051" xMin="18" yMin="-6" xMax="487" yMax="619">
      <contour>
        <pt x="391" y="619" on="1"/>
        <pt x="391" y="517" on="1"/>
        <pt x="221" y="517" on="1"/>
        <pt x="221" y="384" on="1"/>
        <pt x="252" y="390" on="0"/>
        <pt x="283" y="390" on="1"/>
        <pt x="328" y="390" on="0"/>
        <pt x="403" y="365" on="0"/>
        <pt x="457" y="316" on="0"/>
        <pt x="487" y="243" on="0"/>
        <pt x="487" y="195" on="1"/>
        <pt x="487" y="148" on="0"/>
        <pt x="469" y="74" on="0"/>
        <pt x="430" y="22" on="0"/>
        <pt x="366" y="-6" on="0"/>
        <pt x="321" y="-6" on="1"/>
        <pt x="298" y="-6" on="0"/>
        <pt x="271" y="-3" on="1"/>
        <pt x="276" y="97" on="1"/>
        <pt x="283" y="96" on="0"/>
        <pt x="292" y="96" on="0"/>
        <pt x="300" y="96" on="1"/>
        <pt x="335" y="96" on="0"/>
        <pt x="372" y="134" on="0"/>
        <pt x="372" y="181" on="1"/>
        <pt x="372" y="237" on="0"/>
        <pt x="315" y="280" on="0"/>
        <pt x="269" y="280" on="1"/>
        <pt x="258" y="280" on="0"/>
        <pt x="234" y="276" on="0"/>
        <pt x="221" y="274" on="1"/>
        <pt x="221" y="0" on="1"/>
        <pt x="98" y="0" on="1"/>
        <pt x="98" y="517" on="1"/>
        <pt x="18" y="517" on="1"/>
        <pt x="18" y="619" on="1"/>
      </contour>
    </TTGlyph>
    <TTGlyph name="afii10052" xMin="36" yMin="0" xMax="484" yMax="830">
      <component glyphName="afii10020" x="0" y="0" flags="0x204"/>
      <component glyphName="acute" x="58" y="139" flags="0x4"/>
    </TTGlyph>
    <TTGlyph name="afii10053" xMin="27" yMin="-13" xMax="469" yMax="633">
      <contour>
        <pt x="296" y="-13" on="1"/>
        <pt x="165" y="-13" on="0"/>
        <pt x="27" y="155" on="0"/>
        <pt x="27" y="310" on="1"/>
        <pt x="27" y="387" on="0"/>
        <pt x="69" y="507" on="0"/>
        <pt x="144" y="590" on="0"/>
        <pt x="247" y="633" on="0"/>
        <pt x="308" y="633" on="1"/>
        <pt x="341" y="633" on="0"/>
        <pt x="394" y="622" on="0"/>
        <pt x="434" y="608" on="0"/>
        <pt x="461" y="592" on="0"/>
        <pt x="468" y="588" on="1"/>
        <pt x="436" y="490" on="1"/>
        <pt x="413" y="505" on="0"/>
        <pt x="348" y="526" on="0"/>
        <pt x="306" y="526" on="1"/>
        <pt x="281" y="526" on="0"/>
        <pt x="231" y="510" on="0"/>
        <pt x="189" y="474" on="0"/>
        <pt x="158" y="414" on="0"/>
        <pt x="152" y="370" on="1"/>
        <pt x="356" y="370" on="1"/>
        <pt x="356" y="259" on="1"/>
        <pt x="151" y="259" on="1"/>
        <pt x="159" y="179" on="0"/>
        <pt x="236" y="94" on="0"/>
        <pt x="308" y="94" on="1"/>
        <pt x="356" y="94" on="0"/>
        <pt x="419" y="116" on="0"/>
        <pt x="438" y="127" on="1"/>
        <pt x="469" y="30" on="1"/>
        <pt x="443" y="14" on="0"/>
        <pt x="354" y="-13" on="0"/>
      </contour>
    </TTGlyph>
    <TTGlyph name="afii10054" xMin="40" yMin="-13" xMax="460" yMax="633">
      <component glyphName="S" x="0" y="0" flags="0x204"/>
    </TTGlyph>
    <TTGlyph name="afii10055" xMin="54" yMin="0" xMax="447" yMax="619">
      <component glyphName="I" x="0" y="0" flags="0x204"/>
    </TTGlyph>
    <TTGlyph name="afii10056" xMin="54" yMin="0" xMax="447" yMax="812">
      <component glyphName="I" x="0" y="0" flags="0x204"/>
      <component glyphName="dieresis" x="0" y="139" flags="0x4"/>
    </TTGlyph>
    <TTGlyph name="afii10057" xMin="42" yMin="-13" xMax="438" yMax="619">
      <component glyphName="J" x="0" y="0" flags="0x204"/>
    </TTGlyph>
    <TTGlyph name="afii10058" xMin="4" yMin="-11" xMax="480" yMax="619">
      <contour>
        <pt x="480" y="194" on="1"/>
        <pt x="480" y="137" on="0"/>
        <pt x="453" y="60" on="0"/>
        <pt x="408" y="13" on="0"/>
        <pt x="348" y="-6" on="0"/>
        <pt x="315" y="-6" on="1"/>
        <pt x="291" y="-6" on="0"/>
        <pt x="248" y="-1" on="0"/>
        <pt x="214" y="9" on="1"/>
        <pt x="214" y="535" on="1"/>
        <pt x="163" y="535" on="1"/>
        <pt x="163" y="363" on="1"/>
        <pt x="163" y="262" on="0"/>
        <pt x="154" y="130" on="0"/>
        <pt x="124" y="47" on="0"/>
        <pt x="66" y="2" on="0"/>
        <pt x="18" y="-11" on="1"/>
        <pt x="4" y="82" on="1"/>
        <pt x="31" y="91" on="0"/>
        <pt x="52" y="118" on="0"/>
        <pt x="59" y="145" on="1"/>
        <pt x="64" y="166" on="0"/>
        <pt x="70" y="225" on="0"/>
        <pt x="74" y="309" on="0"/>
        <pt x="75" y="423" on="0"/>
        <pt x="75" y="500" on="1"/>
        <pt x="75" y="619" on="1"/>
        <pt x="302" y="619" on="1"/>
        <pt x="302" y="399" on="1"/>
        <pt x="321" y="399" on="1"/>
        <pt x="399" y="399" on="0"/>
        <pt x="480" y="302" on="0"/>
      </contour>
      <contour>
        <pt x="302" y="319" on="1"/>
        <pt x="302" y="77" on="1"/>
        <pt x="311" y="74" on="0"/>
        <pt x="320" y="74" on="1"/>
        <pt x="341" y="74" on="0"/>
        <pt x="365" y="97" on="0"/>
        <pt x="378" y="132" on="0"/>
        <pt x="382" y="174" on="0"/>
        <pt x="382" y="194" on="1"/>
        <pt x="382" y="261" on="0"/>
        <pt x="348" y="319" on="0"/>
        <pt x="313" y="319" on="1"/>
      </contour>
    </TTGlyph>
    <TTGlyph name="afii10059" xMin="46" yMin="-6" xMax="480" yMax="619">
      <contour>
        <pt x="480" y="194" on="1"/>
        <pt x="480" y="137" on="0"/>
        <pt x="453" y="60" on="0"/>
        <pt x="408" y="13" on="0"/>
        <pt x="348" y="-6" on="0"/>
        <pt x="315" y="-6" on="1"/>
        <pt x="291" y="-6" on="0"/>
        <pt x="248" y="-1" on="0"/>
        <pt x="214" y="9" on="1"/>
        <pt x="214" y="304" on="1"/>
        <pt x="133" y="304" on="1"/>
        <pt x="133" y="0" on="1"/>
        <pt x="46" y="0" on="1"/>
        <pt x="46" y="619" on="1"/>
        <pt x="133" y="619" on="1"/>
        <pt x="133" y="388" on="1"/>
        <pt x="214" y="388" on="1"/>
        <pt x="214" y="619" on="1"/>
        <pt x="302" y="619" on="1"/>
        <pt x="302" y="399" on="1"/>
        <pt x="321" y="399" on="1"/>
        <pt x="399" y="399" on="0"/>
        <pt x="480" y="302" on="0"/>
      </contour>
      <contour>
        <pt x="302" y="319" on="1"/>
        <pt x="302" y="77" on="1"/>
        <pt x="311" y="74" on="0"/>
        <pt x="320" y="74" on="1"/>
        <pt x="341" y="74" on="0"/>
        <pt x="365" y="97" on="0"/>
        <pt x="378" y="132" on="0"/>
        <pt x="382" y="174" on="0"/>
        <pt x="382" y="194" on="1"/>
        <pt x="382" y="261" on="0"/>
        <pt x="348" y="319" on="0"/>
        <pt x="313" y="319" on="1"/>
      </contour>
    </TTGlyph>
    <TTGlyph name="afii10060" xMin="18" yMin="0" xMax="455" yMax="619">
      <contour>
        <pt x="332" y="173" on="1"/>
        <pt x="332" y="234" on="0"/>
        <pt x="303" y="280" on="0"/>
        <pt x="271" y="280" on="1"/>
        <pt x="262" y="280" on="0"/>
        <pt x="234" y="276" on="0"/>
        <pt x="221" y="272" on="1"/>
        <pt x="221" y="0" on="1"/>
        <pt x="98" y="0" on="1"/>
        <pt x="98" y="517" on="1"/>
        <pt x="18" y="517" on="1"/>
        <pt x="18" y="619" on="1"/>
        <pt x="391" y="619" on="1"/>
        <pt x="391" y="517" on="1"/>
        <pt x="221" y="517" on="1"/>
        <pt x="221" y="383" on="1"/>
        <pt x="239" y="387" on="0"/>
        <pt x="274" y="390" on="0"/>
        <pt x="289" y="390" on="1"/>
        <pt x="326" y="390" on="0"/>
        <pt x="387" y="375" on="0"/>
        <pt x="431" y="330" on="0"/>
        <pt x="455" y="247" on="0"/>
        <pt x="455" y="180" on="1"/>
        <pt x="455" y="0" on="1"/>
        <pt x="332" y="0" on="1"/>
      </contour>
    </TTGlyph>
    <TTGlyph name="afii10061" xMin="45" yMin="0" xMax="489" yMax="830">
      <component glyphName="K" x="0" y="0" flags="0x204"/>
      <component glyphName="acute" x="0" y="139" flags="0x4"/>
    </TTGlyph>
    <TTGlyph name="afii10062" xMin="5" yMin="-13" xMax="494" yMax="825">
      <component glyphName="afii10037" x="0" y="0" flags="0x204"/>
      <component glyphName="kratka" x="0" y="139" flags="0x4"/>
    </TTGlyph>
    <TTGlyph name="afii10065" xMin="44" yMin="-11" xMax="441" yMax="482">
      <component glyphName="a" x="0" y="0" flags="0x204"/>
    </TTGlyph>
    <TTGlyph name="afii10066" xMin="40" yMin="-13" xMax="461" yMax="693">
      <contour>
        <pt x="454" y="583" on="1"/>
        <pt x="410" y="574" on="0"/>
        <pt x="319" y="566" on="0"/>
        <pt x="241" y="541" on="0"/>
        <pt x="186" y="484" on="0"/>
        <pt x="179" y="426" on="1"/>
        <pt x="230" y="454" on="0"/>
        <pt x="280" y="454" on="1"/>
        <pt x="318" y="454" on="0"/>
        <pt x="384" y="425" on="0"/>
        <pt x="433" y="368" on="0"/>
        <pt x="461" y="283" on="0"/>
        <pt x="461" y="227" on="1"/>
        <pt x="461" y="167" on="0"/>
        <pt x="428" y="77" on="0"/>
        <pt x="373" y="17" on="0"/>
        <pt x="298" y="-13" on="0"/>
        <pt x="256" y="-13" on="1"/>
        <pt x="140" y="-13" on="0"/>
        <pt x="40" y="137" on="0"/>
        <pt x="40" y="285" on="1"/>
        <pt x="40" y="382" on="0"/>
        <pt x="76" y="516" on="0"/>
        <pt x="146" y="606" on="0"/>
        <pt x="252" y="658" on="0"/>
        <pt x="321" y="673" on="1"/>
        <pt x="351" y="679" on="0"/>
        <pt x="408" y="686" on="0"/>
        <pt x="439" y="693" on="1"/>
      </contour>
      <contour>
        <pt x="177" y="318" on="1"/>
        <pt x="175" y="307" on="0"/>
        <pt x="174" y="276" on="0"/>
        <pt x="174" y="258" on="1"/>
        <pt x="174" y="232" on="0"/>
        <pt x="180" y="175" on="0"/>
        <pt x="198" y="128" on="0"/>
        <pt x="231" y="98" on="0"/>
        <pt x="257" y="98" on="1"/>
        <pt x="274" y="98" on="0"/>
        <pt x="300" y="119" on="0"/>
        <pt x="318" y="153" on="0"/>
        <pt x="327" y="198" on="0"/>
        <pt x="327" y="221" on="1"/>
        <pt x="327" y="274" on="0"/>
        <pt x="290" y="343" on="0"/>
        <pt x="251" y="343" on="1"/>
        <pt x="217" y="343" on="0"/>
      </contour>
    </TTGlyph>
    <TTGlyph name="afii10066.locl" xMin="31" yMin="-13" xMax="471" yMax="692">
      <contour>
        <pt x="31" y="218" on="1"/>
        <pt x="31" y="240" on="0"/>
        <pt x="42" y="296" on="0"/>
        <pt x="72" y="354" on="0"/>
        <pt x="125" y="409" on="0"/>
        <pt x="168" y="430" on="1"/>
        <pt x="139" y="453" on="0"/>
        <pt x="103" y="510" on="0"/>
        <pt x="103" y="551" on="1"/>
        <pt x="103" y="580" on="0"/>
        <pt x="123" y="631" on="0"/>
        <pt x="164" y="668" on="0"/>
        <pt x="227" y="689" on="0"/>
        <pt x="271" y="689" on="1"/>
        <pt x="297" y="689" on="0"/>
        <pt x="337" y="689" on="0"/>
        <pt x="373" y="690" on="0"/>
        <pt x="406" y="691" on="0"/>
        <pt x="425" y="692" on="1"/>
        <pt x="436" y="601" on="1"/>
        <pt x="401" y="599" on="0"/>
        <pt x="319" y="597" on="0"/>
        <pt x="281" y="597" on="1"/>
        <pt x="272" y="597" on="0"/>
        <pt x="253" y="595" on="0"/>
        <pt x="236" y="587" on="0"/>
        <pt x="226" y="571" on="0"/>
        <pt x="226" y="558" on="1"/>
        <pt x="226" y="546" on="0"/>
        <pt x="237" y="523" on="0"/>
        <pt x="264" y="496" on="0"/>
        <pt x="309" y="462" on="0"/>
        <pt x="342" y="440" on="1"/>
        <pt x="401" y="401" on="0"/>
        <pt x="471" y="298" on="0"/>
        <pt x="471" y="226" on="1"/>
        <pt x="471" y="171" on="0"/>
        <pt x="440" y="82" on="0"/>
        <pt x="383" y="20" on="0"/>
        <pt x="302" y="-13" on="0"/>
        <pt x="253" y="-13" on="1"/>
        <pt x="203" y="-13" on="0"/>
        <pt x="122" y="18" on="0"/>
        <pt x="63" y="77" on="0"/>
        <pt x="31" y="163" on="0"/>
      </contour>
      <contour>
        <pt x="345" y="228" on="1"/>
        <pt x="345" y="254" on="0"/>
        <pt x="328" y="296" on="0"/>
        <pt x="301" y="331" on="0"/>
        <pt x="265" y="361" on="0"/>
        <pt x="246" y="375" on="1"/>
        <pt x="218" y="362" on="0"/>
        <pt x="183" y="326" on="0"/>
        <pt x="164" y="286" on="0"/>
        <pt x="157" y="246" on="0"/>
        <pt x="157" y="228" on="1"/>
        <pt x="157" y="160" on="0"/>
        <pt x="210" y="93" on="0"/>
        <pt x="252" y="93" on="1"/>
        <pt x="294" y="93" on="0"/>
        <pt x="345" y="159" on="0"/>
      </contour>
    </TTGlyph>
    <TTGlyph name="afii10067" xMin="68" yMin="-9" xMax="462" yMax="480">
      <contour>
        <pt x="191" y="96" on="1"/>
        <pt x="201" y="94" on="0"/>
        <pt x="245" y="93" on="0"/>
        <pt x="260" y="93" on="1"/>
        <pt x="298" y="93" on="0"/>
        <pt x="340" y="116" on="0"/>
        <pt x="340" y="146" on="1"/>
        <pt x="340" y="199" on="0"/>
        <pt x="265" y="199" on="1"/>
        <pt x="191" y="199" on="1"/>
      </contour>
      <contour>
        <pt x="263" y="283" on="1"/>
        <pt x="289" y="283" on="0"/>
        <pt x="322" y="303" on="0"/>
        <pt x="322" y="331" on="1"/>
        <pt x="322" y="358" on="0"/>
        <pt x="284" y="379" on="0"/>
        <pt x="253" y="379" on="1"/>
        <pt x="242" y="379" on="0"/>
        <pt x="201" y="376" on="0"/>
        <pt x="191" y="374" on="1"/>
        <pt x="191" y="283" on="1"/>
      </contour>
      <contour>
        <pt x="249" y="-9" on="1"/>
        <pt x="226" y="-9" on="0"/>
        <pt x="176" y="-5" on="0"/>
        <pt x="127" y="1" on="0"/>
        <pt x="84" y="9" on="0"/>
        <pt x="68" y="13" on="1"/>
        <pt x="68" y="463" on="1"/>
        <pt x="84" y="466" on="0"/>
        <pt x="127" y="473" on="0"/>
        <pt x="176" y="477" on="0"/>
        <pt x="226" y="480" on="0"/>
        <pt x="249" y="480" on="1"/>
        <pt x="300" y="480" on="0"/>
        <pt x="374" y="459" on="0"/>
        <pt x="421" y="424" on="0"/>
        <pt x="443" y="377" on="0"/>
        <pt x="443" y="350" on="1"/>
        <pt x="443" y="315" on="0"/>
        <pt x="411" y="267" on="0"/>
        <pt x="388" y="255" on="1"/>
        <pt x="400" y="249" on="0"/>
        <pt x="427" y="230" on="0"/>
        <pt x="448" y="202" on="0"/>
        <pt x="462" y="164" on="0"/>
        <pt x="461" y="139" on="1"/>
        <pt x="459" y="74" on="0"/>
        <pt x="355" y="-9" on="0"/>
      </contour>
    </TTGlyph>
    <TTGlyph name="afii10068" xMin="89" yMin="0" xMax="447" yMax="470">
      <contour>
        <pt x="447" y="368" on="1"/>
        <pt x="213" y="368" on="1"/>
        <pt x="213" y="0" on="1"/>
        <pt x="89" y="0" on="1"/>
        <pt x="89" y="470" on="1"/>
        <pt x="447" y="470" on="1"/>
      </contour>
    </TTGlyph>
    <TTGlyph name="afii10069" xMin="24" yMin="-134" xMax="473" yMax="470">
      <contour>
        <pt x="24" y="102" on="1"/>
        <pt x="61" y="102" on="1"/>
        <pt x="83" y="138" on="0"/>
        <pt x="112" y="230" on="0"/>
        <pt x="127" y="328" on="0"/>
        <pt x="133" y="427" on="0"/>
        <pt x="133" y="470" on="1"/>
        <pt x="438" y="470" on="1"/>
        <pt x="438" y="102" on="1"/>
        <pt x="473" y="102" on="1"/>
        <pt x="473" y="-134" on="1"/>
        <pt x="359" y="-134" on="1"/>
        <pt x="359" y="0" on="1"/>
        <pt x="138" y="0" on="1"/>
        <pt x="138" y="-134" on="1"/>
        <pt x="24" y="-134" on="1"/>
      </contour>
      <contour>
        <pt x="234" y="368" on="1"/>
        <pt x="231" y="337" on="0"/>
        <pt x="223" y="268" on="0"/>
        <pt x="209" y="198" on="0"/>
        <pt x="188" y="131" on="0"/>
        <pt x="173" y="102" on="1"/>
        <pt x="314" y="102" on="1"/>
        <pt x="314" y="368" on="1"/>
      </contour>
    </TTGlyph>
    <TTGlyph name="afii10070" xMin="31" yMin="-11" xMax="465" yMax="482">
      <component glyphName="e" x="0" y="0" flags="0x204"/>
    </TTGlyph>
    <TTGlyph name="afii10071" xMin="31" yMin="-11" xMax="465" yMax="673">
      <component glyphName="e" x="0" y="0" flags="0x204"/>
      <component glyphName="dieresis" x="0" y="0" flags="0x4"/>
    </TTGlyph>
    <TTGlyph name="afii10072" xMin="14" yMin="0" xMax="486" yMax="470">
      <contour>
        <pt x="299" y="273" on="1"/>
        <pt x="308" y="293" on="0"/>
        <pt x="331" y="343" on="0"/>
        <pt x="354" y="395" on="0"/>
        <pt x="375" y="447" on="0"/>
        <pt x="383" y="470" on="1"/>
        <pt x="486" y="470" on="1"/>
        <pt x="474" y="442" on="0"/>
        <pt x="448" y="391" on="0"/>
        <pt x="419" y="338" on="0"/>
        <pt x="386" y="283" on="0"/>
        <pt x="367" y="252" on="1"/>
        <pt x="402" y="199" on="0"/>
        <pt x="462" y="65" on="0"/>
        <pt x="484" y="0" on="1"/>
        <pt x="381" y="0" on="1"/>
        <pt x="374" y="32" on="0"/>
        <pt x="332" y="143" on="0"/>
        <pt x="299" y="221" on="1"/>
        <pt x="299" y="0" on="1"/>
        <pt x="203" y="0" on="1"/>
        <pt x="203" y="224" on="1"/>
        <pt x="169" y="147" on="0"/>
        <pt x="129" y="37" on="0"/>
        <pt x="121" y="0" on="1"/>
        <pt x="18" y="0" on="1"/>
        <pt x="28" y="31" on="0"/>
        <pt x="53" y="98" on="0"/>
        <pt x="83" y="164" on="0"/>
        <pt x="117" y="225" on="0"/>
        <pt x="134" y="251" on="1"/>
        <pt x="114" y="284" on="0"/>
        <pt x="80" y="339" on="0"/>
        <pt x="51" y="391" on="0"/>
        <pt x="26" y="442" on="0"/>
        <pt x="14" y="470" on="1"/>
        <pt x="117" y="470" on="1"/>
        <pt x="125" y="447" on="0"/>
        <pt x="146" y="395" on="0"/>
        <pt x="170" y="343" on="0"/>
        <pt x="193" y="294" on="0"/>
        <pt x="203" y="274" on="1"/>
        <pt x="203" y="470" on="1"/>
        <pt x="299" y="470" on="1"/>
      </contour>
    </TTGlyph>
    <TTGlyph name="afii10073" xMin="51" yMin="-13" xMax="435" yMax="480">
      <contour>
        <pt x="64" y="455" on="1"/>
        <pt x="98" y="466" on="0"/>
        <pt x="176" y="480" on="0"/>
        <pt x="227" y="480" on="1"/>
        <pt x="266" y="480" on="0"/>
        <pt x="336" y="467" on="0"/>
        <pt x="389" y="436" on="0"/>
        <pt x="421" y="384" on="0"/>
        <pt x="421" y="346" on="1"/>
        <pt x="421" y="311" on="0"/>
        <pt x="387" y="263" on="0"/>
        <pt x="358" y="246" on="1"/>
        <pt x="397" y="229" on="0"/>
        <pt x="435" y="174" on="0"/>
        <pt x="435" y="131" on="1"/>
        <pt x="435" y="91" on="0"/>
        <pt x="402" y="36" on="0"/>
        <pt x="347" y="2" on="0"/>
        <pt x="273" y="-13" on="0"/>
        <pt x="232" y="-13" on="1"/>
        <pt x="182" y="-13" on="0"/>
        <pt x="87" y="5" on="0"/>
        <pt x="51" y="20" on="1"/>
        <pt x="74" y="121" on="1"/>
        <pt x="94" y="114" on="0"/>
        <pt x="177" y="95" on="0"/>
        <pt x="230" y="95" on="1"/>
        <pt x="274" y="95" on="0"/>
        <pt x="319" y="120" on="0"/>
        <pt x="319" y="141" on="1"/>
        <pt x="319" y="156" on="0"/>
        <pt x="305" y="175" on="0"/>
        <pt x="282" y="186" on="0"/>
        <pt x="253" y="190" on="0"/>
        <pt x="238" y="190" on="1"/>
        <pt x="132" y="190" on="1"/>
        <pt x="132" y="283" on="1"/>
        <pt x="238" y="283" on="1"/>
        <pt x="276" y="283" on="0"/>
        <pt x="305" y="310" on="0"/>
        <pt x="305" y="327" on="1"/>
        <pt x="305" y="335" on="0"/>
        <pt x="298" y="352" on="0"/>
        <pt x="280" y="365" on="0"/>
        <pt x="250" y="373" on="0"/>
        <pt x="228" y="373" on="1"/>
        <pt x="186" y="373" on="0"/>
        <pt x="111" y="359" on="0"/>
        <pt x="88" y="353" on="1"/>
      </contour>
    </TTGlyph>
    <TTGlyph name="afii10074" xMin="63" yMin="0" xMax="438" yMax="470">
      <contour>
        <pt x="63" y="0" on="1"/>
        <pt x="63" y="470" on="1"/>
        <pt x="173" y="470" on="1"/>
        <pt x="173" y="203" on="1"/>
        <pt x="205" y="267" on="0"/>
        <pt x="283" y="396" on="0"/>
        <pt x="339" y="470" on="1"/>
        <pt x="438" y="470" on="1"/>
        <pt x="438" y="0" on="1"/>
        <pt x="327" y="0" on="1"/>
        <pt x="327" y="288" on="1"/>
        <pt x="304" y="253" on="0"/>
        <pt x="263" y="187" on="0"/>
        <pt x="224" y="119" on="0"/>
        <pt x="183" y="44" on="0"/>
        <pt x="161" y="0" on="1"/>
      </contour>
    </TTGlyph>
    <TTGlyph name="afii10075" xMin="63" yMin="0" xMax="438" yMax="686">
      <component glyphName="afii10074" x="0" y="0" flags="0x204"/>
      <component glyphName="kratka" x="0" y="0" flags="0x4"/>
    </TTGlyph>
    <TTGlyph name="afii10076" xMin="63" yMin="0" xMax="488" yMax="470">
      <contour>
        <pt x="187" y="289" on="1"/>
        <pt x="222" y="331" on="0"/>
        <pt x="295" y="429" on="0"/>
        <pt x="320" y="470" on="1"/>
        <pt x="469" y="470" on="1"/>
        <pt x="451" y="447" on="0"/>
        <pt x="407" y="391" on="0"/>
        <pt x="360" y="333" on="0"/>
        <pt x="313" y="279" on="0"/>
        <pt x="293" y="257" on="1"/>
        <pt x="318" y="233" on="0"/>
        <pt x="375" y="168" on="0"/>
        <pt x="429" y="98" on="0"/>
        <pt x="474" y="28" on="0"/>
        <pt x="488" y="0" on="1"/>
        <pt x="346" y="0" on="1"/>
        <pt x="334" y="25" on="0"/>
        <pt x="296" y="88" on="0"/>
        <pt x="252" y="149" on="0"/>
        <pt x="206" y="204" on="0"/>
        <pt x="187" y="222" on="1"/>
        <pt x="187" y="0" on="1"/>
        <pt x="63" y="0" on="1"/>
        <pt x="63" y="470" on="1"/>
        <pt x="187" y="470" on="1"/>
      </contour>
    </TTGlyph>
    <TTGlyph name="afii10077" xMin="17" yMin="-8" xMax="438" yMax="470">
      <contour>
        <pt x="240" y="368" on="1"/>
        <pt x="238" y="325" on="0"/>
        <pt x="233" y="238" on="0"/>
        <pt x="220" y="156" on="0"/>
        <pt x="194" y="84" on="0"/>
        <pt x="149" y="29" on="0"/>
        <pt x="82" y="-5" on="0"/>
        <pt x="34" y="-8" on="1"/>
        <pt x="17" y="94" on="1"/>
        <pt x="52" y="102" on="0"/>
        <pt x="86" y="136" on="0"/>
        <pt x="97" y="157" on="1"/>
        <pt x="109" y="181" on="0"/>
        <pt x="122" y="244" on="0"/>
        <pt x="129" y="314" on="0"/>
        <pt x="130" y="385" on="0"/>
        <pt x="130" y="416" on="1"/>
        <pt x="130" y="470" on="1"/>
        <pt x="438" y="470" on="1"/>
        <pt x="438" y="0" on="1"/>
        <pt x="315" y="0" on="1"/>
        <pt x="315" y="368" on="1"/>
      </contour>
    </TTGlyph>
    <TTGlyph name="afii10078" xMin="24" yMin="0" xMax="478" yMax="470">
      <contour>
        <pt x="162" y="470" on="1"/>
        <pt x="169" y="449" on="0"/>
        <pt x="190" y="389" on="0"/>
        <pt x="214" y="320" on="0"/>
        <pt x="239" y="248" on="0"/>
        <pt x="250" y="214" on="1"/>
        <pt x="261" y="247" on="0"/>
        <pt x="286" y="319" on="0"/>
        <pt x="310" y="388" on="0"/>
        <pt x="331" y="449" on="0"/>
        <pt x="339" y="470" on="1"/>
        <pt x="441" y="470" on="1"/>
        <pt x="448" y="408" on="0"/>
        <pt x="461" y="291" on="0"/>
        <pt x="470" y="176" on="0"/>
        <pt x="476" y="61" on="0"/>
        <pt x="478" y="0" on="1"/>
        <pt x="365" y="0" on="1"/>
        <pt x="371" y="332" on="1"/>
        <pt x="296" y="97" on="1"/>
        <pt x="206" y="97" on="1"/>
        <pt x="132" y="332" on="1"/>
        <pt x="137" y="0" on="1"/>
        <pt x="24" y="0" on="1"/>
        <pt x="27" y="58" on="0"/>
        <pt x="34" y="182" on="0"/>
        <pt x="42" y="305" on="0"/>
        <pt x="53" y="421" on="0"/>
        <pt x="60" y="470" on="1"/>
      </contour>
    </TTGlyph>
    <TTGlyph name="afii10079" xMin="59" yMin="0" xMax="440" yMax="470">
      <contour>
        <pt x="440" y="0" on="1"/>
        <pt x="317" y="0" on="1"/>
        <pt x="317" y="186" on="1"/>
        <pt x="182" y="186" on="1"/>
        <pt x="182" y="0" on="1"/>
        <pt x="59" y="0" on="1"/>
        <pt x="59" y="470" on="1"/>
        <pt x="182" y="470" on="1"/>
        <pt x="182" y="288" on="1"/>
        <pt x="317" y="288" on="1"/>
        <pt x="317" y="470" on="1"/>
        <pt x="440" y="470" on="1"/>
      </contour>
    </TTGlyph>
    <TTGlyph name="afii10080" xMin="29" yMin="-13" xMax="472" yMax="482">
      <component glyphName="o" x="0" y="0" flags="0x204"/>
    </TTGlyph>
    <TTGlyph name="afii10081" xMin="63" yMin="0" xMax="438" yMax="470">
      <contour>
        <pt x="438" y="470" on="1"/>
        <pt x="438" y="0" on="1"/>
        <pt x="314" y="0" on="1"/>
        <pt x="314" y="368" on="1"/>
        <pt x="186" y="368" on="1"/>
        <pt x="186" y="0" on="1"/>
        <pt x="63" y="0" on="1"/>
        <pt x="63" y="470" on="1"/>
      </contour>
    </TTGlyph>
    <TTGlyph name="afii10082" xMin="63" yMin="-165" xMax="469" yMax="480">
      <component glyphName="p" x="0" y="0" flags="0x204"/>
    </TTGlyph>
    <TTGlyph name="afii10083" xMin="44" yMin="-11" xMax="466" yMax="482">
      <component glyphName="c" x="0" y="0" flags="0x204"/>
    </TTGlyph>
    <TTGlyph name="afii10084" xMin="38" yMin="0" xMax="463" yMax="470">
      <contour>
        <pt x="463" y="368" on="1"/>
        <pt x="312" y="368" on="1"/>
        <pt x="312" y="0" on="1"/>
        <pt x="188" y="0" on="1"/>
        <pt x="188" y="368" on="1"/>
        <pt x="38" y="368" on="1"/>
        <pt x="38" y="470" on="1"/>
        <pt x="463" y="470" on="1"/>
      </contour>
    </TTGlyph>
    <TTGlyph name="afii10085" xMin="20" yMin="-168" xMax="472" yMax="470">
      <component glyphName="y" x="0" y="0" flags="0x204"/>
    </TTGlyph>
    <TTGlyph name="afii10086" xMin="24" yMin="-165" xMax="475" yMax="693">
      <contour>
        <pt x="201" y="376" on="1"/>
        <pt x="159" y="371" on="0"/>
        <pt x="122" y="292" on="0"/>
        <pt x="122" y="231" on="1"/>
        <pt x="122" y="170" on="0"/>
        <pt x="158" y="94" on="0"/>
        <pt x="201" y="88" on="1"/>
      </contour>
      <contour>
        <pt x="297" y="88" on="1"/>
        <pt x="333" y="89" on="0"/>
        <pt x="377" y="163" on="0"/>
        <pt x="377" y="232" on="1"/>
        <pt x="377" y="302" on="0"/>
        <pt x="333" y="374" on="0"/>
        <pt x="297" y="376" on="1"/>
      </contour>
      <contour>
        <pt x="297" y="-165" on="1"/>
        <pt x="201" y="-165" on="1"/>
        <pt x="201" y="-2" on="1"/>
        <pt x="154" y="2" on="0"/>
        <pt x="87" y="41" on="0"/>
        <pt x="44" y="102" on="0"/>
        <pt x="24" y="185" on="0"/>
        <pt x="24" y="233" on="1"/>
        <pt x="24" y="278" on="0"/>
        <pt x="43" y="356" on="0"/>
        <pt x="85" y="418" on="0"/>
        <pt x="152" y="458" on="0"/>
        <pt x="201" y="465" on="1"/>
        <pt x="201" y="672" on="1"/>
        <pt x="297" y="693" on="1"/>
        <pt x="297" y="465" on="1"/>
        <pt x="335" y="460" on="0"/>
        <pt x="400" y="429" on="0"/>
        <pt x="448" y="372" on="0"/>
        <pt x="475" y="288" on="0"/>
        <pt x="475" y="232" on="1"/>
        <pt x="475" y="175" on="0"/>
        <pt x="449" y="91" on="0"/>
        <pt x="401" y="34" on="0"/>
        <pt x="336" y="2" on="0"/>
        <pt x="297" y="-2" on="1"/>
      </contour>
    </TTGlyph>
    <TTGlyph name="afii10087" xMin="20" yMin="0" xMax="481" yMax="470">
      <component glyphName="x" x="0" y="0" flags="0x204"/>
    </TTGlyph>
    <TTGlyph name="afii10088" xMin="63" yMin="-134" xMax="455" yMax="470">
      <contour>
        <pt x="420" y="102" on="1"/>
        <pt x="455" y="102" on="1"/>
        <pt x="455" y="-134" on="1"/>
        <pt x="341" y="-134" on="1"/>
        <pt x="341" y="0" on="1"/>
        <pt x="63" y="0" on="1"/>
        <pt x="63" y="470" on="1"/>
        <pt x="186" y="470" on="1"/>
        <pt x="186" y="102" on="1"/>
        <pt x="296" y="102" on="1"/>
        <pt x="296" y="470" on="1"/>
        <pt x="420" y="470" on="1"/>
      </contour>
    </TTGlyph>
    <TTGlyph name="afii10089" xMin="43" yMin="0" xMax="438" yMax="470">
      <contour>
        <pt x="166" y="470" on="1"/>
        <pt x="166" y="321" on="1"/>
        <pt x="166" y="302" on="0"/>
        <pt x="182" y="278" on="0"/>
        <pt x="209" y="264" on="0"/>
        <pt x="242" y="259" on="0"/>
        <pt x="259" y="259" on="1"/>
        <pt x="275" y="259" on="0"/>
        <pt x="303" y="261" on="0"/>
        <pt x="314" y="263" on="1"/>
        <pt x="314" y="470" on="1"/>
        <pt x="438" y="470" on="1"/>
        <pt x="438" y="0" on="1"/>
        <pt x="314" y="0" on="1"/>
        <pt x="314" y="154" on="1"/>
        <pt x="272" y="148" on="0"/>
        <pt x="233" y="148" on="1"/>
        <pt x="194" y="148" on="0"/>
        <pt x="125" y="163" on="0"/>
        <pt x="73" y="202" on="0"/>
        <pt x="43" y="267" on="0"/>
        <pt x="43" y="317" on="1"/>
        <pt x="43" y="470" on="1"/>
      </contour>
    </TTGlyph>
    <TTGlyph name="afii10090" xMin="32" yMin="0" xMax="468" yMax="470">
      <contour>
        <pt x="468" y="0" on="1"/>
        <pt x="32" y="0" on="1"/>
        <pt x="32" y="470" on="1"/>
        <pt x="129" y="470" on="1"/>
        <pt x="129" y="102" on="1"/>
        <pt x="202" y="102" on="1"/>
        <pt x="202" y="357" on="1"/>
        <pt x="298" y="357" on="1"/>
        <pt x="298" y="102" on="1"/>
        <pt x="371" y="102" on="1"/>
        <pt x="371" y="470" on="1"/>
        <pt x="468" y="470" on="1"/>
      </contour>
    </TTGlyph>
    <TTGlyph name="afii10091" xMin="32" yMin="-134" xMax="482" yMax="470">
      <contour>
        <pt x="386" y="0" on="1"/>
        <pt x="32" y="0" on="1"/>
        <pt x="32" y="470" on="1"/>
        <pt x="129" y="470" on="1"/>
        <pt x="129" y="102" on="1"/>
        <pt x="191" y="102" on="1"/>
        <pt x="191" y="357" on="1"/>
        <pt x="288" y="357" on="1"/>
        <pt x="288" y="102" on="1"/>
        <pt x="350" y="102" on="1"/>
        <pt x="350" y="470" on="1"/>
        <pt x="447" y="470" on="1"/>
        <pt x="447" y="102" on="1"/>
        <pt x="482" y="102" on="1"/>
        <pt x="482" y="-134" on="1"/>
        <pt x="386" y="-134" on="1"/>
      </contour>
    </TTGlyph>
    <TTGlyph name="afii10092" xMin="18" yMin="-10" xMax="468" yMax="470">
      <contour>
        <pt x="345" y="152" on="1"/>
        <pt x="345" y="185" on="0"/>
        <pt x="302" y="209" on="0"/>
        <pt x="266" y="209" on="1"/>
        <pt x="254" y="209" on="0"/>
        <pt x="231" y="206" on="0"/>
        <pt x="221" y="204" on="1"/>
        <pt x="221" y="96" on="1"/>
        <pt x="233" y="94" on="0"/>
        <pt x="259" y="92" on="0"/>
        <pt x="271" y="92" on="1"/>
        <pt x="300" y="92" on="0"/>
        <pt x="345" y="116" on="0"/>
      </contour>
      <contour>
        <pt x="221" y="303" on="1"/>
        <pt x="261" y="311" on="0"/>
        <pt x="294" y="311" on="1"/>
        <pt x="331" y="311" on="0"/>
        <pt x="395" y="292" on="0"/>
        <pt x="441" y="251" on="0"/>
        <pt x="468" y="190" on="0"/>
        <pt x="468" y="148" on="1"/>
        <pt x="468" y="101" on="0"/>
        <pt x="437" y="40" on="0"/>
        <pt x="385" y="4" on="0"/>
        <pt x="313" y="-10" on="0"/>
        <pt x="273" y="-10" on="1"/>
        <pt x="218" y="-10" on="0"/>
        <pt x="132" y="5" on="0"/>
        <pt x="98" y="13" on="1"/>
        <pt x="98" y="368" on="1"/>
        <pt x="18" y="368" on="1"/>
        <pt x="18" y="470" on="1"/>
        <pt x="221" y="470" on="1"/>
      </contour>
    </TTGlyph>
    <TTGlyph name="afii10093" xMin="34" yMin="-10" xMax="463" yMax="470">
      <contour>
        <pt x="130" y="303" on="1"/>
        <pt x="150" y="307" on="0"/>
        <pt x="180" y="311" on="0"/>
        <pt x="196" y="311" on="1"/>
        <pt x="221" y="311" on="0"/>
        <pt x="268" y="292" on="0"/>
        <pt x="305" y="253" on="0"/>
        <pt x="327" y="191" on="0"/>
        <pt x="327" y="148" on="1"/>
        <pt x="327" y="100" on="0"/>
        <pt x="300" y="39" on="0"/>
        <pt x="255" y="3" on="0"/>
        <pt x="196" y="-10" on="0"/>
        <pt x="165" y="-10" on="1"/>
        <pt x="129" y="-10" on="0"/>
        <pt x="67" y="1" on="0"/>
        <pt x="34" y="9" on="1"/>
        <pt x="34" y="470" on="1"/>
        <pt x="130" y="470" on="1"/>
      </contour>
      <contour>
        <pt x="367" y="470" on="1"/>
        <pt x="463" y="470" on="1"/>
        <pt x="463" y="0" on="1"/>
        <pt x="367" y="0" on="1"/>
      </contour>
      <contour>
        <pt x="229" y="152" on="1"/>
        <pt x="229" y="183" on="0"/>
        <pt x="202" y="218" on="0"/>
        <pt x="170" y="218" on="1"/>
        <pt x="159" y="218" on="0"/>
        <pt x="141" y="215" on="0"/>
        <pt x="130" y="213" on="1"/>
        <pt x="130" y="87" on="1"/>
        <pt x="142" y="85" on="0"/>
        <pt x="159" y="83" on="0"/>
        <pt x="170" y="83" on="1"/>
        <pt x="203" y="83" on="0"/>
        <pt x="229" y="117" on="0"/>
      </contour>
    </TTGlyph>
    <TTGlyph name="afii10094" xMin="54" yMin="-10" xMax="469" yMax="470">
      <contour>
        <pt x="265" y="92" on="1"/>
        <pt x="303" y="92" on="0"/>
        <pt x="346" y="121" on="0"/>
        <pt x="346" y="152" on="1"/>
        <pt x="346" y="170" on="0"/>
        <pt x="329" y="192" on="0"/>
        <pt x="300" y="205" on="0"/>
        <pt x="264" y="210" on="0"/>
        <pt x="246" y="210" on="1"/>
        <pt x="226" y="210" on="0"/>
        <pt x="189" y="206" on="0"/>
        <pt x="177" y="204" on="1"/>
        <pt x="177" y="96" on="1"/>
        <pt x="182" y="95" on="0"/>
        <pt x="203" y="94" on="0"/>
        <pt x="229" y="93" on="0"/>
        <pt x="255" y="92" on="0"/>
      </contour>
      <contour>
        <pt x="177" y="303" on="1"/>
        <pt x="199" y="307" on="0"/>
        <pt x="246" y="312" on="0"/>
        <pt x="269" y="312" on="1"/>
        <pt x="308" y="312" on="0"/>
        <pt x="380" y="295" on="0"/>
        <pt x="436" y="257" on="0"/>
        <pt x="469" y="194" on="0"/>
        <pt x="469" y="148" on="1"/>
        <pt x="469" y="65" on="0"/>
        <pt x="361" y="-10" on="0"/>
        <pt x="271" y="-10" on="1"/>
        <pt x="211" y="-10" on="0"/>
        <pt x="105" y="2" on="0"/>
        <pt x="54" y="14" on="1"/>
        <pt x="54" y="470" on="1"/>
        <pt x="177" y="470" on="1"/>
      </contour>
    </TTGlyph>
    <TTGlyph name="afii10095" xMin="24" yMin="-11" xMax="459" yMax="482">
      <contour>
        <pt x="459" y="238" on="1"/>
        <pt x="459" y="178" on="0"/>
        <pt x="421" y="85" on="0"/>
        <pt x="354" y="22" on="0"/>
        <pt x="260" y="-11" on="0"/>
        <pt x="204" y="-11" on="1"/>
        <pt x="156" y="-11" on="0"/>
        <pt x="72" y="2" on="0"/>
        <pt x="24" y="19" on="1"/>
        <pt x="49" y="120" on="1"/>
        <pt x="78" y="111" on="0"/>
        <pt x="144" y="96" on="0"/>
        <pt x="179" y="96" on="1"/>
        <pt x="204" y="96" on="0"/>
        <pt x="254" y="106" on="0"/>
        <pt x="297" y="129" on="0"/>
        <pt x="327" y="164" on="0"/>
        <pt x="333" y="190" on="1"/>
        <pt x="138" y="190" on="1"/>
        <pt x="138" y="283" on="1"/>
        <pt x="332" y="283" on="1"/>
        <pt x="318" y="333" on="0"/>
        <pt x="236" y="375" on="0"/>
        <pt x="185" y="375" on="1"/>
        <pt x="148" y="375" on="0"/>
        <pt x="94" y="366" on="0"/>
        <pt x="63" y="355" on="1"/>
        <pt x="37" y="455" on="1"/>
        <pt x="81" y="469" on="0"/>
        <pt x="163" y="482" on="0"/>
        <pt x="201" y="482" on="1"/>
        <pt x="258" y="482" on="0"/>
        <pt x="353" y="449" on="0"/>
        <pt x="421" y="386" on="0"/>
        <pt x="459" y="295" on="0"/>
      </contour>
    </TTGlyph>
    <TTGlyph name="afii10096" xMin="23" yMin="-11" xMax="482" yMax="482">
      <contour>
        <pt x="23" y="470" on="1"/>
        <pt x="120" y="470" on="1"/>
        <pt x="120" y="289" on="1"/>
        <pt x="179" y="289" on="1"/>
        <pt x="186" y="380" on="0"/>
        <pt x="256" y="482" on="0"/>
        <pt x="331" y="482" on="1"/>
        <pt x="373" y="482" on="0"/>
        <pt x="431" y="448" on="0"/>
        <pt x="466" y="385" on="0"/>
        <pt x="482" y="294" on="0"/>
        <pt x="482" y="236" on="1"/>
        <pt x="482" y="180" on="0"/>
        <pt x="466" y="89" on="0"/>
        <pt x="429" y="25" on="0"/>
        <pt x="371" y="-11" on="0"/>
        <pt x="329" y="-11" on="1"/>
        <pt x="255" y="-11" on="0"/>
        <pt x="186" y="97" on="0"/>
        <pt x="179" y="188" on="1"/>
        <pt x="120" y="188" on="1"/>
        <pt x="120" y="0" on="1"/>
        <pt x="23" y="0" on="1"/>
      </contour>
      <contour>
        <pt x="330" y="91" on="1"/>
        <pt x="341" y="91" on="0"/>
        <pt x="361" y="102" on="0"/>
        <pt x="376" y="134" on="0"/>
        <pt x="384" y="191" on="0"/>
        <pt x="384" y="236" on="1"/>
        <pt x="384" y="281" on="0"/>
        <pt x="376" y="338" on="0"/>
        <pt x="361" y="369" on="0"/>
        <pt x="341" y="380" on="0"/>
        <pt x="330" y="380" on="1"/>
        <pt x="319" y="380" on="0"/>
        <pt x="299" y="369" on="0"/>
        <pt x="284" y="337" on="0"/>
        <pt x="276" y="281" on="0"/>
        <pt x="276" y="236" on="1"/>
        <pt x="276" y="190" on="0"/>
        <pt x="284" y="133" on="0"/>
        <pt x="299" y="102" on="0"/>
        <pt x="319" y="91" on="0"/>
      </contour>
    </TTGlyph>
    <TTGlyph name="afii10097" xMin="20" yMin="0" xMax="455" yMax="480">
      <contour>
        <pt x="241" y="167" on="1"/>
        <pt x="213" y="125" on="0"/>
        <pt x="167" y="45" on="0"/>
        <pt x="147" y="0" on="1"/>
        <pt x="20" y="0" on="1"/>
        <pt x="46" y="58" on="0"/>
        <pt x="103" y="160" on="0"/>
        <pt x="128" y="195" on="1"/>
        <pt x="84" y="217" on="0"/>
        <pt x="51" y="276" on="0"/>
        <pt x="51" y="317" on="1"/>
        <pt x="51" y="395" on="0"/>
        <pt x="160" y="480" on="0"/>
        <pt x="264" y="480" on="1"/>
        <pt x="288" y="480" on="0"/>
        <pt x="340" y="476" on="0"/>
        <pt x="391" y="469" on="0"/>
        <pt x="438" y="460" on="0"/>
        <pt x="455" y="456" on="1"/>
        <pt x="455" y="0" on="1"/>
        <pt x="332" y="0" on="1"/>
        <pt x="332" y="167" on="1"/>
      </contour>
      <contour>
        <pt x="332" y="374" on="1"/>
        <pt x="322" y="375" on="0"/>
        <pt x="282" y="378" on="0"/>
        <pt x="268" y="378" on="1"/>
        <pt x="214" y="378" on="0"/>
        <pt x="174" y="345" on="0"/>
        <pt x="174" y="319" on="1"/>
        <pt x="174" y="302" on="0"/>
        <pt x="190" y="280" on="0"/>
        <pt x="215" y="266" on="0"/>
        <pt x="247" y="260" on="0"/>
        <pt x="263" y="260" on="1"/>
        <pt x="332" y="260" on="1"/>
      </contour>
    </TTGlyph>
    <TTGlyph name="afii10098" xMin="89" yMin="0" xMax="447" yMax="580">
      <contour>
        <pt x="447" y="368" on="1"/>
        <pt x="213" y="368" on="1"/>
        <pt x="213" y="0" on="1"/>
        <pt x="89" y="0" on="1"/>
        <pt x="89" y="470" on="1"/>
        <pt x="332" y="470" on="1"/>
        <pt x="332" y="580" on="1"/>
        <pt x="447" y="580" on="1"/>
      </contour>
    </TTGlyph>
    <TTGlyph name="afii10099" xMin="25" yMin="-165" xMax="441" yMax="694">
      <contour>
        <pt x="80" y="0" on="1"/>
        <pt x="80" y="532" on="1"/>
        <pt x="25" y="532" on="1"/>
        <pt x="25" y="615" on="1"/>
        <pt x="80" y="615" on="1"/>
        <pt x="80" y="673" on="1"/>
        <pt x="204" y="694" on="1"/>
        <pt x="204" y="615" on="1"/>
        <pt x="331" y="615" on="1"/>
        <pt x="331" y="532" on="1"/>
        <pt x="204" y="532" on="1"/>
        <pt x="204" y="466" on="1"/>
        <pt x="218" y="471" on="0"/>
        <pt x="256" y="480" on="0"/>
        <pt x="271" y="480" on="1"/>
        <pt x="320" y="480" on="0"/>
        <pt x="385" y="449" on="0"/>
        <pt x="424" y="392" on="0"/>
        <pt x="441" y="313" on="0"/>
        <pt x="441" y="265" on="1"/>
        <pt x="441" y="17" on="1"/>
        <pt x="441" y="-76" on="0"/>
        <pt x="351" y="-165" on="0"/>
        <pt x="265" y="-165" on="1"/>
        <pt x="253" y="-165" on="0"/>
        <pt x="204" y="-161" on="0"/>
        <pt x="182" y="-153" on="1"/>
        <pt x="200" y="-50" on="1"/>
        <pt x="214" y="-54" on="0"/>
        <pt x="236" y="-58" on="0"/>
        <pt x="253" y="-58" on="1"/>
        <pt x="290" y="-58" on="0"/>
        <pt x="318" y="-15" on="0"/>
        <pt x="318" y="21" on="1"/>
        <pt x="318" y="249" on="1"/>
        <pt x="318" y="315" on="0"/>
        <pt x="292" y="373" on="0"/>
        <pt x="257" y="373" on="1"/>
        <pt x="243" y="373" on="0"/>
        <pt x="212" y="365" on="0"/>
        <pt x="204" y="362" on="1"/>
        <pt x="204" y="0" on="1"/>
      </contour>
    </TTGlyph>
    <TTGlyph name="afii10100" xMin="89" yMin="0" xMax="447" yMax="691">
      <component glyphName="afii10068" x="0" y="0" flags="0x204"/>
      <component glyphName="acute" x="29" y="0" flags="0x4"/>
    </TTGlyph>
    <TTGlyph name="afii10101" xMin="39" yMin="-11" xMax="471" yMax="482">
      <contour>
        <pt x="39" y="235" on="1"/>
        <pt x="39" y="286" on="0"/>
        <pt x="71" y="376" on="0"/>
        <pt x="139" y="443" on="0"/>
        <pt x="243" y="482" on="0"/>
        <pt x="314" y="482" on="1"/>
        <pt x="357" y="482" on="0"/>
        <pt x="427" y="470" on="0"/>
        <pt x="463" y="456" on="1"/>
        <pt x="436" y="357" on="1"/>
        <pt x="416" y="364" on="0"/>
        <pt x="365" y="375" on="0"/>
        <pt x="325" y="375" on="1"/>
        <pt x="253" y="375" on="0"/>
        <pt x="177" y="325" on="0"/>
        <pt x="166" y="283" on="1"/>
        <pt x="361" y="283" on="1"/>
        <pt x="361" y="190" on="1"/>
        <pt x="165" y="190" on="1"/>
        <pt x="176" y="145" on="0"/>
        <pt x="257" y="96" on="0"/>
        <pt x="330" y="96" on="1"/>
        <pt x="361" y="96" on="0"/>
        <pt x="429" y="105" on="0"/>
        <pt x="455" y="113" on="1"/>
        <pt x="471" y="12" on="1"/>
        <pt x="445" y="2" on="0"/>
        <pt x="368" y="-11" on="0"/>
        <pt x="317" y="-11" on="1"/>
        <pt x="243" y="-11" on="0"/>
        <pt x="138" y="27" on="0"/>
        <pt x="71" y="93" on="0"/>
        <pt x="39" y="183" on="0"/>
      </contour>
    </TTGlyph>
    <TTGlyph name="afii10102" xMin="54" yMin="-11" xMax="442" yMax="482">
      <component glyphName="s" x="0" y="0" flags="0x204"/>
    </TTGlyph>
    <TTGlyph name="afii10103" xMin="36" yMin="-11" xMax="467" yMax="684">
      <component glyphName="i" x="0" y="0" flags="0x204"/>
    </TTGlyph>
    <TTGlyph name="afii10104" xMin="36" yMin="-11" xMax="467" yMax="673">
      <component glyphName="dotlessi" x="0" y="0" flags="0x204"/>
      <component glyphName="dieresis" x="-17" y="0" flags="0x4"/>
    </TTGlyph>
    <TTGlyph name="afii10105" xMin="49" yMin="-170" xMax="400" yMax="684">
      <component glyphName="j" x="0" y="0" flags="0x204"/>
    </TTGlyph>
    <TTGlyph name="afii10106" xMin="4" yMin="-11" xMax="481" yMax="470">
      <contour>
        <pt x="302" y="294" on="1"/>
        <pt x="316" y="297" on="0"/>
        <pt x="343" y="301" on="0"/>
        <pt x="355" y="301" on="1"/>
        <pt x="418" y="301" on="0"/>
        <pt x="481" y="217" on="0"/>
        <pt x="481" y="144" on="1"/>
        <pt x="481" y="100" on="0"/>
        <pt x="456" y="41" on="0"/>
        <pt x="414" y="5" on="0"/>
        <pt x="358" y="-11" on="0"/>
        <pt x="327" y="-11" on="1"/>
        <pt x="299" y="-11" on="0"/>
        <pt x="241" y="0" on="0"/>
        <pt x="214" y="9" on="1"/>
        <pt x="214" y="386" on="1"/>
        <pt x="163" y="386" on="1"/>
        <pt x="163" y="362" on="1"/>
        <pt x="163" y="283" on="0"/>
        <pt x="162" y="151" on="0"/>
        <pt x="138" y="53" on="0"/>
        <pt x="78" y="-5" on="0"/>
        <pt x="18" y="-10" on="1"/>
        <pt x="4" y="87" on="1"/>
        <pt x="29" y="93" on="0"/>
        <pt x="58" y="118" on="0"/>
        <pt x="72" y="163" on="0"/>
        <pt x="75" y="230" on="0"/>
        <pt x="75" y="277" on="1"/>
        <pt x="75" y="470" on="1"/>
        <pt x="302" y="470" on="1"/>
      </contour>
      <contour>
        <pt x="383" y="147" on="1"/>
        <pt x="383" y="182" on="0"/>
        <pt x="357" y="221" on="0"/>
        <pt x="330" y="221" on="1"/>
        <pt x="323" y="221" on="0"/>
        <pt x="310" y="219" on="0"/>
        <pt x="302" y="216" on="1"/>
        <pt x="302" y="74" on="1"/>
        <pt x="310" y="72" on="0"/>
        <pt x="323" y="71" on="0"/>
        <pt x="329" y="71" on="1"/>
        <pt x="358" y="71" on="0"/>
        <pt x="383" y="109" on="0"/>
      </contour>
    </TTGlyph>
    <TTGlyph name="afii10107" xMin="46" yMin="-11" xMax="481" yMax="470">
      <contour>
        <pt x="302" y="294" on="1"/>
        <pt x="316" y="297" on="0"/>
        <pt x="343" y="301" on="0"/>
        <pt x="355" y="301" on="1"/>
        <pt x="418" y="301" on="0"/>
        <pt x="481" y="217" on="0"/>
        <pt x="481" y="144" on="1"/>
        <pt x="481" y="100" on="0"/>
        <pt x="456" y="41" on="0"/>
        <pt x="414" y="5" on="0"/>
        <pt x="358" y="-11" on="0"/>
        <pt x="327" y="-11" on="1"/>
        <pt x="299" y="-11" on="0"/>
        <pt x="241" y="0" on="0"/>
        <pt x="214" y="9" on="1"/>
        <pt x="214" y="200" on="1"/>
        <pt x="133" y="200" on="1"/>
        <pt x="133" y="0" on="1"/>
        <pt x="46" y="0" on="1"/>
        <pt x="46" y="470" on="1"/>
        <pt x="133" y="470" on="1"/>
        <pt x="133" y="284" on="1"/>
        <pt x="214" y="284" on="1"/>
        <pt x="214" y="470" on="1"/>
        <pt x="302" y="470" on="1"/>
      </contour>
      <contour>
        <pt x="383" y="147" on="1"/>
        <pt x="383" y="182" on="0"/>
        <pt x="357" y="221" on="0"/>
        <pt x="330" y="221" on="1"/>
        <pt x="323" y="221" on="0"/>
        <pt x="310" y="219" on="0"/>
        <pt x="302" y="216" on="1"/>
        <pt x="302" y="74" on="1"/>
        <pt x="310" y="72" on="0"/>
        <pt x="323" y="71" on="0"/>
        <pt x="329" y="71" on="1"/>
        <pt x="358" y="71" on="0"/>
        <pt x="383" y="109" on="0"/>
      </contour>
    </TTGlyph>
    <TTGlyph name="afii10108" xMin="25" yMin="0" xMax="441" yMax="694">
      <component glyphName="hbar" x="0" y="0" flags="0x204"/>
    </TTGlyph>
    <TTGlyph name="afii10109" xMin="63" yMin="0" xMax="488" yMax="691">
      <component glyphName="afii10076" x="0" y="0" flags="0x204"/>
      <component glyphName="acute" x="11" y="0" flags="0x4"/>
    </TTGlyph>
    <TTGlyph name="afii10110" xMin="20" yMin="-168" xMax="472" yMax="686">
      <component glyphName="y" x="0" y="0" flags="0x204"/>
      <component glyphName="kratka" x="0" y="0" flags="0x4"/>
    </TTGlyph>
    <TTGlyph name="afii10145" xMin="45" yMin="-165" xMax="455" yMax="619">
      <contour>
        <pt x="306" y="0" on="1"/>
        <pt x="306" y="-165" on="1"/>
        <pt x="192" y="-165" on="1"/>
        <pt x="192" y="0" on="1"/>
        <pt x="45" y="0" on="1"/>
        <pt x="45" y="619" on="1"/>
        <pt x="168" y="619" on="1"/>
        <pt x="168" y="102" on="1"/>
        <pt x="332" y="102" on="1"/>
        <pt x="332" y="619" on="1"/>
        <pt x="455" y="619" on="1"/>
        <pt x="455" y="0" on="1"/>
      </contour>
    </TTGlyph>
    <TTGlyph name="afii10193" xMin="63" yMin="-134" xMax="438" yMax="470">
      <contour>
        <pt x="306" y="0" on="1"/>
        <pt x="306" y="-134" on="1"/>
        <pt x="192" y="-134" on="1"/>
        <pt x="192" y="0" on="1"/>
        <pt x="63" y="0" on="1"/>
        <pt x="63" y="470" on="1"/>
        <pt x="186" y="470" on="1"/>
        <pt x="186" y="102" on="1"/>
        <pt x="314" y="102" on="1"/>
        <pt x="314" y="470" on="1"/>
        <pt x="438" y="470" on="1"/>
        <pt x="438" y="0" on="1"/>
      </contour>
    </TTGlyph>
</ttFont>
